G04*
G04 #@! TF.GenerationSoftware,Altium Limited,Altium Designer,21.1.1 (26)*
G04*
G04 Layer_Physical_Order=2*
G04 Layer_Color=36540*
%FSLAX25Y25*%
%MOIN*%
G70*
G04*
G04 #@! TF.SameCoordinates,8D04C4F7-E2C1-42FD-A476-B4637558DBC3*
G04*
G04*
G04 #@! TF.FilePolarity,Positive*
G04*
G01*
G75*
%ADD68C,0.07874*%
%ADD84C,0.08700*%
%ADD88C,0.08445*%
%ADD89R,0.10950X0.10950*%
%ADD91O,0.10236X0.15354*%
%ADD92O,0.09843X0.06890*%
%ADD95O,0.12000X0.06000*%
%ADD96C,0.08563*%
%ADD97C,0.04842*%
%ADD99C,0.03000*%
%ADD100C,0.05000*%
%ADD101C,0.03200*%
G36*
X165000Y310000D02*
Y12500D01*
X156049Y3549D01*
X43951D01*
X37549Y9951D01*
Y312549D01*
X42500Y317500D01*
X157500D01*
X165000Y310000D01*
D02*
G37*
G36*
X275000D02*
Y227903D01*
X274495Y227694D01*
X273110Y226768D01*
X271932Y225590D01*
X271006Y224205D01*
X270369Y222667D01*
X270044Y221033D01*
Y219367D01*
X270369Y217734D01*
X271006Y216195D01*
X271932Y214810D01*
X273110Y213632D01*
X274495Y212706D01*
X275000Y212497D01*
Y193042D01*
X274603Y192737D01*
X274369Y192800D01*
X273631D01*
X272919Y192609D01*
X272281Y192241D01*
X271759Y191719D01*
X271391Y191081D01*
X271200Y190369D01*
Y189631D01*
X271391Y188919D01*
X271759Y188281D01*
X272281Y187759D01*
X272919Y187391D01*
X273631Y187200D01*
X274369D01*
X274603Y187263D01*
X275000Y186959D01*
Y127903D01*
X274495Y127693D01*
X273110Y126768D01*
X271932Y125590D01*
X271006Y124205D01*
X270369Y122667D01*
X270044Y121033D01*
Y119367D01*
X270369Y117734D01*
X271006Y116195D01*
X271932Y114810D01*
X273110Y113632D01*
X274495Y112706D01*
X274582Y112670D01*
X274680Y112180D01*
X265000Y102500D01*
X189710D01*
X189672Y102642D01*
X188941Y103908D01*
X187908Y104941D01*
X186642Y105672D01*
X185231Y106050D01*
X183769D01*
X182358Y105672D01*
X182022Y105478D01*
X175000Y112500D01*
Y310000D01*
X182500Y317500D01*
X267500D01*
X275000Y310000D01*
D02*
G37*
G36*
X737000Y287500D02*
X736500Y287000D01*
Y30000D01*
X719500Y13000D01*
X421254D01*
X421033Y13448D01*
X421122Y13564D01*
X422233Y15488D01*
X423083Y17540D01*
X423658Y19687D01*
X423948Y21889D01*
Y24111D01*
X423658Y26313D01*
X423083Y28459D01*
X422233Y30512D01*
X421122Y32436D01*
X419769Y34199D01*
X418199Y35770D01*
X416436Y37122D01*
X414512Y38233D01*
X412460Y39083D01*
X410314Y39658D01*
X408111Y39948D01*
X405889D01*
X403687Y39658D01*
X401541Y39083D01*
X399488Y38233D01*
X397564Y37122D01*
X395801Y35770D01*
X394231Y34199D01*
X392878Y32436D01*
X391767Y30512D01*
X390917Y28459D01*
X390342Y26313D01*
X390052Y24111D01*
Y21889D01*
X390342Y19687D01*
X390917Y17540D01*
X391767Y15488D01*
X392878Y13564D01*
X392967Y13448D01*
X392745Y13000D01*
X282000D01*
X272500Y22500D01*
Y97000D01*
X286500Y111000D01*
X491500D01*
X505000Y124500D01*
Y277000D01*
X527500Y299500D01*
X725000D01*
X737000Y287500D01*
D02*
G37*
%LPC*%
G36*
X71311Y315948D02*
X69089D01*
X66887Y315658D01*
X64741Y315083D01*
X62688Y314233D01*
X60764Y313122D01*
X59001Y311770D01*
X57430Y310199D01*
X56078Y308436D01*
X54967Y306512D01*
X54117Y304460D01*
X53542Y302313D01*
X53252Y300111D01*
Y297889D01*
X53542Y295687D01*
X54117Y293541D01*
X54967Y291488D01*
X56078Y289564D01*
X57430Y287801D01*
X59001Y286230D01*
X60764Y284878D01*
X62688Y283767D01*
X64741Y282917D01*
X66887Y282342D01*
X69089Y282052D01*
X71311D01*
X73514Y282342D01*
X75660Y282917D01*
X77712Y283767D01*
X79636Y284878D01*
X81399Y286230D01*
X82969Y287801D01*
X84322Y289564D01*
X85433Y291488D01*
X86283Y293541D01*
X86858Y295687D01*
X87148Y297889D01*
Y300111D01*
X86858Y302313D01*
X86283Y304460D01*
X85433Y306512D01*
X84322Y308436D01*
X82969Y310199D01*
X81399Y311770D01*
X79636Y313122D01*
X77712Y314233D01*
X75660Y315083D01*
X73514Y315658D01*
X71311Y315948D01*
D02*
G37*
G36*
X93231Y261050D02*
X91769D01*
X90358Y260672D01*
X89092Y259941D01*
X88059Y258908D01*
X87328Y257642D01*
X86950Y256231D01*
Y254769D01*
X87328Y253358D01*
X88059Y252092D01*
X89092Y251059D01*
X90358Y250328D01*
X91769Y249950D01*
X93231D01*
X94642Y250328D01*
X95908Y251059D01*
X96941Y252092D01*
X97672Y253358D01*
X98050Y254769D01*
Y256231D01*
X97672Y257642D01*
X96941Y258908D01*
X95908Y259941D01*
X94642Y260672D01*
X93231Y261050D01*
D02*
G37*
G36*
X147016Y245264D02*
X139773D01*
Y238021D01*
X147016D01*
Y245264D01*
D02*
G37*
G36*
X92731Y242050D02*
X91269D01*
X89858Y241672D01*
X88592Y240941D01*
X87559Y239908D01*
X86828Y238642D01*
X86450Y237231D01*
Y235769D01*
X86828Y234358D01*
X87559Y233092D01*
X88592Y232059D01*
X89858Y231328D01*
X91269Y230950D01*
X92731D01*
X94142Y231328D01*
X95408Y232059D01*
X96441Y233092D01*
X97172Y234358D01*
X97550Y235769D01*
Y237231D01*
X97172Y238642D01*
X96441Y239908D01*
X95408Y240941D01*
X94142Y241672D01*
X92731Y242050D01*
D02*
G37*
G36*
X103869Y232300D02*
X103131D01*
X102419Y232109D01*
X101781Y231741D01*
X101259Y231219D01*
X100891Y230581D01*
X100812Y230288D01*
X100519Y230209D01*
X99881Y229841D01*
X99359Y229319D01*
X98991Y228681D01*
X98800Y227969D01*
Y227231D01*
X98991Y226519D01*
X99359Y225881D01*
X99881Y225359D01*
X100519Y224991D01*
X101231Y224800D01*
X101969D01*
X102681Y224991D01*
X103319Y225359D01*
X103841Y225881D01*
X104209Y226519D01*
X104288Y226812D01*
X104581Y226891D01*
X105219Y227259D01*
X105741Y227781D01*
X106109Y228419D01*
X106300Y229131D01*
Y229869D01*
X106109Y230581D01*
X105741Y231219D01*
X105219Y231741D01*
X104581Y232109D01*
X103869Y232300D01*
D02*
G37*
G36*
X67731Y218550D02*
X66269D01*
X64858Y218172D01*
X63592Y217441D01*
X62559Y216408D01*
X61828Y215142D01*
X61450Y213731D01*
Y212269D01*
X61828Y210858D01*
X62559Y209592D01*
X63592Y208559D01*
X64858Y207828D01*
X66269Y207450D01*
X67731D01*
X69142Y207828D01*
X70408Y208559D01*
X71441Y209592D01*
X72172Y210858D01*
X72550Y212269D01*
Y213731D01*
X72172Y215142D01*
X71441Y216408D01*
X70408Y217441D01*
X69142Y218172D01*
X67731Y218550D01*
D02*
G37*
G36*
X156731Y210050D02*
X155269D01*
X153858Y209672D01*
X152592Y208941D01*
X151559Y207908D01*
X150828Y206642D01*
X150450Y205231D01*
Y203769D01*
X150828Y202358D01*
X151559Y201092D01*
X152592Y200059D01*
X153858Y199328D01*
X155269Y198950D01*
X156731D01*
X158142Y199328D01*
X159408Y200059D01*
X160441Y201092D01*
X161172Y202358D01*
X161550Y203769D01*
Y205231D01*
X161172Y206642D01*
X160441Y207908D01*
X159408Y208941D01*
X158142Y209672D01*
X156731Y210050D01*
D02*
G37*
G36*
X67731Y195050D02*
X66269D01*
X64858Y194672D01*
X63592Y193941D01*
X62559Y192908D01*
X61828Y191642D01*
X61450Y190231D01*
Y188769D01*
X61828Y187358D01*
X62559Y186092D01*
X63592Y185059D01*
X64858Y184328D01*
X66269Y183950D01*
X67731D01*
X69142Y184328D01*
X70408Y185059D01*
X71441Y186092D01*
X72172Y187358D01*
X72550Y188769D01*
Y190231D01*
X72172Y191642D01*
X71441Y192908D01*
X70408Y193941D01*
X69142Y194672D01*
X67731Y195050D01*
D02*
G37*
G36*
X122931Y192362D02*
X122194D01*
X121482Y192172D01*
X120843Y191803D01*
X120322Y191282D01*
X119953Y190643D01*
X119763Y189931D01*
Y189194D01*
X119953Y188482D01*
X120322Y187843D01*
X120806Y187359D01*
X120860Y187188D01*
Y186937D01*
X120806Y186766D01*
X120322Y186282D01*
X119953Y185643D01*
X119763Y184931D01*
Y184194D01*
X119953Y183482D01*
X120322Y182843D01*
X120843Y182322D01*
X121482Y181953D01*
X122194Y181763D01*
X122931D01*
X123643Y181953D01*
X124282Y182322D01*
X124803Y182843D01*
X125172Y183482D01*
X125363Y184194D01*
Y184931D01*
X125172Y185643D01*
X124803Y186282D01*
X124319Y186766D01*
X124265Y186937D01*
Y187188D01*
X124319Y187359D01*
X124803Y187843D01*
X125172Y188482D01*
X125363Y189194D01*
Y189931D01*
X125172Y190643D01*
X124803Y191282D01*
X124282Y191803D01*
X123643Y192172D01*
X122931Y192362D01*
D02*
G37*
G36*
X156055Y170800D02*
X155344D01*
X154658Y170616D01*
X154042Y170261D01*
X153540Y169758D01*
X153184Y169142D01*
X153000Y168456D01*
Y167745D01*
X153184Y167058D01*
X153540Y166442D01*
X154042Y165939D01*
X154658Y165584D01*
X155344Y165400D01*
X156055D01*
X156742Y165584D01*
X157358Y165939D01*
X157861Y166442D01*
X158216Y167058D01*
X158400Y167745D01*
Y168456D01*
X158216Y169142D01*
X157861Y169758D01*
X157358Y170261D01*
X156742Y170616D01*
X156055Y170800D01*
D02*
G37*
G36*
X136869Y167300D02*
X136131D01*
X135419Y167109D01*
X134781Y166741D01*
X134259Y166219D01*
X133891Y165581D01*
X133700Y164869D01*
Y164131D01*
X133891Y163419D01*
X134259Y162781D01*
X134781Y162259D01*
X135419Y161891D01*
X136131Y161700D01*
X136869D01*
X137581Y161891D01*
X138219Y162259D01*
X138741Y162781D01*
X139109Y163419D01*
X139300Y164131D01*
Y164869D01*
X139109Y165581D01*
X138741Y166219D01*
X138219Y166741D01*
X137581Y167109D01*
X136869Y167300D01*
D02*
G37*
G36*
X123600Y163336D02*
X117600D01*
X116504Y163192D01*
X115482Y162769D01*
X114604Y162095D01*
X113931Y161218D01*
X113508Y160196D01*
X113364Y159100D01*
X113508Y158004D01*
X113931Y156982D01*
X114604Y156105D01*
X115482Y155431D01*
X116504Y155008D01*
X117600Y154864D01*
X123600D01*
X124696Y155008D01*
X125718Y155431D01*
X126595Y156105D01*
X127269Y156982D01*
X127692Y158004D01*
X127836Y159100D01*
X127692Y160196D01*
X127269Y161218D01*
X126595Y162095D01*
X125718Y162769D01*
X124696Y163192D01*
X123600Y163336D01*
D02*
G37*
G36*
X93600D02*
X87600D01*
X86504Y163192D01*
X85482Y162769D01*
X84605Y162095D01*
X83931Y161218D01*
X83508Y160196D01*
X83364Y159100D01*
X83508Y158004D01*
X83931Y156982D01*
X84605Y156105D01*
X85482Y155431D01*
X86504Y155008D01*
X87600Y154864D01*
X93600D01*
X94696Y155008D01*
X95718Y155431D01*
X96596Y156105D01*
X97269Y156982D01*
X97692Y158004D01*
X97836Y159100D01*
X97692Y160196D01*
X97269Y161218D01*
X96596Y162095D01*
X95718Y162769D01*
X94696Y163192D01*
X93600Y163336D01*
D02*
G37*
G36*
Y143336D02*
X87600D01*
X86504Y143192D01*
X85482Y142769D01*
X84605Y142095D01*
X83931Y141218D01*
X83508Y140196D01*
X83364Y139100D01*
X83508Y138004D01*
X83931Y136982D01*
X84605Y136105D01*
X85482Y135431D01*
X86504Y135008D01*
X87600Y134864D01*
X93600D01*
X94696Y135008D01*
X95718Y135431D01*
X96596Y136105D01*
X97269Y136982D01*
X97692Y138004D01*
X97836Y139100D01*
X97692Y140196D01*
X97269Y141218D01*
X96596Y142095D01*
X95718Y142769D01*
X94696Y143192D01*
X93600Y143336D01*
D02*
G37*
G36*
X123600Y133336D02*
X117600D01*
X116504Y133192D01*
X115482Y132769D01*
X114604Y132096D01*
X113931Y131218D01*
X113508Y130196D01*
X113364Y129100D01*
X113508Y128004D01*
X113931Y126982D01*
X114604Y126104D01*
X115482Y125431D01*
X116504Y125008D01*
X117600Y124864D01*
X123600D01*
X124696Y125008D01*
X125718Y125431D01*
X126595Y126104D01*
X127269Y126982D01*
X127692Y128004D01*
X127836Y129100D01*
X127692Y130196D01*
X127269Y131218D01*
X126595Y132096D01*
X125718Y132769D01*
X124696Y133192D01*
X123600Y133336D01*
D02*
G37*
G36*
X93600D02*
X87600D01*
X86504Y133192D01*
X85482Y132769D01*
X84605Y132096D01*
X83931Y131218D01*
X83508Y130196D01*
X83364Y129100D01*
X83508Y128004D01*
X83931Y126982D01*
X84605Y126104D01*
X85482Y125431D01*
X86504Y125008D01*
X87600Y124864D01*
X93600D01*
X94696Y125008D01*
X95718Y125431D01*
X96596Y126104D01*
X97269Y126982D01*
X97692Y128004D01*
X97836Y129100D01*
X97692Y130196D01*
X97269Y131218D01*
X96596Y132096D01*
X95718Y132769D01*
X94696Y133192D01*
X93600Y133336D01*
D02*
G37*
G36*
X75231Y119050D02*
X73769D01*
X72358Y118672D01*
X71092Y117941D01*
X70059Y116908D01*
X69328Y115642D01*
X68950Y114231D01*
Y112769D01*
X69328Y111358D01*
X70059Y110092D01*
X71092Y109059D01*
X72358Y108328D01*
X73769Y107950D01*
X75231D01*
X76642Y108328D01*
X77908Y109059D01*
X78941Y110092D01*
X79672Y111358D01*
X80050Y112769D01*
Y114231D01*
X79672Y115642D01*
X78941Y116908D01*
X77908Y117941D01*
X76642Y118672D01*
X75231Y119050D01*
D02*
G37*
G36*
X133355Y75700D02*
X132644D01*
X131958Y75516D01*
X131342Y75160D01*
X130840Y74658D01*
X130484Y74042D01*
X130300Y73356D01*
Y72645D01*
X130484Y71958D01*
X130840Y71342D01*
X131342Y70840D01*
X131958Y70484D01*
X132644Y70300D01*
X133355D01*
X134042Y70484D01*
X134658Y70840D01*
X135161Y71342D01*
X135516Y71958D01*
X135700Y72645D01*
Y73356D01*
X135516Y74042D01*
X135161Y74658D01*
X134658Y75160D01*
X134042Y75516D01*
X133355Y75700D01*
D02*
G37*
G36*
X71976Y74685D02*
X69024D01*
X67811Y74525D01*
X66681Y74057D01*
X65711Y73313D01*
X64966Y72342D01*
X64498Y71213D01*
X64339Y70000D01*
X64498Y68787D01*
X64966Y67658D01*
X65711Y66687D01*
X66681Y65943D01*
X67811Y65475D01*
X69024Y65315D01*
X71976D01*
X73189Y65475D01*
X74319Y65943D01*
X75289Y66687D01*
X76034Y67658D01*
X76502Y68787D01*
X76661Y70000D01*
X76502Y71213D01*
X76034Y72342D01*
X75289Y73313D01*
X74319Y74057D01*
X73189Y74525D01*
X71976Y74685D01*
D02*
G37*
G36*
X99231Y76050D02*
X97769D01*
X96358Y75672D01*
X95092Y74941D01*
X94059Y73908D01*
X93328Y72642D01*
X92950Y71231D01*
Y69769D01*
X93328Y68358D01*
X94059Y67092D01*
X95092Y66059D01*
X96358Y65328D01*
X97769Y64950D01*
X99231D01*
X100642Y65328D01*
X101908Y66059D01*
X102941Y67092D01*
X103672Y68358D01*
X104050Y69769D01*
Y71231D01*
X103672Y72642D01*
X102941Y73908D01*
X101908Y74941D01*
X100642Y75672D01*
X99231Y76050D01*
D02*
G37*
G36*
X125231Y75550D02*
X123769D01*
X122358Y75172D01*
X121092Y74441D01*
X120059Y73408D01*
X119328Y72142D01*
X118950Y70731D01*
Y69269D01*
X119328Y67858D01*
X120059Y66592D01*
X121092Y65559D01*
X122358Y64828D01*
X123769Y64450D01*
X125231D01*
X126642Y64828D01*
X127908Y65559D01*
X128941Y66592D01*
X129672Y67858D01*
X130050Y69269D01*
Y70731D01*
X129672Y72142D01*
X128941Y73408D01*
X127908Y74441D01*
X126642Y75172D01*
X125231Y75550D01*
D02*
G37*
G36*
X130922Y50682D02*
X129478D01*
X128084Y50308D01*
X126834Y49586D01*
X125814Y48566D01*
X125092Y47316D01*
X124718Y45922D01*
Y44478D01*
X125092Y43084D01*
X125814Y41834D01*
X126834Y40814D01*
X128084Y40092D01*
X129478Y39718D01*
X130922D01*
X132316Y40092D01*
X133566Y40814D01*
X134586Y41834D01*
X135308Y43084D01*
X135681Y44478D01*
Y45922D01*
X135308Y47316D01*
X134586Y48566D01*
X133566Y49586D01*
X132316Y50308D01*
X130922Y50682D01*
D02*
G37*
G36*
X105922D02*
X104478D01*
X103084Y50308D01*
X101834Y49586D01*
X100814Y48566D01*
X100092Y47316D01*
X99718Y45922D01*
Y44478D01*
X100092Y43084D01*
X100814Y41834D01*
X101834Y40814D01*
X103084Y40092D01*
X104478Y39718D01*
X105922D01*
X107316Y40092D01*
X108566Y40814D01*
X109586Y41834D01*
X110308Y43084D01*
X110681Y44478D01*
Y45922D01*
X110308Y47316D01*
X109586Y48566D01*
X108566Y49586D01*
X107316Y50308D01*
X105922Y50682D01*
D02*
G37*
G36*
X130922Y30681D02*
X129478D01*
X128084Y30308D01*
X126834Y29586D01*
X125814Y28566D01*
X125092Y27316D01*
X124718Y25922D01*
Y24478D01*
X125092Y23084D01*
X125814Y21834D01*
X126834Y20814D01*
X128084Y20092D01*
X129478Y19718D01*
X130922D01*
X132316Y20092D01*
X133566Y20814D01*
X134586Y21834D01*
X135308Y23084D01*
X135681Y24478D01*
Y25922D01*
X135308Y27316D01*
X134586Y28566D01*
X133566Y29586D01*
X132316Y30308D01*
X130922Y30681D01*
D02*
G37*
G36*
X105922D02*
X104478D01*
X103084Y30308D01*
X101834Y29586D01*
X100814Y28566D01*
X100092Y27316D01*
X99718Y25922D01*
Y24478D01*
X100092Y23084D01*
X100814Y21834D01*
X101834Y20814D01*
X103084Y20092D01*
X104478Y19718D01*
X105922D01*
X107316Y20092D01*
X108566Y20814D01*
X109586Y21834D01*
X110308Y23084D01*
X110681Y24478D01*
Y25922D01*
X110308Y27316D01*
X109586Y28566D01*
X108566Y29586D01*
X107316Y30308D01*
X105922Y30681D01*
D02*
G37*
G36*
X71311Y39948D02*
X69089D01*
X66887Y39658D01*
X64741Y39083D01*
X62688Y38233D01*
X60764Y37122D01*
X59001Y35770D01*
X57430Y34199D01*
X56078Y32436D01*
X54967Y30512D01*
X54117Y28459D01*
X53542Y26313D01*
X53252Y24111D01*
Y21889D01*
X53542Y19687D01*
X54117Y17540D01*
X54967Y15488D01*
X56078Y13564D01*
X57430Y11801D01*
X59001Y10231D01*
X60764Y8878D01*
X62688Y7767D01*
X64741Y6917D01*
X66887Y6342D01*
X69089Y6052D01*
X71311D01*
X73514Y6342D01*
X75660Y6917D01*
X77712Y7767D01*
X79636Y8878D01*
X81399Y10231D01*
X82969Y11801D01*
X84322Y13564D01*
X85433Y15488D01*
X86283Y17540D01*
X86858Y19687D01*
X87148Y21889D01*
Y24111D01*
X86858Y26313D01*
X86283Y28459D01*
X85433Y30512D01*
X84322Y32436D01*
X82969Y34199D01*
X81399Y35770D01*
X79636Y37122D01*
X77712Y38233D01*
X75660Y39083D01*
X73514Y39658D01*
X71311Y39948D01*
D02*
G37*
G36*
X248231Y285550D02*
X246769D01*
X245358Y285172D01*
X244092Y284441D01*
X243059Y283408D01*
X242328Y282142D01*
X241950Y280731D01*
Y279269D01*
X242328Y277858D01*
X243059Y276592D01*
X244092Y275559D01*
X245358Y274828D01*
X246769Y274450D01*
X248231D01*
X249642Y274828D01*
X250908Y275559D01*
X251941Y276592D01*
X252672Y277858D01*
X253050Y279269D01*
Y280731D01*
X252672Y282142D01*
X251941Y283408D01*
X250908Y284441D01*
X249642Y285172D01*
X248231Y285550D01*
D02*
G37*
G36*
X230731Y285050D02*
X229269D01*
X227858Y284672D01*
X226592Y283941D01*
X225559Y282908D01*
X224828Y281642D01*
X224450Y280231D01*
Y278769D01*
X224828Y277358D01*
X225559Y276092D01*
X226592Y275059D01*
X227858Y274328D01*
X229269Y273950D01*
X230731D01*
X232142Y274328D01*
X233408Y275059D01*
X234441Y276092D01*
X235172Y277358D01*
X235550Y278769D01*
Y280231D01*
X235172Y281642D01*
X234441Y282908D01*
X233408Y283941D01*
X232142Y284672D01*
X230731Y285050D01*
D02*
G37*
G36*
X203871Y245264D02*
X202918D01*
X201997Y245017D01*
X201171Y244540D01*
X200497Y243866D01*
X200020Y243040D01*
X199773Y242119D01*
Y241166D01*
X200020Y240245D01*
X200497Y239419D01*
X201171Y238745D01*
X201997Y238268D01*
X202918Y238021D01*
X203871D01*
X204792Y238268D01*
X205618Y238745D01*
X206292Y239419D01*
X206769Y240245D01*
X207016Y241166D01*
Y242119D01*
X206769Y243040D01*
X206292Y243866D01*
X205618Y244540D01*
X204792Y245017D01*
X203871Y245264D01*
D02*
G37*
G36*
X183871D02*
X182918D01*
X181997Y245017D01*
X181171Y244540D01*
X180497Y243866D01*
X180020Y243040D01*
X179773Y242119D01*
Y241166D01*
X180020Y240245D01*
X180497Y239419D01*
X181171Y238745D01*
X181997Y238268D01*
X182918Y238021D01*
X183871D01*
X184792Y238268D01*
X185618Y238745D01*
X186292Y239419D01*
X186769Y240245D01*
X187016Y241166D01*
Y242119D01*
X186769Y243040D01*
X186292Y243866D01*
X185618Y244540D01*
X184792Y245017D01*
X183871Y245264D01*
D02*
G37*
G36*
X220731Y211050D02*
X219269D01*
X217858Y210672D01*
X216592Y209941D01*
X215559Y208908D01*
X214828Y207642D01*
X214450Y206231D01*
Y204769D01*
X214828Y203358D01*
X215559Y202092D01*
X216592Y201059D01*
X217858Y200328D01*
X219269Y199950D01*
X220731D01*
X222142Y200328D01*
X223408Y201059D01*
X224441Y202092D01*
X225172Y203358D01*
X225550Y204769D01*
Y206231D01*
X225172Y207642D01*
X224441Y208908D01*
X223408Y209941D01*
X222142Y210672D01*
X220731Y211050D01*
D02*
G37*
G36*
X270369Y172800D02*
X269631D01*
X268919Y172609D01*
X268281Y172241D01*
X267759Y171719D01*
X267391Y171081D01*
X267200Y170369D01*
Y169631D01*
X267391Y168919D01*
X267759Y168281D01*
X268281Y167759D01*
X268919Y167391D01*
X269631Y167200D01*
X270369D01*
X271081Y167391D01*
X271719Y167759D01*
X272241Y168281D01*
X272609Y168919D01*
X272800Y169631D01*
Y170369D01*
X272609Y171081D01*
X272241Y171719D01*
X271719Y172241D01*
X271081Y172609D01*
X270369Y172800D01*
D02*
G37*
G36*
X206356Y167700D02*
X205644D01*
X204958Y167516D01*
X204342Y167160D01*
X204000Y166818D01*
X203658Y167160D01*
X203042Y167516D01*
X202356Y167700D01*
X201644D01*
X200958Y167516D01*
X200342Y167160D01*
X199839Y166658D01*
X199484Y166042D01*
X199300Y165356D01*
Y164645D01*
X199484Y163958D01*
X199839Y163342D01*
X200342Y162839D01*
X200958Y162484D01*
X201644Y162300D01*
X202356D01*
X203042Y162484D01*
X203658Y162839D01*
X204000Y163182D01*
X204342Y162839D01*
X204958Y162484D01*
X205644Y162300D01*
X206356D01*
X207042Y162484D01*
X207658Y162839D01*
X208160Y163342D01*
X208516Y163958D01*
X208700Y164645D01*
Y165356D01*
X208516Y166042D01*
X208160Y166658D01*
X207658Y167160D01*
X207042Y167516D01*
X206356Y167700D01*
D02*
G37*
G36*
X245369Y154800D02*
X244631D01*
X243919Y154609D01*
X243281Y154241D01*
X242759Y153719D01*
X242391Y153081D01*
X242200Y152369D01*
Y151631D01*
X242391Y150919D01*
X242759Y150281D01*
X243281Y149759D01*
X243919Y149391D01*
X244631Y149200D01*
X245369D01*
X246081Y149391D01*
X246719Y149759D01*
X247241Y150281D01*
X247609Y150919D01*
X247800Y151631D01*
Y152369D01*
X247609Y153081D01*
X247241Y153719D01*
X246719Y154241D01*
X246081Y154609D01*
X245369Y154800D01*
D02*
G37*
G36*
X179356Y154700D02*
X178645D01*
X177958Y154516D01*
X177342Y154160D01*
X176839Y153658D01*
X176484Y153042D01*
X176300Y152356D01*
Y151645D01*
X176484Y150958D01*
X176839Y150342D01*
X177182Y150000D01*
X176839Y149658D01*
X176484Y149042D01*
X176300Y148355D01*
Y147644D01*
X176484Y146958D01*
X176839Y146342D01*
X177182Y146000D01*
X176839Y145658D01*
X176484Y145042D01*
X176300Y144355D01*
Y143644D01*
X176484Y142958D01*
X176839Y142342D01*
X177342Y141840D01*
X177958Y141484D01*
X178645Y141300D01*
X179356D01*
X180042Y141484D01*
X180658Y141840D01*
X181160Y142342D01*
X181516Y142958D01*
X181700Y143644D01*
Y144355D01*
X181516Y145042D01*
X181160Y145658D01*
X180818Y146000D01*
X181160Y146342D01*
X181516Y146958D01*
X181700Y147644D01*
Y148355D01*
X181516Y149042D01*
X181160Y149658D01*
X180818Y150000D01*
X181160Y150342D01*
X181516Y150958D01*
X181700Y151645D01*
Y152356D01*
X181516Y153042D01*
X181160Y153658D01*
X180658Y154160D01*
X180042Y154516D01*
X179356Y154700D01*
D02*
G37*
G36*
X684315Y265908D02*
X683076Y265786D01*
X681885Y265424D01*
X680788Y264838D01*
X679826Y264048D01*
X679036Y263086D01*
X678450Y261989D01*
X678088Y260798D01*
X677966Y259559D01*
Y254441D01*
X678088Y253202D01*
X678450Y252011D01*
X679036Y250914D01*
X679826Y249952D01*
X680788Y249162D01*
X681885Y248576D01*
X683076Y248214D01*
X684315Y248092D01*
X685554Y248214D01*
X686744Y248576D01*
X687842Y249162D01*
X688804Y249952D01*
X689594Y250914D01*
X690180Y252011D01*
X690542Y253202D01*
X690664Y254441D01*
Y259559D01*
X690542Y260798D01*
X690180Y261989D01*
X689594Y263086D01*
X688804Y264048D01*
X687842Y264838D01*
X686744Y265424D01*
X685554Y265786D01*
X684315Y265908D01*
D02*
G37*
G36*
X606833Y228456D02*
X605167D01*
X603534Y228131D01*
X601995Y227494D01*
X600610Y226568D01*
X599432Y225390D01*
X598506Y224005D01*
X597869Y222466D01*
X597544Y220833D01*
Y219167D01*
X597869Y217533D01*
X598506Y215995D01*
X599432Y214610D01*
X600610Y213432D01*
X601995Y212507D01*
X603534Y211869D01*
X605167Y211544D01*
X606833D01*
X608466Y211869D01*
X610005Y212507D01*
X611390Y213432D01*
X612568Y214610D01*
X613493Y215995D01*
X614131Y217533D01*
X614456Y219167D01*
Y220833D01*
X614131Y222466D01*
X613493Y224005D01*
X612568Y225390D01*
X611390Y226568D01*
X610005Y227494D01*
X608466Y228131D01*
X606833Y228456D01*
D02*
G37*
G36*
X595063Y185181D02*
X590937D01*
X589596Y185005D01*
X588346Y184487D01*
X587273Y183664D01*
X586450Y182591D01*
X585932Y181341D01*
X585756Y180000D01*
X585932Y178659D01*
X586450Y177409D01*
X587273Y176336D01*
X588346Y175513D01*
X589596Y174995D01*
X590937Y174819D01*
X595063D01*
X596404Y174995D01*
X597654Y175513D01*
X598727Y176336D01*
X599550Y177409D01*
X600068Y178659D01*
X600244Y180000D01*
X600068Y181341D01*
X599550Y182591D01*
X598727Y183664D01*
X597654Y184487D01*
X596404Y185005D01*
X595063Y185181D01*
D02*
G37*
G36*
X562231Y184050D02*
X560769D01*
X559358Y183672D01*
X558092Y182941D01*
X557059Y181908D01*
X556328Y180642D01*
X555950Y179231D01*
Y177769D01*
X556328Y176358D01*
X557059Y175092D01*
X558092Y174059D01*
X559358Y173328D01*
X560769Y172950D01*
X562231D01*
X563642Y173328D01*
X564908Y174059D01*
X565941Y175092D01*
X566672Y176358D01*
X567050Y177769D01*
Y179231D01*
X566672Y180642D01*
X565941Y181908D01*
X564908Y182941D01*
X563642Y183672D01*
X562231Y184050D01*
D02*
G37*
G36*
X681207Y185575D02*
X679892D01*
X678602Y185319D01*
X677388Y184815D01*
X676294Y184085D01*
X675364Y183155D01*
X674634Y182062D01*
X674131Y180847D01*
X673874Y179557D01*
Y178243D01*
X674131Y176953D01*
X674634Y175738D01*
X675364Y174645D01*
X676294Y173715D01*
X677388Y172985D01*
X678602Y172482D01*
X679892Y172225D01*
X681207D01*
X682496Y172482D01*
X683711Y172985D01*
X684804Y173715D01*
X685734Y174645D01*
X686465Y175738D01*
X686968Y176953D01*
X687224Y178243D01*
Y179557D01*
X686968Y180847D01*
X686465Y182062D01*
X685734Y183155D01*
X684804Y184085D01*
X683711Y184815D01*
X682496Y185319D01*
X681207Y185575D01*
D02*
G37*
G36*
X595063Y165075D02*
X590937D01*
X589596Y164899D01*
X588346Y164381D01*
X587273Y163558D01*
X586450Y162484D01*
X585932Y161235D01*
X585756Y159894D01*
X585932Y158553D01*
X586450Y157303D01*
X587273Y156230D01*
X588346Y155406D01*
X589596Y154889D01*
X590937Y154712D01*
X595063D01*
X596404Y154889D01*
X597654Y155406D01*
X598727Y156230D01*
X599550Y157303D01*
X600068Y158553D01*
X600244Y159894D01*
X600068Y161235D01*
X599550Y162484D01*
X598727Y163558D01*
X597654Y164381D01*
X596404Y164899D01*
X595063Y165075D01*
D02*
G37*
G36*
X515676Y160665D02*
X514324D01*
X513017Y160315D01*
X511846Y159638D01*
X510889Y158682D01*
X510213Y157510D01*
X509863Y156204D01*
Y154851D01*
X510213Y153545D01*
X510889Y152373D01*
X511846Y151417D01*
X513017Y150741D01*
X514324Y150391D01*
X515676D01*
X516983Y150741D01*
X518154Y151417D01*
X519111Y152373D01*
X519787Y153545D01*
X520137Y154851D01*
Y156204D01*
X519787Y157510D01*
X519111Y158682D01*
X518154Y159638D01*
X516983Y160315D01*
X515676Y160665D01*
D02*
G37*
G36*
X606833Y128456D02*
X605167D01*
X603534Y128131D01*
X601995Y127494D01*
X600610Y126568D01*
X599432Y125390D01*
X598506Y124005D01*
X597869Y122467D01*
X597544Y120833D01*
Y119167D01*
X597869Y117534D01*
X598506Y115995D01*
X599432Y114610D01*
X600610Y113432D01*
X601995Y112506D01*
X603534Y111869D01*
X605167Y111544D01*
X606833D01*
X608466Y111869D01*
X610005Y112506D01*
X611390Y113432D01*
X612568Y114610D01*
X613493Y115995D01*
X614131Y117534D01*
X614456Y119167D01*
Y120833D01*
X614131Y122467D01*
X613493Y124005D01*
X612568Y125390D01*
X611390Y126568D01*
X610005Y127494D01*
X608466Y128131D01*
X606833Y128456D01*
D02*
G37*
G36*
X353676Y101610D02*
X352324D01*
X351017Y101259D01*
X349846Y100583D01*
X348889Y99627D01*
X348213Y98455D01*
X347863Y97149D01*
Y95796D01*
X348213Y94490D01*
X348889Y93318D01*
X349846Y92362D01*
X351017Y91685D01*
X352324Y91335D01*
X353676D01*
X354983Y91685D01*
X356154Y92362D01*
X357111Y93318D01*
X357787Y94490D01*
X358137Y95796D01*
Y97149D01*
X357787Y98455D01*
X357111Y99627D01*
X356154Y100583D01*
X354983Y101259D01*
X353676Y101610D01*
D02*
G37*
G36*
X526231Y76550D02*
X524769D01*
X523358Y76172D01*
X522092Y75441D01*
X521059Y74408D01*
X520328Y73142D01*
X519950Y71731D01*
Y70269D01*
X520328Y68858D01*
X521059Y67592D01*
X522092Y66559D01*
X523358Y65828D01*
X524769Y65450D01*
X526231D01*
X527642Y65828D01*
X528908Y66559D01*
X529941Y67592D01*
X530672Y68858D01*
X531050Y70269D01*
Y71731D01*
X530672Y73142D01*
X529941Y74408D01*
X528908Y75441D01*
X527642Y76172D01*
X526231Y76550D01*
D02*
G37*
G36*
X589231Y75050D02*
X587769D01*
X586358Y74672D01*
X585092Y73941D01*
X584059Y72908D01*
X583328Y71642D01*
X582950Y70231D01*
Y68769D01*
X583328Y67358D01*
X584059Y66092D01*
X585092Y65059D01*
X586358Y64328D01*
X587769Y63950D01*
X589231D01*
X590642Y64328D01*
X591908Y65059D01*
X592941Y66092D01*
X593672Y67358D01*
X594050Y68769D01*
Y70231D01*
X593672Y71642D01*
X592941Y72908D01*
X591908Y73941D01*
X590642Y74672D01*
X589231Y75050D01*
D02*
G37*
G36*
X684315Y65908D02*
X683076Y65786D01*
X681885Y65425D01*
X680788Y64838D01*
X679826Y64048D01*
X679036Y63086D01*
X678450Y61989D01*
X678088Y60798D01*
X677966Y59559D01*
Y54441D01*
X678088Y53202D01*
X678450Y52011D01*
X679036Y50914D01*
X679826Y49952D01*
X680788Y49162D01*
X681885Y48575D01*
X683076Y48214D01*
X684315Y48092D01*
X685554Y48214D01*
X686744Y48575D01*
X687842Y49162D01*
X688804Y49952D01*
X689594Y50914D01*
X690180Y52011D01*
X690542Y53202D01*
X690664Y54441D01*
Y59559D01*
X690542Y60798D01*
X690180Y61989D01*
X689594Y63086D01*
X688804Y64048D01*
X687842Y64838D01*
X686744Y65425D01*
X685554Y65786D01*
X684315Y65908D01*
D02*
G37*
G36*
X588214Y51922D02*
X586786D01*
X585407Y51553D01*
X584170Y50839D01*
X583161Y49830D01*
X582447Y48593D01*
X582078Y47214D01*
Y45786D01*
X582447Y44407D01*
X583161Y43170D01*
X584170Y42161D01*
X585407Y41447D01*
X586786Y41078D01*
X588214D01*
X589593Y41447D01*
X590830Y42161D01*
X591839Y43170D01*
X592553Y44407D01*
X592922Y45786D01*
Y47214D01*
X592553Y48593D01*
X591839Y49830D01*
X590830Y50839D01*
X589593Y51553D01*
X588214Y51922D01*
D02*
G37*
G36*
X500714D02*
X499286D01*
X497907Y51553D01*
X496670Y50839D01*
X495661Y49830D01*
X494947Y48593D01*
X494578Y47214D01*
Y45786D01*
X494947Y44407D01*
X495661Y43170D01*
X496670Y42161D01*
X497907Y41447D01*
X499286Y41078D01*
X500714D01*
X502093Y41447D01*
X503330Y42161D01*
X504339Y43170D01*
X505053Y44407D01*
X505422Y45786D01*
Y47214D01*
X505053Y48593D01*
X504339Y49830D01*
X503330Y50839D01*
X502093Y51553D01*
X500714Y51922D01*
D02*
G37*
G36*
X458214D02*
X456786D01*
X455407Y51553D01*
X454171Y50839D01*
X453161Y49830D01*
X452447Y48593D01*
X452078Y47214D01*
Y45786D01*
X452447Y44407D01*
X453161Y43170D01*
X454171Y42161D01*
X455407Y41447D01*
X456786Y41078D01*
X458214D01*
X459593Y41447D01*
X460829Y42161D01*
X461839Y43170D01*
X462553Y44407D01*
X462922Y45786D01*
Y47214D01*
X462553Y48593D01*
X461839Y49830D01*
X460829Y50839D01*
X459593Y51553D01*
X458214Y51922D01*
D02*
G37*
G36*
X588214Y31922D02*
X586786D01*
X585407Y31553D01*
X584170Y30839D01*
X583161Y29829D01*
X582447Y28593D01*
X582078Y27214D01*
Y25786D01*
X582447Y24407D01*
X583161Y23170D01*
X584170Y22161D01*
X585407Y21447D01*
X586786Y21078D01*
X588214D01*
X589593Y21447D01*
X590830Y22161D01*
X591839Y23170D01*
X592553Y24407D01*
X592922Y25786D01*
Y27214D01*
X592553Y28593D01*
X591839Y29829D01*
X590830Y30839D01*
X589593Y31553D01*
X588214Y31922D01*
D02*
G37*
G36*
X500714D02*
X499286D01*
X497907Y31553D01*
X496670Y30839D01*
X495661Y29829D01*
X494947Y28593D01*
X494578Y27214D01*
Y25786D01*
X494947Y24407D01*
X495661Y23170D01*
X496670Y22161D01*
X497907Y21447D01*
X499286Y21078D01*
X500714D01*
X502093Y21447D01*
X503330Y22161D01*
X504339Y23170D01*
X505053Y24407D01*
X505422Y25786D01*
Y27214D01*
X505053Y28593D01*
X504339Y29829D01*
X503330Y30839D01*
X502093Y31553D01*
X500714Y31922D01*
D02*
G37*
G36*
X458214D02*
X456786D01*
X455407Y31553D01*
X454171Y30839D01*
X453161Y29829D01*
X452447Y28593D01*
X452078Y27214D01*
Y25786D01*
X452447Y24407D01*
X453161Y23170D01*
X454171Y22161D01*
X455407Y21447D01*
X456786Y21078D01*
X458214D01*
X459593Y21447D01*
X460829Y22161D01*
X461839Y23170D01*
X462553Y24407D01*
X462922Y25786D01*
Y27214D01*
X462553Y28593D01*
X461839Y29829D01*
X460829Y30839D01*
X459593Y31553D01*
X458214Y31922D01*
D02*
G37*
%LPD*%
D68*
X464000Y96472D02*
D03*
X515000D02*
D03*
X416000D02*
D03*
X521134Y223000D02*
D03*
D84*
X631500Y70000D02*
D03*
X67000Y235500D02*
D03*
X263500Y280500D02*
D03*
D88*
X613000Y26500D02*
D03*
Y46500D02*
D03*
X280500Y26500D02*
D03*
Y46500D02*
D03*
X528000D02*
D03*
Y26500D02*
D03*
D89*
X680549Y135100D02*
D03*
D91*
X723685Y257000D02*
D03*
Y57000D02*
D03*
D92*
X70500Y80000D02*
D03*
D95*
X90600Y149100D02*
D03*
D96*
X156200Y25200D02*
D03*
Y45200D02*
D03*
D97*
X193394Y241642D02*
D03*
X153394D02*
D03*
D99*
X224787Y185000D02*
D03*
Y181000D02*
D03*
X191000Y115000D02*
D03*
X197000D02*
D03*
X210000D02*
D03*
X205000D02*
D03*
X209000Y129000D02*
D03*
X99828Y189900D02*
D03*
X189000Y158000D02*
D03*
X90000Y203000D02*
D03*
X156000Y152500D02*
D03*
Y158000D02*
D03*
X200787Y198000D02*
D03*
X208000Y197000D02*
D03*
Y192000D02*
D03*
X213000D02*
D03*
X214000Y185000D02*
D03*
X213000Y197000D02*
D03*
X208000Y185000D02*
D03*
X190000Y198000D02*
D03*
X110200Y217000D02*
D03*
X247000Y186000D02*
D03*
X240000D02*
D03*
X233000Y178000D02*
D03*
X224000Y135000D02*
D03*
X215000Y129000D02*
D03*
X156000Y148000D02*
D03*
X220000Y115000D02*
D03*
X215000D02*
D03*
X162500Y187000D02*
D03*
X90000Y177200D02*
D03*
X121900Y216400D02*
D03*
X130600Y224200D02*
D03*
X142500Y144100D02*
D03*
X136000D02*
D03*
D100*
X156000Y143000D02*
D03*
X160000Y135000D02*
D03*
X156000Y127000D02*
D03*
X160000Y119000D02*
D03*
X156000Y111000D02*
D03*
X160000Y103000D02*
D03*
X156000Y95000D02*
D03*
X148000Y143000D02*
D03*
X152000Y135000D02*
D03*
X148000Y127000D02*
D03*
X152000Y119000D02*
D03*
X148000Y111000D02*
D03*
X152000Y103000D02*
D03*
X148000Y95000D02*
D03*
X144000Y135000D02*
D03*
X140000Y127000D02*
D03*
X144000Y119000D02*
D03*
X140000Y111000D02*
D03*
X144000Y103000D02*
D03*
X140000Y95000D02*
D03*
X136000Y135000D02*
D03*
X132000Y127000D02*
D03*
X136000Y119000D02*
D03*
X132000Y111000D02*
D03*
X136000Y103000D02*
D03*
X128000Y135000D02*
D03*
Y119000D02*
D03*
X120000D02*
D03*
X108000Y127000D02*
D03*
D101*
X151500Y64500D02*
D03*
X159500Y73000D02*
D03*
M02*
