G04*
G04 #@! TF.GenerationSoftware,Altium Limited,Altium Designer,21.1.1 (26)*
G04*
G04 Layer_Color=65535*
%FSLAX25Y25*%
%MOIN*%
G70*
G04*
G04 #@! TF.SameCoordinates,8D04C4F7-E2C1-42FD-A476-B4637558DBC3*
G04*
G04*
G04 #@! TF.FilePolarity,Positive*
G04*
G01*
G75*
%ADD10C,0.00799*%
%ADD11C,0.00787*%
%ADD12C,0.01386*%
%ADD13C,0.01575*%
%ADD14C,0.00984*%
%ADD15C,0.00600*%
%ADD16C,0.00500*%
%ADD17C,0.01181*%
%ADD18C,0.02500*%
%ADD19C,0.00591*%
%ADD20C,0.00394*%
%ADD21C,0.00800*%
%ADD22C,0.01000*%
%ADD23R,0.02657X0.02165*%
%ADD24R,0.06299X0.01575*%
%ADD25R,0.02165X0.02657*%
G36*
X743915Y273874D02*
X745036Y270930D01*
X745939Y267911D01*
X746621Y264835D01*
X747078Y261718D01*
X747307Y258575D01*
Y255425D01*
X747078Y252282D01*
X746621Y249165D01*
X745939Y246089D01*
X745036Y243070D01*
X743915Y240125D01*
X743250Y238698D01*
Y275302D01*
X743915Y273874D01*
D02*
G37*
G36*
X366100Y52800D02*
X373800Y55100D01*
X369600Y45800D01*
X371300Y46100D01*
X368300Y42700D01*
X367700Y46800D01*
X368900Y46000D01*
X370700Y52700D01*
X363400Y50300D01*
X368700Y63400D01*
X371700D01*
X366100Y52800D01*
D02*
G37*
G36*
X319700Y60100D02*
X319800D01*
Y60000D01*
X320000D01*
Y59900D01*
X320100D01*
Y59800D01*
X320300D01*
Y59700D01*
X320200D01*
Y59600D01*
Y59500D01*
X320100D01*
Y59400D01*
X320000D01*
Y59300D01*
Y59200D01*
X319900D01*
Y59100D01*
X319800D01*
Y59000D01*
Y58900D01*
X319700D01*
Y58800D01*
Y58700D01*
X319600D01*
Y58600D01*
Y58500D01*
X319500D01*
Y58400D01*
Y58300D01*
Y58200D01*
X319400D01*
Y58100D01*
Y58000D01*
Y57900D01*
X319300D01*
Y57800D01*
Y57700D01*
Y57600D01*
X319200D01*
Y57500D01*
Y57400D01*
Y57300D01*
Y57200D01*
Y57100D01*
X319100D01*
Y57000D01*
Y56900D01*
Y56800D01*
Y56700D01*
Y56600D01*
Y56500D01*
Y56400D01*
Y56300D01*
Y56200D01*
Y56100D01*
Y56000D01*
Y55900D01*
Y55800D01*
X319200D01*
Y55700D01*
Y55600D01*
Y55500D01*
Y55400D01*
Y55300D01*
Y55200D01*
X319300D01*
Y55100D01*
Y55000D01*
Y54900D01*
Y54800D01*
X319400D01*
Y54700D01*
Y54600D01*
Y54500D01*
X319500D01*
Y54400D01*
Y54300D01*
X319600D01*
Y54200D01*
Y54100D01*
Y54000D01*
X319700D01*
Y53900D01*
Y53800D01*
X319800D01*
Y53700D01*
Y53600D01*
Y53500D01*
X319900D01*
Y53400D01*
Y53300D01*
X320000D01*
Y53200D01*
Y53100D01*
X320100D01*
Y53000D01*
Y52900D01*
X320200D01*
Y52800D01*
Y52700D01*
X320300D01*
Y52600D01*
Y52500D01*
X320400D01*
Y52400D01*
Y52300D01*
Y52200D01*
X320500D01*
Y52100D01*
Y52000D01*
X320600D01*
Y51900D01*
Y51800D01*
X320700D01*
Y51700D01*
Y51600D01*
X320800D01*
Y51500D01*
Y51400D01*
X320900D01*
Y51300D01*
Y51200D01*
X321000D01*
Y51100D01*
Y51000D01*
Y50900D01*
X321100D01*
Y50800D01*
Y50700D01*
X321200D01*
Y50600D01*
Y50500D01*
Y50400D01*
X321300D01*
Y50300D01*
Y50200D01*
Y50100D01*
X321400D01*
Y50000D01*
Y49900D01*
Y49800D01*
Y49700D01*
X321500D01*
Y49600D01*
Y49500D01*
Y49400D01*
Y49300D01*
X321600D01*
Y49200D01*
Y49100D01*
Y49000D01*
Y48900D01*
Y48800D01*
Y48700D01*
Y48600D01*
X321700D01*
Y48500D01*
Y48400D01*
Y48300D01*
Y48200D01*
Y48100D01*
Y48000D01*
Y47900D01*
Y47800D01*
Y47700D01*
X321600D01*
Y47600D01*
Y47500D01*
Y47400D01*
Y47300D01*
Y47200D01*
Y47100D01*
Y47000D01*
X321500D01*
Y46900D01*
Y46800D01*
Y46700D01*
Y46600D01*
X321400D01*
Y46500D01*
Y46400D01*
Y46300D01*
X321300D01*
Y46200D01*
Y46100D01*
Y46000D01*
X321200D01*
Y45900D01*
Y45800D01*
X321100D01*
Y45700D01*
Y45600D01*
X321000D01*
Y45500D01*
Y45400D01*
X320900D01*
Y45300D01*
Y45200D01*
X320800D01*
Y45100D01*
Y45000D01*
X320700D01*
Y44900D01*
X320600D01*
Y44800D01*
Y44700D01*
X320500D01*
Y44600D01*
Y44500D01*
X320400D01*
Y44400D01*
X320300D01*
Y44500D01*
X320200D01*
Y44600D01*
X320000D01*
Y44700D01*
X319900D01*
Y44800D01*
X319700D01*
Y44900D01*
Y45000D01*
X319800D01*
Y45100D01*
X319900D01*
Y45200D01*
Y45300D01*
X320000D01*
Y45400D01*
Y45500D01*
X320100D01*
Y45600D01*
Y45700D01*
X320200D01*
Y45800D01*
Y45900D01*
X320300D01*
Y46000D01*
Y46100D01*
X320400D01*
Y46200D01*
Y46300D01*
X320500D01*
Y46400D01*
Y46500D01*
Y46600D01*
X320600D01*
Y46700D01*
Y46800D01*
Y46900D01*
X320700D01*
Y47000D01*
Y47100D01*
Y47200D01*
Y47300D01*
X320800D01*
Y47400D01*
Y47500D01*
Y47600D01*
Y47700D01*
Y47800D01*
Y47900D01*
Y48000D01*
Y48100D01*
Y48200D01*
Y48300D01*
Y48400D01*
Y48500D01*
Y48600D01*
Y48700D01*
Y48800D01*
Y48900D01*
Y49000D01*
X320700D01*
Y49100D01*
Y49200D01*
Y49300D01*
Y49400D01*
Y49500D01*
X320600D01*
Y49600D01*
Y49700D01*
Y49800D01*
X320500D01*
Y49900D01*
Y50000D01*
Y50100D01*
X320400D01*
Y50200D01*
Y50300D01*
Y50400D01*
X320300D01*
Y50500D01*
Y50600D01*
Y50700D01*
X320200D01*
Y50800D01*
Y50900D01*
X320100D01*
Y51000D01*
Y51100D01*
X320000D01*
Y51200D01*
Y51300D01*
Y51400D01*
X319900D01*
Y51500D01*
Y51600D01*
X319800D01*
Y51700D01*
Y51800D01*
X319700D01*
Y51900D01*
Y52000D01*
X319600D01*
Y52100D01*
Y52200D01*
X319500D01*
Y52300D01*
Y52400D01*
X319400D01*
Y52500D01*
Y52600D01*
X319300D01*
Y52700D01*
Y52800D01*
X319200D01*
Y52900D01*
Y53000D01*
X319100D01*
Y53100D01*
Y53200D01*
Y53300D01*
X319000D01*
Y53400D01*
Y53500D01*
X318900D01*
Y53600D01*
Y53700D01*
X318800D01*
Y53800D01*
Y53900D01*
Y54000D01*
X318700D01*
Y54100D01*
Y54200D01*
Y54300D01*
X318600D01*
Y54400D01*
Y54500D01*
Y54600D01*
X318500D01*
Y54700D01*
Y54800D01*
Y54900D01*
Y55000D01*
X318400D01*
Y55100D01*
Y55200D01*
Y55300D01*
Y55400D01*
X318300D01*
Y55500D01*
Y55600D01*
Y55700D01*
Y55800D01*
Y55900D01*
Y56000D01*
Y56100D01*
Y56200D01*
Y56300D01*
Y56400D01*
Y56500D01*
Y56600D01*
Y56700D01*
Y56800D01*
Y56900D01*
Y57000D01*
Y57100D01*
Y57200D01*
Y57300D01*
Y57400D01*
X318400D01*
Y57500D01*
Y57600D01*
Y57700D01*
Y57800D01*
Y57900D01*
X318500D01*
Y58000D01*
Y58100D01*
Y58200D01*
X318600D01*
Y58300D01*
Y58400D01*
Y58500D01*
X318700D01*
Y58600D01*
Y58700D01*
X318800D01*
Y58800D01*
Y58900D01*
X318900D01*
Y59000D01*
Y59100D01*
X319000D01*
Y59200D01*
Y59300D01*
X319100D01*
Y59400D01*
Y59500D01*
X319200D01*
Y59600D01*
Y59700D01*
X319300D01*
Y59800D01*
X319400D01*
Y59900D01*
Y60000D01*
X319500D01*
Y60100D01*
X319600D01*
Y60200D01*
X319700D01*
Y60100D01*
D02*
G37*
G36*
X314800D02*
X314900D01*
Y60000D01*
X315100D01*
Y59900D01*
X315200D01*
Y59800D01*
X315400D01*
Y59700D01*
X315300D01*
Y59600D01*
Y59500D01*
X315200D01*
Y59400D01*
X315100D01*
Y59300D01*
Y59200D01*
X315000D01*
Y59100D01*
X314900D01*
Y59000D01*
Y58900D01*
X314800D01*
Y58800D01*
Y58700D01*
X314700D01*
Y58600D01*
Y58500D01*
X314600D01*
Y58400D01*
Y58300D01*
Y58200D01*
X314500D01*
Y58100D01*
Y58000D01*
X314400D01*
Y57900D01*
Y57800D01*
Y57700D01*
Y57600D01*
X314300D01*
Y57500D01*
Y57400D01*
Y57300D01*
Y57200D01*
Y57100D01*
X314200D01*
Y57000D01*
Y56900D01*
Y56800D01*
Y56700D01*
Y56600D01*
Y56500D01*
Y56400D01*
Y56300D01*
Y56200D01*
Y56100D01*
Y56000D01*
Y55900D01*
Y55800D01*
Y55700D01*
X314300D01*
Y55600D01*
Y55500D01*
Y55400D01*
Y55300D01*
Y55200D01*
X314400D01*
Y55100D01*
Y55000D01*
Y54900D01*
Y54800D01*
X314500D01*
Y54700D01*
Y54600D01*
Y54500D01*
X314600D01*
Y54400D01*
Y54300D01*
Y54200D01*
X314700D01*
Y54100D01*
Y54000D01*
X314800D01*
Y53900D01*
Y53800D01*
Y53700D01*
X314900D01*
Y53600D01*
Y53500D01*
X315000D01*
Y53400D01*
Y53300D01*
X315100D01*
Y53200D01*
Y53100D01*
X315200D01*
Y53000D01*
Y52900D01*
X315300D01*
Y52800D01*
Y52700D01*
X315400D01*
Y52600D01*
Y52500D01*
X315500D01*
Y52400D01*
Y52300D01*
Y52200D01*
X315600D01*
Y52100D01*
Y52000D01*
X315700D01*
Y51900D01*
Y51800D01*
X315800D01*
Y51700D01*
Y51600D01*
X315900D01*
Y51500D01*
Y51400D01*
X316000D01*
Y51300D01*
Y51200D01*
X316100D01*
Y51100D01*
Y51000D01*
Y50900D01*
X316200D01*
Y50800D01*
Y50700D01*
X316300D01*
Y50600D01*
Y50500D01*
Y50400D01*
X316400D01*
Y50300D01*
Y50200D01*
Y50100D01*
X316500D01*
Y50000D01*
Y49900D01*
Y49800D01*
Y49700D01*
X316600D01*
Y49600D01*
Y49500D01*
Y49400D01*
Y49300D01*
X316700D01*
Y49200D01*
Y49100D01*
Y49000D01*
Y48900D01*
Y48800D01*
Y48700D01*
Y48600D01*
Y48500D01*
X316800D01*
Y48400D01*
Y48300D01*
Y48200D01*
Y48100D01*
Y48000D01*
Y47900D01*
Y47800D01*
X316700D01*
Y47700D01*
Y47600D01*
Y47500D01*
Y47400D01*
Y47300D01*
Y47200D01*
Y47100D01*
X316600D01*
Y47000D01*
Y46900D01*
Y46800D01*
Y46700D01*
Y46600D01*
X316500D01*
Y46500D01*
Y46400D01*
Y46300D01*
X316400D01*
Y46200D01*
Y46100D01*
X316300D01*
Y46000D01*
Y45900D01*
Y45800D01*
X316200D01*
Y45700D01*
Y45600D01*
X316100D01*
Y45500D01*
Y45400D01*
X316000D01*
Y45300D01*
Y45200D01*
X315900D01*
Y45100D01*
Y45000D01*
X315800D01*
Y44900D01*
X315700D01*
Y44800D01*
Y44700D01*
X315600D01*
Y44600D01*
X315500D01*
Y44500D01*
Y44400D01*
X315400D01*
Y44500D01*
X315300D01*
Y44600D01*
X315100D01*
Y44700D01*
X315000D01*
Y44800D01*
X314800D01*
Y44900D01*
Y45000D01*
X314900D01*
Y45100D01*
Y45200D01*
X315000D01*
Y45300D01*
X315100D01*
Y45400D01*
Y45500D01*
X315200D01*
Y45600D01*
Y45700D01*
X315300D01*
Y45800D01*
Y45900D01*
X315400D01*
Y46000D01*
Y46100D01*
X315500D01*
Y46200D01*
Y46300D01*
X315600D01*
Y46400D01*
Y46500D01*
Y46600D01*
X315700D01*
Y46700D01*
Y46800D01*
Y46900D01*
X315800D01*
Y47000D01*
Y47100D01*
Y47200D01*
Y47300D01*
Y47400D01*
X315900D01*
Y47500D01*
Y47600D01*
Y47700D01*
Y47800D01*
Y47900D01*
Y48000D01*
Y48100D01*
Y48200D01*
Y48300D01*
Y48400D01*
Y48500D01*
Y48600D01*
Y48700D01*
Y48800D01*
Y48900D01*
Y49000D01*
X315800D01*
Y49100D01*
Y49200D01*
Y49300D01*
Y49400D01*
Y49500D01*
X315700D01*
Y49600D01*
Y49700D01*
Y49800D01*
X315600D01*
Y49900D01*
Y50000D01*
Y50100D01*
X315500D01*
Y50200D01*
Y50300D01*
Y50400D01*
X315400D01*
Y50500D01*
Y50600D01*
Y50700D01*
X315300D01*
Y50800D01*
Y50900D01*
X315200D01*
Y51000D01*
Y51100D01*
X315100D01*
Y51200D01*
Y51300D01*
Y51400D01*
X315000D01*
Y51500D01*
Y51600D01*
X314900D01*
Y51700D01*
Y51800D01*
X314800D01*
Y51900D01*
Y52000D01*
X314700D01*
Y52100D01*
Y52200D01*
X314600D01*
Y52300D01*
Y52400D01*
X314500D01*
Y52500D01*
Y52600D01*
X314400D01*
Y52700D01*
Y52800D01*
X314300D01*
Y52900D01*
Y53000D01*
X314200D01*
Y53100D01*
Y53200D01*
Y53300D01*
X314100D01*
Y53400D01*
Y53500D01*
X314000D01*
Y53600D01*
Y53700D01*
X313900D01*
Y53800D01*
Y53900D01*
Y54000D01*
X313800D01*
Y54100D01*
Y54200D01*
Y54300D01*
X313700D01*
Y54400D01*
Y54500D01*
Y54600D01*
X313600D01*
Y54700D01*
Y54800D01*
Y54900D01*
X313500D01*
Y55000D01*
Y55100D01*
Y55200D01*
Y55300D01*
Y55400D01*
X313400D01*
Y55500D01*
Y55600D01*
Y55700D01*
Y55800D01*
Y55900D01*
Y56000D01*
Y56100D01*
Y56200D01*
Y56300D01*
Y56400D01*
Y56500D01*
Y56600D01*
Y56700D01*
Y56800D01*
Y56900D01*
Y57000D01*
Y57100D01*
Y57200D01*
Y57300D01*
Y57400D01*
X313500D01*
Y57500D01*
Y57600D01*
Y57700D01*
Y57800D01*
Y57900D01*
X313600D01*
Y58000D01*
Y58100D01*
Y58200D01*
X313700D01*
Y58300D01*
Y58400D01*
Y58500D01*
X313800D01*
Y58600D01*
Y58700D01*
X313900D01*
Y58800D01*
Y58900D01*
X314000D01*
Y59000D01*
Y59100D01*
X314100D01*
Y59200D01*
Y59300D01*
X314200D01*
Y59400D01*
Y59500D01*
X314300D01*
Y59600D01*
Y59700D01*
X314400D01*
Y59800D01*
X314500D01*
Y59900D01*
Y60000D01*
X314600D01*
Y60100D01*
X314700D01*
Y60200D01*
X314800D01*
Y60100D01*
D02*
G37*
G36*
X309900D02*
X310000D01*
Y60000D01*
X310200D01*
Y59900D01*
X310300D01*
Y59800D01*
X310400D01*
Y59700D01*
Y59600D01*
Y59500D01*
X310300D01*
Y59400D01*
X310200D01*
Y59300D01*
Y59200D01*
X310100D01*
Y59100D01*
X310000D01*
Y59000D01*
Y58900D01*
X309900D01*
Y58800D01*
Y58700D01*
X309800D01*
Y58600D01*
Y58500D01*
X309700D01*
Y58400D01*
Y58300D01*
Y58200D01*
X309600D01*
Y58100D01*
Y58000D01*
X309500D01*
Y57900D01*
Y57800D01*
Y57700D01*
Y57600D01*
X309400D01*
Y57500D01*
Y57400D01*
Y57300D01*
Y57200D01*
Y57100D01*
X309300D01*
Y57000D01*
Y56900D01*
Y56800D01*
Y56700D01*
Y56600D01*
Y56500D01*
Y56400D01*
Y56300D01*
Y56200D01*
Y56100D01*
Y56000D01*
Y55900D01*
Y55800D01*
Y55700D01*
X309400D01*
Y55600D01*
Y55500D01*
Y55400D01*
Y55300D01*
Y55200D01*
X309500D01*
Y55100D01*
Y55000D01*
Y54900D01*
Y54800D01*
X309600D01*
Y54700D01*
Y54600D01*
Y54500D01*
X309700D01*
Y54400D01*
Y54300D01*
Y54200D01*
X309800D01*
Y54100D01*
Y54000D01*
X309900D01*
Y53900D01*
Y53800D01*
Y53700D01*
X310000D01*
Y53600D01*
Y53500D01*
X310100D01*
Y53400D01*
Y53300D01*
X310200D01*
Y53200D01*
Y53100D01*
X310300D01*
Y53000D01*
Y52900D01*
X310400D01*
Y52800D01*
Y52700D01*
X310500D01*
Y52600D01*
Y52500D01*
Y52400D01*
X310600D01*
Y52300D01*
Y52200D01*
X310700D01*
Y52100D01*
Y52000D01*
X310800D01*
Y51900D01*
Y51800D01*
X310900D01*
Y51700D01*
Y51600D01*
X311000D01*
Y51500D01*
Y51400D01*
X311100D01*
Y51300D01*
Y51200D01*
X311200D01*
Y51100D01*
Y51000D01*
Y50900D01*
X311300D01*
Y50800D01*
Y50700D01*
X311400D01*
Y50600D01*
Y50500D01*
Y50400D01*
X311500D01*
Y50300D01*
Y50200D01*
Y50100D01*
X311600D01*
Y50000D01*
Y49900D01*
Y49800D01*
Y49700D01*
X311700D01*
Y49600D01*
Y49500D01*
Y49400D01*
Y49300D01*
X311800D01*
Y49200D01*
Y49100D01*
Y49000D01*
Y48900D01*
Y48800D01*
Y48700D01*
Y48600D01*
Y48500D01*
X311900D01*
Y48400D01*
Y48300D01*
Y48200D01*
Y48100D01*
Y48000D01*
Y47900D01*
Y47800D01*
X311800D01*
Y47700D01*
Y47600D01*
Y47500D01*
Y47400D01*
Y47300D01*
Y47200D01*
Y47100D01*
X311700D01*
Y47000D01*
Y46900D01*
Y46800D01*
Y46700D01*
X311600D01*
Y46600D01*
Y46500D01*
Y46400D01*
Y46300D01*
X311500D01*
Y46200D01*
Y46100D01*
X311400D01*
Y46000D01*
Y45900D01*
Y45800D01*
X311300D01*
Y45700D01*
Y45600D01*
X311200D01*
Y45500D01*
Y45400D01*
X311100D01*
Y45300D01*
Y45200D01*
X311000D01*
Y45100D01*
Y45000D01*
X310900D01*
Y44900D01*
X310800D01*
Y44800D01*
Y44700D01*
X310700D01*
Y44600D01*
X310600D01*
Y44500D01*
Y44400D01*
X310500D01*
Y44500D01*
X310400D01*
Y44600D01*
X310200D01*
Y44700D01*
X310100D01*
Y44800D01*
X309900D01*
Y44900D01*
Y45000D01*
X310000D01*
Y45100D01*
Y45200D01*
X310100D01*
Y45300D01*
X310200D01*
Y45400D01*
Y45500D01*
X310300D01*
Y45600D01*
Y45700D01*
X310400D01*
Y45800D01*
Y45900D01*
X310500D01*
Y46000D01*
Y46100D01*
X310600D01*
Y46200D01*
Y46300D01*
X310700D01*
Y46400D01*
Y46500D01*
Y46600D01*
X310800D01*
Y46700D01*
Y46800D01*
Y46900D01*
X310900D01*
Y47000D01*
Y47100D01*
Y47200D01*
Y47300D01*
Y47400D01*
X311000D01*
Y47500D01*
Y47600D01*
Y47700D01*
Y47800D01*
Y47900D01*
Y48000D01*
Y48100D01*
Y48200D01*
Y48300D01*
Y48400D01*
Y48500D01*
Y48600D01*
Y48700D01*
Y48800D01*
Y48900D01*
Y49000D01*
X310900D01*
Y49100D01*
Y49200D01*
Y49300D01*
Y49400D01*
Y49500D01*
X310800D01*
Y49600D01*
Y49700D01*
Y49800D01*
X310700D01*
Y49900D01*
Y50000D01*
Y50100D01*
X310600D01*
Y50200D01*
Y50300D01*
Y50400D01*
X310500D01*
Y50500D01*
Y50600D01*
Y50700D01*
X310400D01*
Y50800D01*
Y50900D01*
X310300D01*
Y51000D01*
Y51100D01*
X310200D01*
Y51200D01*
Y51300D01*
X310100D01*
Y51400D01*
Y51500D01*
Y51600D01*
X310000D01*
Y51700D01*
Y51800D01*
X309900D01*
Y51900D01*
Y52000D01*
X309800D01*
Y52100D01*
Y52200D01*
X309700D01*
Y52300D01*
Y52400D01*
X309600D01*
Y52500D01*
Y52600D01*
X309500D01*
Y52700D01*
Y52800D01*
X309400D01*
Y52900D01*
Y53000D01*
X309300D01*
Y53100D01*
Y53200D01*
Y53300D01*
X309200D01*
Y53400D01*
Y53500D01*
X309100D01*
Y53600D01*
Y53700D01*
X309000D01*
Y53800D01*
Y53900D01*
Y54000D01*
X308900D01*
Y54100D01*
Y54200D01*
Y54300D01*
X308800D01*
Y54400D01*
Y54500D01*
Y54600D01*
X308700D01*
Y54700D01*
Y54800D01*
Y54900D01*
X308600D01*
Y55000D01*
Y55100D01*
Y55200D01*
Y55300D01*
Y55400D01*
X308500D01*
Y55500D01*
Y55600D01*
Y55700D01*
Y55800D01*
Y55900D01*
Y56000D01*
Y56100D01*
Y56200D01*
Y56300D01*
Y56400D01*
Y56500D01*
Y56600D01*
Y56700D01*
Y56800D01*
Y56900D01*
Y57000D01*
Y57100D01*
Y57200D01*
Y57300D01*
Y57400D01*
X308600D01*
Y57500D01*
Y57600D01*
Y57700D01*
Y57800D01*
Y57900D01*
X308700D01*
Y58000D01*
Y58100D01*
Y58200D01*
X308800D01*
Y58300D01*
Y58400D01*
Y58500D01*
X308900D01*
Y58600D01*
Y58700D01*
X309000D01*
Y58800D01*
Y58900D01*
X309100D01*
Y59000D01*
Y59100D01*
X309200D01*
Y59200D01*
Y59300D01*
X309300D01*
Y59400D01*
Y59500D01*
X309400D01*
Y59600D01*
Y59700D01*
X309500D01*
Y59800D01*
X309600D01*
Y59900D01*
Y60000D01*
X309700D01*
Y60100D01*
X309800D01*
Y60200D01*
X309900D01*
Y60100D01*
D02*
G37*
G36*
X324900Y41600D02*
X305200D01*
Y43000D01*
X324900D01*
Y41600D01*
D02*
G37*
G36*
X743915Y73874D02*
X745036Y70930D01*
X745939Y67911D01*
X746621Y64835D01*
X747078Y61718D01*
X747307Y58575D01*
Y55425D01*
X747078Y52282D01*
X746621Y49165D01*
X745939Y46089D01*
X745036Y43070D01*
X743915Y40126D01*
X743250Y38698D01*
Y75302D01*
X743915Y73874D01*
D02*
G37*
G36*
X684126Y243972D02*
X685496D01*
Y243396D01*
X684126D01*
Y242025D01*
X683542D01*
Y243396D01*
X682172D01*
Y243972D01*
X683542D01*
Y245357D01*
X684126D01*
Y243972D01*
D02*
G37*
G36*
Y43972D02*
X685496D01*
Y43396D01*
X684126D01*
Y42025D01*
X683542D01*
Y43396D01*
X682172D01*
Y43972D01*
X683542D01*
Y45357D01*
X684126D01*
Y43972D01*
D02*
G37*
D10*
X131500Y70000D02*
G03*
X131500Y70000I-7000J0D01*
G01*
X105500Y70500D02*
G03*
X105500Y70500I-7000J0D01*
G01*
X208500Y19000D02*
G03*
X208500Y19000I-7000J0D01*
G01*
X638500Y70000D02*
G03*
X638500Y70000I-7000J0D01*
G01*
X595500Y69500D02*
G03*
X595500Y69500I-7000J0D01*
G01*
X532500Y71000D02*
G03*
X532500Y71000I-7000J0D01*
G01*
X309500Y265500D02*
G03*
X309500Y265500I-7000J0D01*
G01*
X74000Y189500D02*
G03*
X74000Y189500I-7000J0D01*
G01*
Y235500D02*
G03*
X74000Y235500I-7000J0D01*
G01*
Y213000D02*
G03*
X74000Y213000I-7000J0D01*
G01*
X99500Y255500D02*
G03*
X99500Y255500I-7000J0D01*
G01*
X99000Y236500D02*
G03*
X99000Y236500I-7000J0D01*
G01*
X191500Y100500D02*
G03*
X191500Y100500I-7000J0D01*
G01*
X81500Y113500D02*
G03*
X81500Y113500I-7000J0D01*
G01*
X270500Y280500D02*
G03*
X270500Y280500I-7000J0D01*
G01*
X237000Y279500D02*
G03*
X237000Y279500I-7000J0D01*
G01*
X254500Y280000D02*
G03*
X254500Y280000I-7000J0D01*
G01*
X568500Y178500D02*
G03*
X568500Y178500I-7000J0D01*
G01*
X163000Y204500D02*
G03*
X163000Y204500I-7000J0D01*
G01*
X227000Y205500D02*
G03*
X227000Y205500I-7000J0D01*
G01*
D11*
X179394Y40405D02*
G03*
X184906Y34894I5512J0D01*
G01*
X228606Y78594D02*
G03*
X223095Y84106I-5512J0D01*
G01*
X184906D02*
G03*
X179394Y78594I0J-5512D01*
G01*
X223095Y34894D02*
G03*
X228606Y40405I0J5512D01*
G01*
X743250Y238698D02*
G03*
X743250Y275302I-39250J18302D01*
G01*
X747307Y257000D02*
G03*
X747307Y257000I-43307J0D01*
G01*
X743250Y38698D02*
G03*
X743250Y75302I-39250J18302D01*
G01*
X747307Y57000D02*
G03*
X747307Y57000I-43307J0D01*
G01*
X111414Y197395D02*
G03*
X111414Y197395I-394J0D01*
G01*
X154988Y169675D02*
G03*
X154988Y169675I-394J0D01*
G01*
X134142Y241642D02*
G03*
X134142Y241642I-394J0D01*
G01*
X184906Y84106D02*
X223095D01*
X179394Y40405D02*
Y78594D01*
X184906Y34894D02*
X223095D01*
X228606Y40405D02*
Y78594D01*
X333900Y183980D02*
X352000D01*
X333900D02*
Y234000D01*
X370100D01*
Y183980D02*
Y234000D01*
X352000Y183980D02*
X370100D01*
X586110Y146378D02*
X603478D01*
Y193322D01*
X586122D02*
X603478D01*
X586110Y193310D02*
X586122Y193322D01*
X586110Y146378D02*
Y193310D01*
X443921Y162221D02*
X444413Y162713D01*
X484669D01*
X443921Y89091D02*
Y162221D01*
Y89091D02*
X484374D01*
X484669Y89386D01*
Y162713D01*
X494921Y162221D02*
X495413Y162713D01*
X535669D01*
X494921Y89091D02*
Y162221D01*
Y89091D02*
X535374D01*
X535669Y89386D01*
Y162713D01*
X743250Y238698D02*
Y275302D01*
Y38698D02*
Y75302D01*
X395921Y162221D02*
X396413Y162713D01*
X436669D01*
X395921Y89091D02*
Y162221D01*
Y89091D02*
X436374D01*
X436669Y89386D01*
Y162713D01*
X332921Y162221D02*
X333413Y162713D01*
X373669D01*
X332921Y89091D02*
Y162221D01*
Y89091D02*
X373374D01*
X373669Y89386D01*
Y162713D01*
X59000Y77500D02*
Y82500D01*
X57902Y83500D02*
X59000Y82500D01*
X57902Y76500D02*
X59000Y77500D01*
X57902Y66500D02*
X59000Y67500D01*
X57902Y73500D02*
X59000Y72500D01*
Y67500D02*
Y72500D01*
X83098Y64764D02*
Y85630D01*
X57902D02*
X83098D01*
X57902Y64370D02*
Y85630D01*
Y64370D02*
X83098D01*
Y64764D01*
X259100Y168131D02*
Y168919D01*
Y171675D02*
Y172069D01*
X257525Y168919D02*
X261069D01*
X259100Y171675D02*
X261069Y168919D01*
X257525D02*
X259100Y171675D01*
X257132D02*
X261069D01*
X260100Y184864D02*
X265600D01*
Y155600D02*
Y184864D01*
X260100Y184100D02*
Y184864D01*
Y184100D02*
X265600D01*
X252600D02*
X258100D01*
Y184864D01*
X263726Y155600D02*
X265600D01*
X252600Y184864D02*
X258100D01*
X252600Y155600D02*
X254474D01*
X252600D02*
Y184864D01*
X243700Y168131D02*
Y168919D01*
Y171675D02*
Y172069D01*
X242125Y168919D02*
X245669D01*
X243700Y171675D02*
X245669Y168919D01*
X242125D02*
X243700Y171675D01*
X241732D02*
X245669D01*
X244700Y184864D02*
X250200D01*
Y155600D02*
Y184864D01*
X244700Y184100D02*
Y184864D01*
Y184100D02*
X250200D01*
X237200D02*
X242700D01*
Y184864D01*
X248326Y155600D02*
X250200D01*
X237200Y184864D02*
X242700D01*
X237200Y155600D02*
X239074D01*
X237200D02*
Y184864D01*
X225488Y153669D02*
Y162331D01*
X216433Y153669D02*
Y154850D01*
Y153669D02*
X234543D01*
Y154850D01*
Y161150D02*
Y162331D01*
X216433D02*
X234543D01*
X216433Y161150D02*
Y162331D01*
X188702Y166439D02*
Y168605D01*
X186045D02*
X188702D01*
X201498D02*
X204155D01*
X201498Y166439D02*
Y168605D01*
Y196361D02*
X204155D01*
X201498Y166439D02*
X204155D01*
X186045Y196361D02*
X188702D01*
X186045Y166439D02*
X188702D01*
X204155D02*
Y196361D01*
X186045Y166439D02*
Y196361D01*
X112150Y210780D02*
X118450D01*
Y197001D02*
Y210780D01*
X112150Y197001D02*
X118450D01*
X112150D02*
Y210780D01*
X128439Y195955D02*
X158361D01*
X128439Y177845D02*
X158361D01*
X128439Y193298D02*
Y195955D01*
X158361Y193298D02*
Y195955D01*
X128439Y177845D02*
Y180502D01*
X158361Y177845D02*
Y180502D01*
X128439D02*
X130605D01*
Y177845D02*
Y180502D01*
Y193298D02*
Y195955D01*
X128439Y193298D02*
X130605D01*
X185745Y118439D02*
Y148361D01*
X203855Y118439D02*
Y148361D01*
X185745Y118439D02*
X188402D01*
X185745Y148361D02*
X188402D01*
X201198Y118439D02*
X203855D01*
X201198Y148361D02*
X203855D01*
X201198Y118439D02*
Y120605D01*
X203855D01*
X185745D02*
X188402D01*
Y118439D02*
Y120605D01*
D12*
X293800Y136000D02*
G03*
X293800Y136000I-800J0D01*
G01*
D13*
X681337Y106602D02*
G03*
X681337Y106602I-787J0D01*
G01*
D14*
X188604Y163880D02*
G03*
X188604Y163880I-492J0D01*
G01*
X126372Y193888D02*
G03*
X126372Y193888I-492J0D01*
G01*
X188304Y115880D02*
G03*
X188304Y115880I-492J0D01*
G01*
D15*
X81100Y144100D02*
G03*
X81100Y144100I-7500J0D01*
G01*
X282736Y138100D02*
X303536D01*
X282736D02*
Y201900D01*
X303536D01*
Y138100D02*
Y201900D01*
X282736Y138600D02*
Y201400D01*
X59600Y124100D02*
Y129100D01*
Y159100D02*
Y164100D01*
X120600Y133600D02*
Y154600D01*
X127600Y158600D02*
Y162600D01*
X124600Y158600D02*
X127600D01*
Y129600D02*
Y158600D01*
X124600Y129600D02*
X127600D01*
X61600Y130100D02*
X84100D01*
X61600Y158100D02*
X84100D01*
X97600Y131100D02*
Y133100D01*
X119600D01*
X97600Y155100D02*
Y157100D01*
Y155100D02*
X119600D01*
X97600Y133100D02*
Y135100D01*
Y153100D02*
Y155100D01*
X87600Y164100D02*
Y167100D01*
X84100Y136600D02*
Y151600D01*
X59600Y134100D02*
Y154100D01*
Y134100D02*
X61600Y136600D01*
X59600Y124100D02*
X87600D01*
X59600D02*
X61600Y130100D01*
Y136600D01*
X63100D01*
X84100D01*
X63100Y151600D02*
X84100D01*
X63100Y136600D02*
Y151600D01*
X59600Y167100D02*
X87600D01*
X59600Y164100D02*
X87600D01*
X59600D02*
X61600Y158100D01*
X59600Y154100D02*
Y159100D01*
Y154100D02*
X61600Y151600D01*
Y158100D01*
Y151600D02*
X63100D01*
X73600Y138600D02*
Y149600D01*
X59600Y164100D02*
Y167100D01*
X55600Y164100D02*
X59600D01*
X55600Y159100D02*
Y164100D01*
X127600Y125600D02*
Y129600D01*
X87600Y124100D02*
X127600Y125600D01*
X87600Y164100D02*
X127600Y162600D01*
X55600Y124100D02*
X59600D01*
X55600Y159100D02*
X59600D01*
Y129100D02*
Y134100D01*
X55600Y129100D02*
X59600D01*
X55600Y124100D02*
Y129100D01*
D16*
X556000Y220000D02*
X597457D01*
X602929Y128543D02*
Y211457D01*
X656000Y193287D02*
Y252500D01*
X609110Y193287D02*
X656000D01*
X609110Y146713D02*
Y193287D01*
Y146713D02*
X656000D01*
Y87500D02*
Y146713D01*
X556000Y87500D02*
X656000D01*
X556000D02*
Y120000D01*
X597457D01*
X556000Y220000D02*
Y252500D01*
X656000D01*
X228500Y87700D02*
X328500D01*
Y120200D01*
X287043Y220200D02*
X328500D01*
Y252700D01*
X228500D02*
X328500D01*
X228500Y193487D02*
Y252700D01*
Y193487D02*
X275390D01*
Y146913D02*
Y193487D01*
X228500Y146913D02*
X275390D01*
X228500Y87700D02*
Y146913D01*
X281571Y128743D02*
Y211657D01*
X287043Y120200D02*
X328500D01*
X611425Y51264D02*
X614575D01*
X611425Y21736D02*
X614575D01*
X611425Y31500D02*
Y41500D01*
X614575Y31500D02*
Y41500D01*
X278925Y51264D02*
X282075D01*
X278925Y21736D02*
X282075D01*
X278925Y31500D02*
Y41500D01*
X282075Y31500D02*
Y41500D01*
X498425Y21736D02*
X501575D01*
X498425Y51264D02*
X501575D01*
Y31500D02*
Y41500D01*
X498425Y31500D02*
Y41500D01*
X585925Y21736D02*
X589075D01*
X585925Y51264D02*
X589075D01*
Y31500D02*
Y41500D01*
X585925Y31500D02*
Y41500D01*
X660549Y109650D02*
Y204350D01*
X740549D01*
Y109650D02*
Y204350D01*
X660549Y109650D02*
X740549D01*
X526425Y21736D02*
X529575D01*
X526425Y51264D02*
X529575D01*
Y31500D02*
Y41500D01*
X526425Y31500D02*
Y41500D01*
X455925Y21736D02*
X459075D01*
X455925Y51264D02*
X459075D01*
Y31500D02*
Y41500D01*
X455925Y31500D02*
Y41500D01*
X250925Y21736D02*
X254075D01*
X250925Y51264D02*
X254075D01*
Y31500D02*
Y41500D01*
X250925Y31500D02*
Y41500D01*
X94987Y194442D02*
X104613D01*
X94987Y212158D02*
X104613D01*
Y211568D02*
Y212158D01*
Y194442D02*
Y195032D01*
X94987Y208497D02*
Y212158D01*
Y194442D02*
Y198103D01*
X162833Y150659D02*
X178167D01*
X162833Y170541D02*
X178167D01*
X150137Y50791D02*
X162263D01*
Y19610D02*
Y50791D01*
X150137Y19610D02*
X162263D01*
X150137D02*
Y50791D01*
X124137D02*
X136263D01*
Y19610D02*
Y50791D01*
X124137Y19610D02*
X136263D01*
X124137D02*
Y50791D01*
X99137D02*
X111263D01*
Y19610D02*
Y50791D01*
X99137Y19610D02*
X111263D01*
X99137D02*
Y50791D01*
X135914Y212509D02*
Y251091D01*
Y212509D02*
X212686D01*
Y251091D01*
X135914D02*
X212686D01*
D17*
X404000Y267000D02*
X530000D01*
Y178500D02*
Y267000D01*
X403500Y178500D02*
X530000D01*
X403500Y267000D02*
X404000D01*
X403500D02*
X404000D01*
X403500Y265500D02*
Y267000D01*
Y178750D02*
Y265500D01*
Y178500D02*
Y178750D01*
D18*
X315000Y76336D02*
X336700Y38750D01*
X293300D02*
X315000Y76336D01*
X293300Y38750D02*
X336700D01*
X348300D02*
X370000Y76336D01*
X391700Y38750D01*
X348300D02*
X391700D01*
D19*
X200600Y271344D02*
Y276856D01*
X205600Y271344D02*
Y272100D01*
X195600Y271344D02*
X205600D01*
X195600D02*
Y272100D01*
Y276100D02*
Y276856D01*
X205600D01*
Y276100D02*
Y276856D01*
X187953Y271344D02*
Y272722D01*
Y275478D02*
Y276856D01*
X181953Y273100D02*
X182453D01*
X181953Y271344D02*
Y273100D01*
Y271344D02*
X182453D01*
X181953Y275100D02*
X182453D01*
X181953D02*
Y276856D01*
X182453D01*
X193953Y271344D02*
Y272100D01*
X182047Y271344D02*
X193953D01*
X182453D02*
Y273100D01*
Y275100D02*
Y276856D01*
X182047D02*
X193953D01*
Y276100D02*
Y276856D01*
X97246Y187144D02*
Y188325D01*
Y187144D02*
X108269D01*
Y188325D01*
Y191475D02*
Y192656D01*
X97246D02*
X108269D01*
X97246Y191475D02*
Y192656D01*
X102758Y187144D02*
Y192656D01*
X103000Y180644D02*
Y186156D01*
X108000Y180644D02*
Y181400D01*
X98000Y180644D02*
X108000D01*
X98000D02*
Y181400D01*
Y185400D02*
Y186156D01*
X108000D01*
Y185400D02*
Y186156D01*
X97500Y174444D02*
Y175822D01*
Y178578D02*
Y179956D01*
X91500Y176200D02*
X92000D01*
X91500Y174444D02*
Y176200D01*
Y174444D02*
X92000D01*
X91500Y178200D02*
X92000D01*
X91500D02*
Y179956D01*
X92000D01*
X103500Y174444D02*
Y175200D01*
X91594Y174444D02*
X103500D01*
X92000D02*
Y176200D01*
Y178200D02*
Y179956D01*
X91594D02*
X103500D01*
Y179200D02*
Y179956D01*
X140244Y153743D02*
X145756D01*
X140244Y148231D02*
X141425D01*
X140244D02*
Y159254D01*
X141425D01*
X144575D02*
X145756D01*
Y148231D02*
Y159254D01*
X144575Y148231D02*
X145756D01*
X219257Y171150D02*
X226343D01*
X219257Y177843D02*
X220831D01*
X219257Y164457D02*
Y177843D01*
Y164457D02*
X220831D01*
X224768D02*
X226343D01*
Y177843D01*
X224768D02*
X226343D01*
X229744Y170059D02*
X235256D01*
X234500Y175059D02*
X235256D01*
Y165059D02*
Y175059D01*
X234500Y165059D02*
X235256D01*
X229744D02*
X230500D01*
X229744D02*
Y175059D01*
X230500D01*
X205502Y163750D02*
X206979D01*
X205502D02*
Y182450D01*
X206979D01*
X216821D02*
X218298D01*
Y163750D02*
Y182450D01*
X216821Y163750D02*
X218298D01*
X205502Y173100D02*
X218298D01*
X219757Y144250D02*
X226843D01*
X219757Y150943D02*
X221332D01*
X219757Y137557D02*
Y150943D01*
Y137557D02*
X221332D01*
X225269D02*
X226843D01*
Y150943D01*
X225269D02*
X226843D01*
X205702Y132238D02*
X207179D01*
X205702D02*
Y150939D01*
X207179D01*
X217021D02*
X218498D01*
Y132238D02*
Y150939D01*
X217021Y132238D02*
X218498D01*
X205702Y141588D02*
X218498D01*
X199943Y264144D02*
Y269656D01*
X194431Y268475D02*
Y269656D01*
X205454D01*
Y268475D02*
Y269656D01*
Y264144D02*
Y265325D01*
X194431Y264144D02*
X205454D01*
X194431D02*
Y265325D01*
X143342Y61744D02*
Y67256D01*
X148854Y61744D02*
Y62925D01*
X137831Y61744D02*
X148854D01*
X137831D02*
Y62925D01*
Y66075D02*
Y67256D01*
X148854D01*
Y66075D02*
Y67256D01*
X156642Y76445D02*
Y77429D01*
X137941D02*
X156642D01*
X137941Y76445D02*
Y77429D01*
Y68571D02*
Y69555D01*
Y68571D02*
X156642D01*
Y69555D01*
X147291Y68571D02*
Y77429D01*
X147659Y160644D02*
Y166156D01*
X142659Y165400D02*
Y166156D01*
X152659D01*
Y165400D02*
Y166156D01*
Y160644D02*
Y161400D01*
X142659Y160644D02*
X152659D01*
X142659D02*
Y161400D01*
X151975Y148288D02*
X153156D01*
Y159312D01*
X151975D02*
X153156D01*
X147644D02*
X148825D01*
X147644Y148288D02*
Y159312D01*
Y148288D02*
X148825D01*
X147644Y153800D02*
X153156D01*
X133344Y153700D02*
X138856D01*
X133344Y148188D02*
X134525D01*
X133344D02*
Y159212D01*
X134525D01*
X137675D02*
X138856D01*
Y148188D02*
Y159212D01*
X137675Y148188D02*
X138856D01*
X187709Y252571D02*
Y261429D01*
X178358Y260445D02*
Y261429D01*
X197059D01*
Y260445D02*
Y261429D01*
Y252571D02*
Y253555D01*
X178358Y252571D02*
X197059D01*
X178358D02*
Y253555D01*
X182431Y264144D02*
Y265325D01*
Y264144D02*
X193454D01*
Y265325D01*
Y268475D02*
Y269656D01*
X182431D02*
X193454D01*
X182431Y268475D02*
Y269656D01*
X187943Y264144D02*
Y269656D01*
X108812Y218575D02*
Y219756D01*
X97788D02*
X108812D01*
X97788Y218575D02*
Y219756D01*
Y214244D02*
Y215425D01*
Y214244D02*
X108812D01*
Y215425D01*
X103300Y214244D02*
Y219756D01*
X131775Y225988D02*
X132956D01*
Y237012D01*
X131775D02*
X132956D01*
X127444D02*
X128625D01*
X127444Y225988D02*
Y237012D01*
Y225988D02*
X128625D01*
X127444Y231500D02*
X132956D01*
X117571Y227591D02*
X126429D01*
X117571Y218241D02*
X118555D01*
X117571D02*
Y236942D01*
X118555D01*
X125445D02*
X126429D01*
Y218241D02*
Y236942D01*
X125445Y218241D02*
X126429D01*
X207291Y252571D02*
Y261429D01*
X197941Y260445D02*
Y261429D01*
X216642D01*
Y260445D02*
Y261429D01*
Y252571D02*
Y253555D01*
X197941Y252571D02*
X216642D01*
X197941D02*
Y253555D01*
D20*
X187264Y274100D02*
X188642Y275084D01*
Y274100D02*
Y275084D01*
X187264Y274100D02*
Y274986D01*
Y273214D02*
Y274100D01*
X188642Y273116D02*
Y274100D01*
X187264D02*
X188642Y273116D01*
X96811Y177200D02*
X98189Y178184D01*
Y177200D02*
Y178184D01*
X96811Y177200D02*
Y178086D01*
Y176314D02*
Y177200D01*
X98189Y176216D02*
Y177200D01*
X96811D02*
X98189Y176216D01*
D21*
X533800Y72799D02*
Y71466D01*
X534466Y70800D01*
X535133Y71466D01*
Y72799D01*
X535799D02*
Y70800D01*
X537132D01*
X596300Y72299D02*
Y70966D01*
X596966Y70300D01*
X597633Y70966D01*
Y72299D01*
X598633Y70300D02*
X599299D01*
X599632Y70633D01*
Y71300D01*
X599299Y71633D01*
X598633D01*
X598299Y71300D01*
Y70633D01*
X598633Y70300D01*
X639300Y72300D02*
Y74299D01*
X640300D01*
X640633Y73966D01*
Y73300D01*
X640300Y72966D01*
X639300D01*
X642632Y73966D02*
X642299Y74299D01*
X641633D01*
X641299Y73966D01*
Y72633D01*
X641633Y72300D01*
X642299D01*
X642632Y72633D01*
Y73300D01*
X641966D01*
X643299Y72300D02*
Y74299D01*
X644632Y72300D01*
Y74299D01*
X645298D02*
Y72300D01*
X646298D01*
X646631Y72633D01*
Y73966D01*
X646298Y74299D01*
X645298D01*
X209800Y22799D02*
Y21466D01*
X210466Y20800D01*
X211133Y21466D01*
Y22799D01*
X211799Y20800D02*
X212466D01*
X212133D01*
Y22133D01*
X211799D01*
X213465Y20800D02*
Y22133D01*
X214465D01*
X214798Y21800D01*
Y20800D01*
X287633Y276133D02*
X287300Y276466D01*
X286633D01*
X286300Y276133D01*
Y274800D01*
X286633Y274466D01*
X287300D01*
X287633Y274800D01*
Y275466D01*
X286966D01*
X288633Y275799D02*
X289299D01*
X289632Y275466D01*
Y274466D01*
X288633D01*
X288299Y274800D01*
X288633Y275133D01*
X289632D01*
X290632Y276133D02*
Y275799D01*
X290299D01*
X290965D01*
X290632D01*
Y274800D01*
X290965Y274466D01*
X292965D02*
X292298D01*
X291965Y274800D01*
Y275466D01*
X292298Y275799D01*
X292965D01*
X293298Y275466D01*
Y275133D01*
X291965D01*
X295964Y276466D02*
Y274466D01*
X296963D01*
X297296Y274800D01*
Y276133D01*
X296963Y276466D01*
X295964D01*
X297963Y275799D02*
Y274466D01*
Y275133D01*
X298296Y275466D01*
X298629Y275799D01*
X298963D01*
X299962Y274466D02*
X300629D01*
X300295D01*
Y275799D01*
X299962D01*
X301628D02*
X302295Y274466D01*
X302961Y275799D01*
X304627Y274466D02*
X303961D01*
X303628Y274800D01*
Y275466D01*
X303961Y275799D01*
X304627D01*
X304961Y275466D01*
Y275133D01*
X303628D01*
X305627Y275799D02*
Y274466D01*
Y275133D01*
X305960Y275466D01*
X306294Y275799D01*
X306627D01*
X310959Y276133D02*
X310625Y276466D01*
X309959D01*
X309626Y276133D01*
Y275799D01*
X309959Y275466D01*
X310625D01*
X310959Y275133D01*
Y274800D01*
X310625Y274466D01*
X309959D01*
X309626Y274800D01*
X311625Y274466D02*
X312292D01*
X311958D01*
Y275799D01*
X311625D01*
X313958Y273800D02*
X314291D01*
X314624Y274133D01*
Y275799D01*
X313625D01*
X313291Y275466D01*
Y274800D01*
X313625Y274466D01*
X314624D01*
X315291D02*
Y275799D01*
X316290D01*
X316623Y275466D01*
Y274466D01*
X317623Y275799D02*
X318290D01*
X318623Y275466D01*
Y274466D01*
X317623D01*
X317290Y274800D01*
X317623Y275133D01*
X318623D01*
X319289Y274466D02*
X319956D01*
X319622D01*
Y276466D01*
X319289D01*
X206800Y205800D02*
X207466D01*
X207133D01*
Y207799D01*
X206800Y207466D01*
X209799Y207799D02*
X208466D01*
Y206800D01*
X209133Y207133D01*
X209466D01*
X209799Y206800D01*
Y206133D01*
X209466Y205800D01*
X208799D01*
X208466Y206133D01*
X210466Y207799D02*
Y206466D01*
X211132Y205800D01*
X211798Y206466D01*
Y207799D01*
X193300Y99300D02*
X194633D01*
X195299Y99966D02*
X195633Y100299D01*
X196299D01*
X196632Y99966D01*
Y99633D01*
X196299Y99300D01*
X195966D01*
X196299D01*
X196632Y98966D01*
Y98633D01*
X196299Y98300D01*
X195633D01*
X195299Y98633D01*
X197299Y100299D02*
Y98966D01*
X197965Y98300D01*
X198632Y98966D01*
Y100299D01*
X59300Y110300D02*
Y112299D01*
X60300D01*
X60633Y111966D01*
Y111300D01*
X60300Y110967D01*
X59300D01*
X61299Y112299D02*
Y110300D01*
X61966Y110967D01*
X62632Y110300D01*
Y112299D01*
X63299Y110300D02*
Y112299D01*
X63965Y111633D01*
X64632Y112299D01*
Y110300D01*
X258300Y269299D02*
Y267300D01*
Y268300D01*
X259633D01*
Y269299D01*
Y267300D01*
X261632Y268966D02*
X261299Y269299D01*
X260633D01*
X260299Y268966D01*
Y268633D01*
X260633Y268300D01*
X261299D01*
X261632Y267966D01*
Y267633D01*
X261299Y267300D01*
X260633D01*
X260299Y267633D01*
X262299Y266967D02*
X263632D01*
X265631Y268966D02*
X265298Y269299D01*
X264631D01*
X264298Y268966D01*
Y267633D01*
X264631Y267300D01*
X265298D01*
X265631Y267633D01*
Y268300D01*
X264965D01*
X266297Y267300D02*
Y269299D01*
X267630Y267300D01*
Y269299D01*
X268297D02*
Y267300D01*
X269296D01*
X269630Y267633D01*
Y268966D01*
X269296Y269299D01*
X268297D01*
X244800Y267300D02*
X245466D01*
X245133D01*
Y269299D01*
X244800Y268966D01*
X247799Y269299D02*
X246466D01*
Y268300D01*
X247133Y268633D01*
X247466D01*
X247799Y268300D01*
Y267633D01*
X247466Y267300D01*
X246799D01*
X246466Y267633D01*
X248465Y269299D02*
Y267966D01*
X249132Y267300D01*
X249798Y267966D01*
Y269299D01*
X225800Y268300D02*
X227133D01*
X227799Y268966D02*
X228133Y269299D01*
X228799D01*
X229132Y268966D01*
Y268633D01*
X228799Y268300D01*
X228466D01*
X228799D01*
X229132Y267966D01*
Y267633D01*
X228799Y267300D01*
X228133D01*
X227799Y267633D01*
X229799Y269299D02*
Y267966D01*
X230465Y267300D01*
X231132Y267966D01*
Y269299D01*
D22*
X536000Y311332D02*
Y307333D01*
Y308666D01*
X538666Y311332D01*
X536666Y309332D01*
X538666Y307333D01*
X540665Y309999D02*
X541998D01*
X542664Y309332D01*
Y307333D01*
X540665D01*
X539999Y307999D01*
X540665Y308666D01*
X542664D01*
X543997Y307333D02*
X545997D01*
X546663Y307999D01*
X545997Y308666D01*
X544664D01*
X543997Y309332D01*
X544664Y309999D01*
X546663D01*
X549996Y307333D02*
X548663D01*
X547996Y307999D01*
Y309332D01*
X548663Y309999D01*
X549996D01*
X550662Y309332D01*
Y308666D01*
X547996D01*
X551995Y307333D02*
Y309999D01*
X553994D01*
X554661Y309332D01*
Y307333D01*
X557327Y306000D02*
X557993D01*
X558659Y306666D01*
Y309999D01*
X556660D01*
X555994Y309332D01*
Y307999D01*
X556660Y307333D01*
X558659D01*
X566657Y311332D02*
X563991D01*
Y309332D01*
X565324D01*
X563991D01*
Y307333D01*
X568656D02*
X569989D01*
X570655Y307999D01*
Y309332D01*
X569989Y309999D01*
X568656D01*
X567990Y309332D01*
Y307999D01*
X568656Y307333D01*
X571988D02*
Y309999D01*
X573988D01*
X574654Y309332D01*
Y307333D01*
X577320Y306000D02*
X577986D01*
X578653Y306666D01*
Y309999D01*
X576653D01*
X575987Y309332D01*
Y307999D01*
X576653Y307333D01*
X578653D01*
X586650Y310665D02*
X585984Y311332D01*
X584651D01*
X583985Y310665D01*
Y307999D01*
X584651Y307333D01*
X585984D01*
X586650Y307999D01*
X587983Y311332D02*
Y307333D01*
Y309332D01*
X588650Y309999D01*
X589983D01*
X590649Y309332D01*
Y307333D01*
X593981D02*
X592648D01*
X591982Y307999D01*
Y309332D01*
X592648Y309999D01*
X593981D01*
X594648Y309332D01*
Y308666D01*
X591982D01*
X595981Y307333D02*
Y309999D01*
X597980D01*
X598646Y309332D01*
Y307333D01*
X606644D02*
X603978D01*
X606644Y309999D01*
Y310665D01*
X605977Y311332D01*
X604644D01*
X603978Y310665D01*
X607977D02*
X608643Y311332D01*
X609976D01*
X610643Y310665D01*
Y307999D01*
X609976Y307333D01*
X608643D01*
X607977Y307999D01*
Y310665D01*
X614641Y307333D02*
X611975D01*
X614641Y309999D01*
Y310665D01*
X613975Y311332D01*
X612642D01*
X611975Y310665D01*
X615974Y307333D02*
X617307D01*
X616641D01*
Y311332D01*
X615974Y310665D01*
X45500Y273999D02*
Y271333D01*
X46833Y270000D01*
X48166Y271333D01*
Y273999D01*
X50165Y270000D02*
X51498D01*
X52165Y270666D01*
Y271999D01*
X51498Y272666D01*
X50165D01*
X49499Y271999D01*
Y270666D01*
X50165Y270000D01*
X57496Y271333D02*
X60162D01*
X57496Y272666D02*
X60162D01*
X67493Y270000D02*
Y273999D01*
X65494Y271999D01*
X68159D01*
X69492Y273332D02*
X70159Y273999D01*
X71492D01*
X72158Y273332D01*
Y272666D01*
X71492Y271999D01*
X72158Y271333D01*
Y270666D01*
X71492Y270000D01*
X70159D01*
X69492Y270666D01*
Y271333D01*
X70159Y271999D01*
X69492Y272666D01*
Y273332D01*
X70159Y271999D02*
X71492D01*
X73491Y273999D02*
Y271333D01*
X74824Y270000D01*
X76157Y271333D01*
Y273999D01*
X81488Y271999D02*
X84154D01*
X91485Y270000D02*
Y273999D01*
X89486Y271999D01*
X92152D01*
X93484Y273332D02*
X94151Y273999D01*
X95484D01*
X96150Y273332D01*
Y270666D01*
X95484Y270000D01*
X94151D01*
X93484Y270666D01*
Y273332D01*
X97483D02*
X98150Y273999D01*
X99483D01*
X100149Y273332D01*
Y270666D01*
X99483Y270000D01*
X98150D01*
X97483Y270666D01*
Y273332D01*
X101482Y273999D02*
Y271333D01*
X102815Y270000D01*
X104148Y271333D01*
Y273999D01*
X109479Y270000D02*
X112145Y272666D01*
X117477Y273999D02*
X118810D01*
X118143D01*
Y270000D01*
X117477D01*
X118810D01*
X121476D02*
X122808D01*
X123475Y270666D01*
Y271999D01*
X122808Y272666D01*
X121476D01*
X120809Y271999D01*
Y270666D01*
X121476Y270000D01*
X128806Y271333D02*
X131472D01*
X128806Y272666D02*
X131472D01*
X136804Y270000D02*
X138137D01*
X137470D01*
Y273999D01*
X136804Y273332D01*
X140136Y270000D02*
Y272666D01*
X141469Y273999D01*
X142802Y272666D01*
Y270000D01*
Y271999D01*
X140136D01*
X45500Y280999D02*
Y278333D01*
X46833Y277000D01*
X48166Y278333D01*
Y280999D01*
X49499Y277000D02*
X50832D01*
X50165D01*
Y279666D01*
X49499D01*
X52831Y277000D02*
Y279666D01*
X54830D01*
X55497Y278999D01*
Y277000D01*
X60828Y278333D02*
X63494D01*
X60828Y279666D02*
X63494D01*
X71492Y277000D02*
X68826D01*
X71492Y279666D01*
Y280332D01*
X70825Y280999D01*
X69492D01*
X68826Y280332D01*
X72825D02*
X73491Y280999D01*
X74824D01*
X75490Y280332D01*
Y277666D01*
X74824Y277000D01*
X73491D01*
X72825Y277666D01*
Y280332D01*
X76823D02*
X77490Y280999D01*
X78823D01*
X79489Y280332D01*
Y277666D01*
X78823Y277000D01*
X77490D01*
X76823Y277666D01*
Y280332D01*
X84821Y280999D02*
Y278333D01*
X86154Y277000D01*
X87486Y278333D01*
Y280999D01*
X91485D02*
Y277000D01*
X89486D01*
X88819Y277666D01*
Y278999D01*
X89486Y279666D01*
X91485D01*
X95484D02*
X93484D01*
X92818Y278999D01*
Y277666D01*
X93484Y277000D01*
X95484D01*
X100815D02*
Y280999D01*
X102148Y279666D01*
X103481Y280999D01*
Y277000D01*
X104814D02*
Y279666D01*
X106147Y280999D01*
X107480Y279666D01*
Y277000D01*
Y278999D01*
X104814D01*
X108813Y280999D02*
X111479Y277000D01*
Y280999D02*
X108813Y277000D01*
X116810D02*
X119476Y279666D01*
X124808Y280999D02*
X126141D01*
X125474D01*
Y277000D01*
X124808D01*
X126141D01*
X128140D02*
X129473D01*
X128806D01*
Y279666D01*
X128140D01*
X135471Y278333D02*
X138137D01*
X135471Y279666D02*
X138137D01*
X146134Y277000D02*
X143468D01*
X146134Y279666D01*
Y280332D01*
X145468Y280999D01*
X144135D01*
X143468Y280332D01*
X147467Y277000D02*
Y279666D01*
X148800Y280999D01*
X150133Y279666D01*
Y277000D01*
Y278999D01*
X147467D01*
X130998Y296000D02*
Y305997D01*
X126000Y300998D01*
X132665D01*
X135997Y304331D02*
X137663Y305997D01*
X140995D01*
X142661Y304331D01*
Y297666D01*
X140995Y296000D01*
X137663D01*
X135997Y297666D01*
Y304331D01*
X145993D02*
X147660Y305997D01*
X150992D01*
X152658Y304331D01*
Y297666D01*
X150992Y296000D01*
X147660D01*
X145993Y297666D01*
Y304331D01*
X155990Y305997D02*
Y296000D01*
X159323Y299332D01*
X162655Y296000D01*
Y305997D01*
X175984D02*
Y296000D01*
X180982D01*
X182648Y297666D01*
Y299332D01*
X180982Y300998D01*
X175984D01*
X180982D01*
X182648Y302664D01*
Y304331D01*
X180982Y305997D01*
X175984D01*
X185981Y302664D02*
Y297666D01*
X187647Y296000D01*
X192645D01*
Y302664D01*
X202642D02*
X197643D01*
X195977Y300998D01*
Y297666D01*
X197643Y296000D01*
X202642D01*
X205974D02*
Y305997D01*
Y299332D02*
X210972Y302664D01*
X205974Y299332D02*
X210972Y296000D01*
X215971Y300998D02*
X222635D01*
X225968Y305997D02*
Y296000D01*
X230966D01*
X232632Y297666D01*
Y299332D01*
X230966Y300998D01*
X225968D01*
X230966D01*
X232632Y302664D01*
Y304331D01*
X230966Y305997D01*
X225968D01*
X237631Y296000D02*
X240963D01*
X242629Y297666D01*
Y300998D01*
X240963Y302664D01*
X237631D01*
X235964Y300998D01*
Y297666D01*
X237631Y296000D01*
X247627D02*
X250960D01*
X252626Y297666D01*
Y300998D01*
X250960Y302664D01*
X247627D01*
X245961Y300998D01*
Y297666D01*
X247627Y296000D01*
X255958D02*
X260956D01*
X262622Y297666D01*
X260956Y299332D01*
X257624D01*
X255958Y300998D01*
X257624Y302664D01*
X262622D01*
X267621Y304331D02*
Y302664D01*
X265955D01*
X269287D01*
X267621D01*
Y297666D01*
X269287Y296000D01*
X290947Y304331D02*
X289281Y305997D01*
X285948D01*
X284282Y304331D01*
Y297666D01*
X285948Y296000D01*
X289281D01*
X290947Y297666D01*
X295945Y296000D02*
X299277D01*
X300943Y297666D01*
Y300998D01*
X299277Y302664D01*
X295945D01*
X294279Y300998D01*
Y297666D01*
X295945Y296000D01*
X304276D02*
Y302664D01*
X309274D01*
X310940Y300998D01*
Y296000D01*
X314272Y302664D02*
X317605Y296000D01*
X320937Y302664D01*
X329268Y296000D02*
X325935D01*
X324269Y297666D01*
Y300998D01*
X325935Y302664D01*
X329268D01*
X330934Y300998D01*
Y299332D01*
X324269D01*
X334266Y302664D02*
Y296000D01*
Y299332D01*
X335932Y300998D01*
X337598Y302664D01*
X339264D01*
X345929Y304331D02*
Y302664D01*
X344263D01*
X347595D01*
X345929D01*
Y297666D01*
X347595Y296000D01*
X357592D02*
X354260D01*
X352593Y297666D01*
Y300998D01*
X354260Y302664D01*
X357592D01*
X359258Y300998D01*
Y299332D01*
X352593D01*
X362590Y302664D02*
Y296000D01*
Y299332D01*
X364256Y300998D01*
X365922Y302664D01*
X367589D01*
X108666Y14332D02*
X107999Y14999D01*
X106667D01*
X106000Y14332D01*
Y13666D01*
X106667Y12999D01*
X107999D01*
X108666Y12333D01*
Y11666D01*
X107999Y11000D01*
X106667D01*
X106000Y11666D01*
X109999Y13666D02*
Y11666D01*
X110665Y11000D01*
X111332Y11666D01*
X111998Y11000D01*
X112664Y11666D01*
Y13666D01*
X113997Y11000D02*
X115330D01*
X114664D01*
Y13666D01*
X113997D01*
X117996Y14332D02*
Y13666D01*
X117330D01*
X118663D01*
X117996D01*
Y11666D01*
X118663Y11000D01*
X123328Y13666D02*
X121328D01*
X120662Y12999D01*
Y11666D01*
X121328Y11000D01*
X123328D01*
X124661Y14999D02*
Y11000D01*
Y12999D01*
X125327Y13666D01*
X126660D01*
X127326Y12999D01*
Y11000D01*
X153666Y14332D02*
X152999Y14999D01*
X151666D01*
X151000Y14332D01*
Y11666D01*
X151666Y11000D01*
X152999D01*
X153666Y11666D01*
Y12999D01*
X152333D01*
X154999Y11000D02*
Y14999D01*
X157665Y11000D01*
Y14999D01*
X158997D02*
Y11000D01*
X160997D01*
X161663Y11666D01*
Y14332D01*
X160997Y14999D01*
X158997D01*
X746500Y128500D02*
Y131166D01*
X745167Y183500D02*
Y186166D01*
X743834Y184833D02*
X746500D01*
X745001Y141000D02*
Y142333D01*
Y141666D01*
X749000D01*
Y141000D01*
Y142333D01*
Y144332D02*
X746334D01*
Y146332D01*
X747001Y146998D01*
X749000D01*
X745001Y150997D02*
X749000D01*
Y148997D01*
X748334Y148331D01*
X747001D01*
X746334Y148997D01*
Y150997D01*
Y152330D02*
X748334D01*
X749000Y152996D01*
Y154996D01*
X746334D01*
Y158994D02*
Y156995D01*
X747001Y156328D01*
X748334D01*
X749000Y156995D01*
Y158994D01*
X745668Y160994D02*
X746334D01*
Y160327D01*
Y161660D01*
Y160994D01*
X748334D01*
X749000Y161660D01*
Y164326D02*
Y165659D01*
X748334Y166325D01*
X747001D01*
X746334Y165659D01*
Y164326D01*
X747001Y163659D01*
X748334D01*
X749000Y164326D01*
X746334Y167658D02*
X749000D01*
X747667D01*
X747001Y168324D01*
X746334Y168991D01*
Y169657D01*
X453500Y14999D02*
Y12333D01*
X454833Y11000D01*
X456166Y12333D01*
Y14999D01*
X457499Y11000D02*
X459498D01*
X460164Y11666D01*
X459498Y12333D01*
X458165D01*
X457499Y12999D01*
X458165Y13666D01*
X460164D01*
X461497D02*
Y11666D01*
X462164Y11000D01*
X462830Y11666D01*
X463497Y11000D01*
X464163Y11666D01*
Y13666D01*
X498500Y14999D02*
Y12333D01*
X499833Y11000D01*
X501166Y12333D01*
Y14999D01*
X502499D02*
Y11000D01*
X505164D01*
X586000Y14999D02*
Y12333D01*
X587333Y11000D01*
X588666Y12333D01*
Y14999D01*
X590665Y11000D02*
X591998D01*
X592664Y11666D01*
Y12999D01*
X591998Y13666D01*
X590665D01*
X589999Y12999D01*
Y11666D01*
X590665Y11000D01*
X608500D02*
Y14999D01*
X610499D01*
X611166Y14332D01*
Y12999D01*
X610499Y12333D01*
X608500D01*
X615165Y14332D02*
X614498Y14999D01*
X613165D01*
X612499Y14332D01*
Y11666D01*
X613165Y11000D01*
X614498D01*
X615165Y11666D01*
Y12999D01*
X613832D01*
X616497Y11000D02*
Y14999D01*
X619163Y11000D01*
Y14999D01*
X620496D02*
Y11000D01*
X622496D01*
X623162Y11666D01*
Y14332D01*
X622496Y14999D01*
X620496D01*
X523500Y11000D02*
Y14999D01*
X525499D01*
X526166Y14332D01*
Y12999D01*
X525499Y12333D01*
X523500D01*
X530164Y14332D02*
X529498Y14999D01*
X528165D01*
X527499Y14332D01*
Y11666D01*
X528165Y11000D01*
X529498D01*
X530164Y11666D01*
Y12999D01*
X528832D01*
X531497Y11000D02*
Y14999D01*
X534163Y11000D01*
Y14999D01*
X535496D02*
Y11000D01*
X537496D01*
X538162Y11666D01*
Y14332D01*
X537496Y14999D01*
X535496D01*
X276000Y11000D02*
Y14999D01*
X277999D01*
X278666Y14332D01*
Y12999D01*
X277999Y12333D01*
X276000D01*
X282664Y14332D02*
X281998Y14999D01*
X280665D01*
X279999Y14332D01*
Y11666D01*
X280665Y11000D01*
X281998D01*
X282664Y11666D01*
Y12999D01*
X281332D01*
X283997Y11000D02*
Y14999D01*
X286663Y11000D01*
Y14999D01*
X287996D02*
Y11000D01*
X289996D01*
X290662Y11666D01*
Y14332D01*
X289996Y14999D01*
X287996D01*
X248500D02*
Y12333D01*
X249833Y11000D01*
X251166Y12333D01*
Y14999D01*
X252499Y11000D02*
X253832D01*
X253165D01*
Y13666D01*
X252499D01*
X255831Y11000D02*
Y13666D01*
X257830D01*
X258497Y12999D01*
Y11000D01*
X51000Y151500D02*
X54999D01*
Y149501D01*
X54332Y148834D01*
X52999D01*
X52333Y149501D01*
Y151500D01*
X54999Y147501D02*
X51000D01*
X52333Y146168D01*
X51000Y144835D01*
X54999D01*
X51000Y143503D02*
X54999D01*
X53666Y142170D01*
X54999Y140837D01*
X51000D01*
X86000Y81500D02*
Y78834D01*
X87333Y71500D02*
Y68834D01*
X88666Y70167D02*
X86000D01*
X48500Y79000D02*
Y77667D01*
Y78334D01*
X52499D01*
X51832Y79000D01*
X48500Y73002D02*
Y75668D01*
X51166Y73002D01*
X51832D01*
X52499Y73668D01*
Y75001D01*
X51832Y75668D01*
X52499Y71669D02*
X49833D01*
X48500Y70336D01*
X49833Y69003D01*
X52499D01*
X638834Y78000D02*
X640167D01*
X639501D01*
Y76000D01*
X640834D02*
Y78000D01*
X641834D01*
X642167Y77666D01*
Y77000D01*
X641834Y76667D01*
X640834D01*
X644166Y76000D02*
X642833D01*
X644166Y77333D01*
Y77666D01*
X643833Y78000D01*
X643166D01*
X642833Y77666D01*
X644833D02*
X645166Y78000D01*
X645832D01*
X646166Y77666D01*
Y77333D01*
X645832Y77000D01*
X645499D01*
X645832D01*
X646166Y76667D01*
Y76334D01*
X645832Y76000D01*
X645166D01*
X644833Y76334D01*
X532834Y76500D02*
X534167D01*
X533501D01*
Y74500D01*
X534834D02*
Y76500D01*
X535834D01*
X536167Y76166D01*
Y75500D01*
X535834Y75167D01*
X534834D01*
X538166Y74500D02*
X536833D01*
X538166Y75833D01*
Y76166D01*
X537833Y76500D01*
X537167D01*
X536833Y76166D01*
X540166Y74500D02*
X538833D01*
X540166Y75833D01*
Y76166D01*
X539832Y76500D01*
X539166D01*
X538833Y76166D01*
X595668Y76500D02*
X597001D01*
X596334D01*
Y74500D01*
X597667D02*
Y76500D01*
X598667D01*
X599000Y76166D01*
Y75500D01*
X598667Y75167D01*
X597667D01*
X600999Y74500D02*
X599666D01*
X600999Y75833D01*
Y76166D01*
X600666Y76500D01*
X600000D01*
X599666Y76166D01*
X601666Y74500D02*
X602332D01*
X601999D01*
Y76500D01*
X601666Y76166D01*
X555100Y192899D02*
X557766D01*
X556433D01*
Y188900D01*
X559099D02*
Y192899D01*
X561098D01*
X561764Y192232D01*
Y190899D01*
X561098Y190233D01*
X559099D01*
X565763Y188900D02*
X563097D01*
X565763Y191566D01*
Y192232D01*
X565097Y192899D01*
X563764D01*
X563097Y192232D01*
X567096D02*
X567763Y192899D01*
X569096D01*
X569762Y192232D01*
Y189567D01*
X569096Y188900D01*
X567763D01*
X567096Y189567D01*
Y192232D01*
X209501Y26500D02*
X210834D01*
X210168D01*
Y24500D01*
X211501D02*
Y26500D01*
X212500D01*
X212833Y26166D01*
Y25500D01*
X212500Y25167D01*
X211501D01*
X213500Y24500D02*
X214166D01*
X213833D01*
Y26500D01*
X213500Y26166D01*
X215166Y24834D02*
X215499Y24500D01*
X216166D01*
X216499Y24834D01*
Y26166D01*
X216166Y26500D01*
X215499D01*
X215166Y26166D01*
Y25833D01*
X215499Y25500D01*
X216499D01*
X312501Y265500D02*
X313834D01*
X313168D01*
Y263500D01*
X314500D02*
Y265500D01*
X315500D01*
X315833Y265166D01*
Y264500D01*
X315500Y264167D01*
X314500D01*
X316500Y263500D02*
X317166D01*
X316833D01*
Y265500D01*
X316500Y265166D01*
X318166Y265500D02*
X319499D01*
Y265166D01*
X318166Y263834D01*
Y263500D01*
X181501Y91500D02*
X182834D01*
X182168D01*
Y89500D01*
X183501D02*
Y91500D01*
X184500D01*
X184833Y91167D01*
Y90500D01*
X184500Y90167D01*
X183501D01*
X185500Y89500D02*
X186166D01*
X185833D01*
Y91500D01*
X185500Y91167D01*
X188499Y91500D02*
X187832Y91167D01*
X187166Y90500D01*
Y89834D01*
X187499Y89500D01*
X188166D01*
X188499Y89834D01*
Y90167D01*
X188166Y90500D01*
X187166D01*
X59001Y116500D02*
X60334D01*
X59668D01*
Y114500D01*
X61001D02*
Y116500D01*
X62000D01*
X62333Y116166D01*
Y115500D01*
X62000Y115167D01*
X61001D01*
X63000Y114500D02*
X63666D01*
X63333D01*
Y116500D01*
X63000Y116166D01*
X65999Y116500D02*
X64666D01*
Y115500D01*
X65332Y115833D01*
X65666D01*
X65999Y115500D01*
Y114834D01*
X65666Y114500D01*
X64999D01*
X64666Y114834D01*
X64001Y248000D02*
X65334D01*
X64668D01*
Y246000D01*
X66000D02*
Y248000D01*
X67000D01*
X67333Y247667D01*
Y247000D01*
X67000Y246667D01*
X66000D01*
X68000Y246000D02*
X68666D01*
X68333D01*
Y248000D01*
X68000Y247667D01*
X69666D02*
X69999Y248000D01*
X70666D01*
X70999Y247667D01*
Y247333D01*
X70666Y247000D01*
X70332D01*
X70666D01*
X70999Y246667D01*
Y246334D01*
X70666Y246000D01*
X69999D01*
X69666Y246334D01*
X213600Y217899D02*
X214933D01*
X214266D01*
Y215900D01*
X215599D02*
Y217899D01*
X216599D01*
X216932Y217566D01*
Y216900D01*
X216599Y216566D01*
X215599D01*
X217599Y215900D02*
X218265D01*
X217932D01*
Y217899D01*
X217599Y217566D01*
X219265Y215900D02*
X219931D01*
X219598D01*
Y217899D01*
X219265Y217566D01*
X63501Y225500D02*
X64834D01*
X64168D01*
Y223500D01*
X65500D02*
Y225500D01*
X66500D01*
X66833Y225167D01*
Y224500D01*
X66500Y224167D01*
X65500D01*
X67500Y223500D02*
X68166D01*
X67833D01*
Y225500D01*
X67500Y225167D01*
X69166D02*
X69499Y225500D01*
X70166D01*
X70499Y225167D01*
Y223834D01*
X70166Y223500D01*
X69499D01*
X69166Y223834D01*
Y225167D01*
X64334Y201000D02*
X65667D01*
X65001D01*
Y199000D01*
X66334D02*
Y201000D01*
X67333D01*
X67666Y200666D01*
Y200000D01*
X67333Y199667D01*
X66334D01*
X68333Y199334D02*
X68666Y199000D01*
X69333D01*
X69666Y199334D01*
Y200666D01*
X69333Y201000D01*
X68666D01*
X68333Y200666D01*
Y200333D01*
X68666Y200000D01*
X69666D01*
X122834Y81000D02*
X124167D01*
X123501D01*
Y79000D01*
X124834D02*
Y81000D01*
X125833D01*
X126166Y80667D01*
Y80000D01*
X125833Y79667D01*
X124834D01*
X126833Y80667D02*
X127166Y81000D01*
X127833D01*
X128166Y80667D01*
Y80333D01*
X127833Y80000D01*
X128166Y79667D01*
Y79334D01*
X127833Y79000D01*
X127166D01*
X126833Y79334D01*
Y79667D01*
X127166Y80000D01*
X126833Y80333D01*
Y80667D01*
X127166Y80000D02*
X127833D01*
X103834Y80500D02*
X105167D01*
X104501D01*
Y78500D01*
X105833D02*
Y80500D01*
X106833D01*
X107167Y80167D01*
Y79500D01*
X106833Y79167D01*
X105833D01*
X107833Y80500D02*
X109166D01*
Y80167D01*
X107833Y78834D01*
Y78500D01*
X226100Y290899D02*
X227433D01*
X226766D01*
Y288900D01*
X228099D02*
Y290899D01*
X229099D01*
X229432Y290566D01*
Y289900D01*
X229099Y289566D01*
X228099D01*
X231432Y290899D02*
X230765Y290566D01*
X230099Y289900D01*
Y289233D01*
X230432Y288900D01*
X231098D01*
X231432Y289233D01*
Y289566D01*
X231098Y289900D01*
X230099D01*
X259600Y291899D02*
X260933D01*
X260266D01*
Y289900D01*
X261599D02*
Y291899D01*
X262599D01*
X262932Y291566D01*
Y290900D01*
X262599Y290566D01*
X261599D01*
X264932Y291899D02*
X263599D01*
Y290900D01*
X264265Y291233D01*
X264598D01*
X264932Y290900D01*
Y290233D01*
X264598Y289900D01*
X263932D01*
X263599Y290233D01*
X149600Y218899D02*
X152266D01*
X150933D01*
Y214900D01*
X153599D02*
Y218899D01*
X155598D01*
X156264Y218232D01*
Y216899D01*
X155598Y216233D01*
X153599D01*
X159597Y214900D02*
Y218899D01*
X157597Y216899D01*
X160263D01*
X89834Y247000D02*
X91167D01*
X90501D01*
Y245000D01*
X91834D02*
Y247000D01*
X92833D01*
X93166Y246667D01*
Y246000D01*
X92833Y245667D01*
X91834D01*
X93833Y246667D02*
X94166Y247000D01*
X94833D01*
X95166Y246667D01*
Y246333D01*
X94833Y246000D01*
X94499D01*
X94833D01*
X95166Y245667D01*
Y245334D01*
X94833Y245000D01*
X94166D01*
X93833Y245334D01*
X89834Y267500D02*
X91167D01*
X90501D01*
Y265500D01*
X91834D02*
Y267500D01*
X92833D01*
X93166Y267166D01*
Y266500D01*
X92833Y266167D01*
X91834D01*
X95166Y265500D02*
X93833D01*
X95166Y266833D01*
Y267166D01*
X94833Y267500D01*
X94166D01*
X93833Y267166D01*
X243600Y291399D02*
X244933D01*
X244266D01*
Y289400D01*
X245599D02*
Y291399D01*
X246599D01*
X246932Y291066D01*
Y290400D01*
X246599Y290066D01*
X245599D01*
X247599Y289400D02*
X248265D01*
X247932D01*
Y291399D01*
X247599Y291066D01*
X59400Y317799D02*
Y313800D01*
Y315799D01*
X62066D01*
Y317799D01*
Y313800D01*
X63399D02*
X64732D01*
X64065D01*
Y317799D01*
X63399Y317132D01*
X68730Y313800D02*
Y317799D01*
X66731Y315799D01*
X69397D01*
X396200Y317799D02*
Y313800D01*
Y315799D01*
X398866D01*
Y317799D01*
Y313800D01*
X400199D02*
X401532D01*
X400865D01*
Y317799D01*
X400199Y317132D01*
X403531D02*
X404197Y317799D01*
X405530D01*
X406197Y317132D01*
Y316466D01*
X405530Y315799D01*
X404864D01*
X405530D01*
X406197Y315133D01*
Y314466D01*
X405530Y313800D01*
X404197D01*
X403531Y314466D01*
X59400Y41799D02*
Y37800D01*
Y39799D01*
X62066D01*
Y41799D01*
Y37800D01*
X63399D02*
X64732D01*
X64065D01*
Y41799D01*
X63399Y41132D01*
X66731D02*
X67397Y41799D01*
X68730D01*
X69397Y41132D01*
Y38466D01*
X68730Y37800D01*
X67397D01*
X66731Y38466D01*
Y41132D01*
X754200Y317799D02*
Y313800D01*
Y315799D01*
X756866D01*
Y317799D01*
Y313800D01*
X758199Y314466D02*
X758865Y313800D01*
X760198D01*
X760864Y314466D01*
Y317132D01*
X760198Y317799D01*
X758865D01*
X758199Y317132D01*
Y316466D01*
X758865Y315799D01*
X760864D01*
X396200Y41799D02*
Y37800D01*
Y39799D01*
X398866D01*
Y41799D01*
Y37800D01*
X400199Y41132D02*
X400865Y41799D01*
X402198D01*
X402865Y41132D01*
Y40466D01*
X402198Y39799D01*
X402865Y39133D01*
Y38466D01*
X402198Y37800D01*
X400865D01*
X400199Y38466D01*
Y39133D01*
X400865Y39799D01*
X400199Y40466D01*
Y41132D01*
X400865Y39799D02*
X402198D01*
X754200Y41799D02*
Y37800D01*
Y39799D01*
X756866D01*
Y41799D01*
Y37800D01*
X758199Y41799D02*
X760864D01*
Y41132D01*
X758199Y38466D01*
Y37800D01*
X230001Y176000D02*
Y178999D01*
X231500D01*
X232000Y178500D01*
Y177500D01*
X231500Y177000D01*
X230001D01*
X231000D02*
X232000Y176000D01*
X234999Y178999D02*
X233000D01*
Y177500D01*
X233999Y178000D01*
X234499D01*
X234999Y177500D01*
Y176500D01*
X234499Y176000D01*
X233500D01*
X233000Y176500D01*
X570002Y262999D02*
Y257001D01*
Y260000D01*
X574000D01*
Y262999D01*
Y257001D01*
X579998D02*
X576000D01*
X579998Y261000D01*
Y261999D01*
X578999Y262999D01*
X576999D01*
X576000Y261999D01*
X140499Y73099D02*
X139999Y73599D01*
X139000D01*
X138500Y73099D01*
Y71100D01*
X139000Y70600D01*
X139999D01*
X140499Y71100D01*
X143498Y70600D02*
X141499D01*
X143498Y72599D01*
Y73099D01*
X142999Y73599D01*
X141999D01*
X141499Y73099D01*
X144498Y73599D02*
X146497D01*
Y73099D01*
X144498Y71100D01*
Y70600D01*
X140599Y83199D02*
X140100Y83699D01*
X139100D01*
X138600Y83199D01*
Y81200D01*
X139100Y80700D01*
X140100D01*
X140599Y81200D01*
X143598Y80700D02*
X141599D01*
X143598Y82699D01*
Y83199D01*
X143099Y83699D01*
X142099D01*
X141599Y83199D01*
X146597Y83699D02*
X145598Y83199D01*
X144598Y82200D01*
Y81200D01*
X145098Y80700D01*
X146098D01*
X146597Y81200D01*
Y81700D01*
X146098Y82200D01*
X144598D01*
X281001Y262999D02*
Y257001D01*
Y260000D01*
X285000D01*
Y262999D01*
Y257001D01*
X286999D02*
X288999D01*
X287999D01*
Y262999D01*
X286999Y261999D01*
X162201Y147899D02*
Y145400D01*
X162701Y144901D01*
X163700D01*
X164200Y145400D01*
Y147899D01*
X165200Y147400D02*
X165700Y147899D01*
X166699D01*
X167199Y147400D01*
Y146900D01*
X166699Y146400D01*
X166200D01*
X166699D01*
X167199Y145900D01*
Y145400D01*
X166699Y144901D01*
X165700D01*
X165200Y145400D01*
X60502Y172001D02*
Y177999D01*
X63501D01*
X64501Y176999D01*
Y175000D01*
X63501Y174000D01*
X60502D01*
X62502D02*
X64501Y172001D01*
X66500Y176000D02*
X70499Y172001D01*
X68500Y174000D01*
X70499Y176000D01*
X66500Y172001D01*
X72498D02*
X74498D01*
X73498D01*
Y177999D01*
X72498Y176999D01*
X207501Y156000D02*
Y159000D01*
X209000D01*
X209500Y158500D01*
Y157500D01*
X209000Y157000D01*
X207501D01*
X208501D02*
X209500Y156000D01*
X212499Y159000D02*
X211500Y158500D01*
X210500Y157500D01*
Y156500D01*
X211000Y156000D01*
X211999D01*
X212499Y156500D01*
Y157000D01*
X211999Y157500D01*
X210500D01*
X133501Y168500D02*
Y171500D01*
X135000D01*
X135500Y171000D01*
Y170000D01*
X135000Y169500D01*
X133501D01*
X134501D02*
X135500Y168500D01*
X137999D02*
Y171500D01*
X136500Y170000D01*
X138499D01*
X153393Y56378D02*
X152475D01*
X152934D01*
Y54082D01*
X152475Y53623D01*
X152015D01*
X151556Y54082D01*
X154311Y53623D02*
X155230D01*
X154770D01*
Y56378D01*
X154311Y55918D01*
X158444Y53623D02*
X156607D01*
X158444Y55459D01*
Y55918D01*
X157985Y56378D01*
X157066D01*
X156607Y55918D01*
X126352Y56378D02*
X125434D01*
X125893D01*
Y54082D01*
X125434Y53623D01*
X124975D01*
X124515Y54082D01*
X127270Y53623D02*
X128189D01*
X127730D01*
Y56378D01*
X127270Y55918D01*
X129566Y53623D02*
X130485D01*
X130025D01*
Y56378D01*
X129566Y55918D01*
X100893Y56378D02*
X99975D01*
X100434D01*
Y54082D01*
X99975Y53623D01*
X99515D01*
X99056Y54082D01*
X101811Y53623D02*
X102730D01*
X102270D01*
Y56378D01*
X101811Y55918D01*
X104107D02*
X104566Y56378D01*
X105485D01*
X105944Y55918D01*
Y54082D01*
X105485Y53623D01*
X104566D01*
X104107Y54082D01*
Y55918D01*
X69500Y91500D02*
X68501D01*
X69000D01*
Y89000D01*
X68501Y88500D01*
X68001D01*
X67501Y89000D01*
X70500D02*
X71000Y88500D01*
X71999D01*
X72499Y89000D01*
Y91000D01*
X71999Y91500D01*
X71000D01*
X70500Y91000D01*
Y90500D01*
X71000Y90000D01*
X72499D01*
X240001Y188999D02*
Y186001D01*
X241500D01*
X242000Y186500D01*
Y188500D01*
X241500Y188999D01*
X240001D01*
X244999D02*
X244000Y188500D01*
X243000Y187500D01*
Y186500D01*
X243500Y186001D01*
X244499D01*
X244999Y186500D01*
Y187000D01*
X244499Y187500D01*
X243000D01*
X252501Y188999D02*
Y186001D01*
X254000D01*
X254500Y186500D01*
Y188500D01*
X254000Y188999D01*
X252501D01*
X257499D02*
X255500D01*
Y187500D01*
X256500Y188000D01*
X256999D01*
X257499Y187500D01*
Y186500D01*
X256999Y186001D01*
X256000D01*
X255500Y186500D01*
X147901Y146142D02*
X147401Y146642D01*
X146401D01*
X145901Y146142D01*
Y144143D01*
X146401Y143643D01*
X147401D01*
X147901Y144143D01*
X150900Y143643D02*
X148900D01*
X150900Y145642D01*
Y146142D01*
X150400Y146642D01*
X149400D01*
X148900Y146142D01*
X153899Y146642D02*
X151899D01*
Y145142D01*
X152899Y145642D01*
X153399D01*
X153899Y145142D01*
Y144143D01*
X153399Y143643D01*
X152399D01*
X151899Y144143D01*
X223001Y133500D02*
X222501Y134000D01*
X221501D01*
X221001Y133500D01*
Y131500D01*
X221501Y131000D01*
X222501D01*
X223001Y131500D01*
X226000Y131000D02*
X224000D01*
X226000Y133000D01*
Y133500D01*
X225500Y134000D01*
X224500D01*
X224000Y133500D01*
X228499Y131000D02*
Y134000D01*
X226999Y132500D01*
X228999D01*
X208001Y128500D02*
X207501Y128999D01*
X206501D01*
X206001Y128500D01*
Y126500D01*
X206501Y126000D01*
X207501D01*
X208001Y126500D01*
X211000Y126000D02*
X209000D01*
X211000Y128000D01*
Y128500D01*
X210500Y128999D01*
X209500D01*
X209000Y128500D01*
X211999D02*
X212499Y128999D01*
X213499D01*
X213999Y128500D01*
Y128000D01*
X213499Y127500D01*
X212999D01*
X213499D01*
X213999Y127000D01*
Y126500D01*
X213499Y126000D01*
X212499D01*
X211999Y126500D01*
X188001Y113500D02*
X187501Y113999D01*
X186501D01*
X186001Y113500D01*
Y111500D01*
X186501Y111001D01*
X187501D01*
X188001Y111500D01*
X191000Y111001D02*
X189000D01*
X191000Y113000D01*
Y113500D01*
X190500Y113999D01*
X189500D01*
X189000Y113500D01*
X193999Y111001D02*
X191999D01*
X193999Y113000D01*
Y113500D01*
X193499Y113999D01*
X192499D01*
X191999Y113500D01*
X221001Y183500D02*
X220501Y184000D01*
X219501D01*
X219001Y183500D01*
Y181500D01*
X219501Y181000D01*
X220501D01*
X221001Y181500D01*
X224000Y181000D02*
X222000D01*
X224000Y183000D01*
Y183500D01*
X223500Y184000D01*
X222500D01*
X222000Y183500D01*
X224999Y181000D02*
X225999D01*
X225499D01*
Y184000D01*
X224999Y183500D01*
X210501Y188500D02*
X210001Y188999D01*
X209001D01*
X208501Y188500D01*
Y186500D01*
X209001Y186001D01*
X210001D01*
X210501Y186500D01*
X213500Y186001D02*
X211500D01*
X213500Y188000D01*
Y188500D01*
X213000Y188999D01*
X212000D01*
X211500Y188500D01*
X214499D02*
X214999Y188999D01*
X215999D01*
X216499Y188500D01*
Y186500D01*
X215999Y186001D01*
X214999D01*
X214499Y186500D01*
Y188500D01*
X193251Y203500D02*
X192751Y203999D01*
X191751D01*
X191251Y203500D01*
Y201500D01*
X191751Y201000D01*
X192751D01*
X193251Y201500D01*
X194250Y201000D02*
X195250D01*
X194750D01*
Y203999D01*
X194250Y203500D01*
X196749Y201500D02*
X197249Y201000D01*
X198249D01*
X198749Y201500D01*
Y203500D01*
X198249Y203999D01*
X197249D01*
X196749Y203500D01*
Y203000D01*
X197249Y202500D01*
X198749D01*
X127899Y202499D02*
X127400Y202999D01*
X126400D01*
X125900Y202499D01*
Y200500D01*
X126400Y200000D01*
X127400D01*
X127899Y200500D01*
X128899Y200000D02*
X129899D01*
X129399D01*
Y202999D01*
X128899Y202499D01*
X131398D02*
X131898Y202999D01*
X132898D01*
X133398Y202499D01*
Y201999D01*
X132898Y201500D01*
X133398Y201000D01*
Y200500D01*
X132898Y200000D01*
X131898D01*
X131398Y200500D01*
Y201000D01*
X131898Y201500D01*
X131398Y201999D01*
Y202499D01*
X131898Y201500D02*
X132898D01*
X146751Y173000D02*
X146251Y173500D01*
X145251D01*
X144751Y173000D01*
Y171000D01*
X145251Y170501D01*
X146251D01*
X146751Y171000D01*
X147750Y170501D02*
X148750D01*
X148250D01*
Y173500D01*
X147750Y173000D01*
X150249Y173500D02*
X152249D01*
Y173000D01*
X150249Y171000D01*
Y170501D01*
X135999Y164999D02*
X135500Y165499D01*
X134500D01*
X134000Y164999D01*
Y163000D01*
X134500Y162500D01*
X135500D01*
X135999Y163000D01*
X136999Y162500D02*
X137999D01*
X137499D01*
Y165499D01*
X136999Y164999D01*
X141498Y165499D02*
X140498Y164999D01*
X139498Y163999D01*
Y163000D01*
X139998Y162500D01*
X140998D01*
X141498Y163000D01*
Y163500D01*
X140998Y163999D01*
X139498D01*
X142501Y211500D02*
Y209000D01*
X143001Y208501D01*
X144000D01*
X144500Y209000D01*
Y211500D01*
X147499Y208501D02*
X145500D01*
X147499Y210500D01*
Y211000D01*
X146999Y211500D01*
X146000D01*
X145500Y211000D01*
X88001Y208999D02*
Y206500D01*
X88500Y206000D01*
X89500D01*
X90000Y206500D01*
Y208999D01*
X91000Y206000D02*
X91999D01*
X91500D01*
Y208999D01*
X91000Y208500D01*
X112501Y181000D02*
Y184000D01*
X114000D01*
X114500Y183500D01*
Y182500D01*
X114000Y182000D01*
X112501D01*
X113500D02*
X114500Y181000D01*
X115500Y183500D02*
X116000Y184000D01*
X116999D01*
X117499Y183500D01*
Y183000D01*
X116999Y182500D01*
X116499D01*
X116999D01*
X117499Y182000D01*
Y181500D01*
X116999Y181000D01*
X116000D01*
X115500Y181500D01*
X207501Y273500D02*
Y276500D01*
X209000D01*
X209500Y276000D01*
Y275000D01*
X209000Y274500D01*
X207501D01*
X208501D02*
X209500Y273500D01*
X212499D02*
X210500D01*
X212499Y275500D01*
Y276000D01*
X211999Y276500D01*
X211000D01*
X210500Y276000D01*
X85001Y178999D02*
Y176000D01*
X86500D01*
X87000Y176500D01*
Y178500D01*
X86500Y178999D01*
X85001D01*
X89499Y176000D02*
Y178999D01*
X88000Y177500D01*
X89999D01*
X175001Y276500D02*
Y273500D01*
X176500D01*
X177000Y274000D01*
Y276000D01*
X176500Y276500D01*
X175001D01*
X178000Y276000D02*
X178500Y276500D01*
X179499D01*
X179999Y276000D01*
Y275500D01*
X179499Y275000D01*
X178999D01*
X179499D01*
X179999Y274500D01*
Y274000D01*
X179499Y273500D01*
X178500D01*
X178000Y274000D01*
X123701Y212100D02*
Y209101D01*
X125200D01*
X125700Y209600D01*
Y211600D01*
X125200Y212100D01*
X123701D01*
X128699Y209101D02*
X126700D01*
X128699Y211100D01*
Y211600D01*
X128199Y212100D01*
X127200D01*
X126700Y211600D01*
X173251Y258500D02*
X172751Y258999D01*
X171751D01*
X171251Y258500D01*
Y256500D01*
X171751Y256000D01*
X172751D01*
X173251Y256500D01*
X174250Y256000D02*
X175250D01*
X174750D01*
Y258999D01*
X174250Y258500D01*
X178749Y258999D02*
X176749D01*
Y257500D01*
X177749Y258000D01*
X178249D01*
X178749Y257500D01*
Y256500D01*
X178249Y256000D01*
X177249D01*
X176749Y256500D01*
X175751Y268500D02*
X175251Y269000D01*
X174251D01*
X173751Y268500D01*
Y266500D01*
X174251Y266001D01*
X175251D01*
X175751Y266500D01*
X176750Y266001D02*
X177750D01*
X177250D01*
Y269000D01*
X176750Y268500D01*
X180749Y266001D02*
Y269000D01*
X179249Y267500D01*
X181249D01*
X113251Y191000D02*
X112751Y191499D01*
X111751D01*
X111251Y191000D01*
Y189000D01*
X111751Y188500D01*
X112751D01*
X113251Y189000D01*
X114250Y188500D02*
X115250D01*
X114750D01*
Y191499D01*
X114250Y191000D01*
X116749D02*
X117249Y191499D01*
X118249D01*
X118749Y191000D01*
Y190500D01*
X118249Y190000D01*
X117749D01*
X118249D01*
X118749Y189500D01*
Y189000D01*
X118249Y188500D01*
X117249D01*
X116749Y189000D01*
X101551Y225000D02*
X101051Y225500D01*
X100051D01*
X99551Y225000D01*
Y223000D01*
X100051Y222500D01*
X101051D01*
X101551Y223000D01*
X102550Y222500D02*
X103550D01*
X103050D01*
Y225500D01*
X102550Y225000D01*
X107049Y222500D02*
X105049D01*
X107049Y224500D01*
Y225000D01*
X106549Y225500D01*
X105549D01*
X105049Y225000D01*
X126250Y243500D02*
X125751Y244000D01*
X124751D01*
X124251Y243500D01*
Y241500D01*
X124751Y241001D01*
X125751D01*
X126250Y241500D01*
X127250Y241001D02*
X128250D01*
X127750D01*
Y244000D01*
X127250Y243500D01*
X129749Y241001D02*
X130749D01*
X130249D01*
Y244000D01*
X129749Y243500D01*
X108251Y241000D02*
X107751Y241499D01*
X106751D01*
X106251Y241000D01*
Y239000D01*
X106751Y238500D01*
X107751D01*
X108251Y239000D01*
X109250Y238500D02*
X110250D01*
X109750D01*
Y241499D01*
X109250Y241000D01*
X111749D02*
X112249Y241499D01*
X113249D01*
X113749Y241000D01*
Y239000D01*
X113249Y238500D01*
X112249D01*
X111749Y239000D01*
Y241000D01*
X219500Y258500D02*
X219000Y258999D01*
X218001D01*
X217501Y258500D01*
Y256500D01*
X218001Y256000D01*
X219000D01*
X219500Y256500D01*
X220500D02*
X221000Y256000D01*
X221999D01*
X222499Y256500D01*
Y258500D01*
X221999Y258999D01*
X221000D01*
X220500Y258500D01*
Y258000D01*
X221000Y257500D01*
X222499D01*
X209500Y268500D02*
X209000Y269000D01*
X208001D01*
X207501Y268500D01*
Y266500D01*
X208001Y266001D01*
X209000D01*
X209500Y266500D01*
X210500Y268500D02*
X211000Y269000D01*
X211999D01*
X212499Y268500D01*
Y268000D01*
X211999Y267500D01*
X212499Y267000D01*
Y266500D01*
X211999Y266001D01*
X211000D01*
X210500Y266500D01*
Y267000D01*
X211000Y267500D01*
X210500Y268000D01*
Y268500D01*
X211000Y267500D02*
X211999D01*
X334500Y237400D02*
Y243398D01*
X337499D01*
X338499Y242398D01*
Y240399D01*
X337499Y239399D01*
X334500D01*
X336499D02*
X338499Y237400D01*
X340498D02*
X342497D01*
X341498D01*
Y243398D01*
X340498Y242398D01*
X286899Y206700D02*
Y210698D01*
X285899Y211698D01*
X283900D01*
X282900Y210698D01*
Y206700D01*
X283900Y205700D01*
X285899D01*
X284899Y207699D02*
X286899Y205700D01*
X285899D02*
X286899Y206700D01*
X288898Y205700D02*
X290897D01*
X289898D01*
Y211698D01*
X288898Y210698D01*
X612840Y58784D02*
X611840D01*
X612340D01*
Y56284D01*
X611840Y55784D01*
X611341D01*
X610841Y56284D01*
X613840Y58284D02*
X614340Y58784D01*
X615339D01*
X615839Y58284D01*
Y57784D01*
X615339Y57284D01*
X615839Y56784D01*
Y56284D01*
X615339Y55784D01*
X614340D01*
X613840Y56284D01*
Y56784D01*
X614340Y57284D01*
X613840Y57784D01*
Y58284D01*
X614340Y57284D02*
X615339D01*
X279840Y57784D02*
X278840D01*
X279340D01*
Y55284D01*
X278840Y54784D01*
X278341D01*
X277841Y55284D01*
X280840Y57784D02*
X282839D01*
Y57284D01*
X280840Y55284D01*
Y54784D01*
X499840Y58784D02*
X498840D01*
X499340D01*
Y56284D01*
X498840Y55784D01*
X498341D01*
X497841Y56284D01*
X502839Y58784D02*
X501839Y58284D01*
X500840Y57284D01*
Y56284D01*
X501340Y55784D01*
X502339D01*
X502839Y56284D01*
Y56784D01*
X502339Y57284D01*
X500840D01*
X587340Y58784D02*
X586340D01*
X586840D01*
Y56284D01*
X586340Y55784D01*
X585841D01*
X585341Y56284D01*
X590339Y58784D02*
X588340D01*
Y57284D01*
X589339Y57784D01*
X589839D01*
X590339Y57284D01*
Y56284D01*
X589839Y55784D01*
X588840D01*
X588340Y56284D01*
X664448Y214298D02*
X662449D01*
X663448D01*
Y209300D01*
X662449Y208300D01*
X661449D01*
X660449Y209300D01*
X669446Y208300D02*
Y214298D01*
X666447Y211299D01*
X670446D01*
X527840Y58784D02*
X526840D01*
X527340D01*
Y56284D01*
X526840Y55784D01*
X526340D01*
X525841Y56284D01*
X528840Y58284D02*
X529340Y58784D01*
X530339D01*
X530839Y58284D01*
Y57784D01*
X530339Y57284D01*
X529839D01*
X530339D01*
X530839Y56784D01*
Y56284D01*
X530339Y55784D01*
X529340D01*
X528840Y56284D01*
X457340Y58784D02*
X456340D01*
X456840D01*
Y56284D01*
X456340Y55784D01*
X455840D01*
X455341Y56284D01*
X460339Y55784D02*
X458340D01*
X460339Y57784D01*
Y58284D01*
X459839Y58784D01*
X458840D01*
X458340Y58284D01*
X252012Y57784D02*
X251012D01*
X251512D01*
Y55284D01*
X251012Y54784D01*
X250512D01*
X250013Y55284D01*
X253012Y54784D02*
X254011D01*
X253511D01*
Y57784D01*
X253012Y57284D01*
X201000Y92999D02*
X197001D01*
Y90000D01*
X199001D01*
X197001D01*
Y87001D01*
X202999D02*
X204999D01*
X203999D01*
Y92999D01*
X202999Y91999D01*
X586700Y202698D02*
Y196700D01*
X589699D01*
X590699Y197700D01*
Y201698D01*
X589699Y202698D01*
X586700D01*
X592698Y196700D02*
X594697D01*
X593698D01*
Y202698D01*
X592698Y201698D01*
X442000Y169472D02*
X441001Y170472D01*
X439001D01*
X438002Y169472D01*
Y165473D01*
X439001Y164473D01*
X441001D01*
X442000Y165473D01*
X444000Y170472D02*
X447998D01*
Y169472D01*
X444000Y165473D01*
Y164473D01*
X499399Y171098D02*
X498399Y172098D01*
X496400D01*
X495400Y171098D01*
Y167100D01*
X496400Y166100D01*
X498399D01*
X499399Y167100D01*
X505397Y172098D02*
X503397Y171098D01*
X501398Y169099D01*
Y167100D01*
X502398Y166100D01*
X504397D01*
X505397Y167100D01*
Y168099D01*
X504397Y169099D01*
X501398D01*
X654000Y279499D02*
X653001Y280499D01*
X651001D01*
X650002Y279499D01*
Y275501D01*
X651001Y274501D01*
X653001D01*
X654000Y275501D01*
X659998Y280499D02*
X656000D01*
Y277500D01*
X657999Y278500D01*
X658999D01*
X659998Y277500D01*
Y275501D01*
X658999Y274501D01*
X656999D01*
X656000Y275501D01*
X651500Y59499D02*
X650501Y60499D01*
X648501D01*
X647502Y59499D01*
Y55501D01*
X648501Y54501D01*
X650501D01*
X651500Y55501D01*
X656499Y54501D02*
Y60499D01*
X653500Y57500D01*
X657498D01*
X400399Y171098D02*
X399399Y172098D01*
X397400D01*
X396400Y171098D01*
Y167100D01*
X397400Y166100D01*
X399399D01*
X400399Y167100D01*
X402398Y171098D02*
X403398Y172098D01*
X405397D01*
X406397Y171098D01*
Y170099D01*
X405397Y169099D01*
X404397D01*
X405397D01*
X406397Y168099D01*
Y167100D01*
X405397Y166100D01*
X403398D01*
X402398Y167100D01*
X407899Y275598D02*
X406899Y276598D01*
X404900D01*
X403900Y275598D01*
Y271600D01*
X404900Y270600D01*
X406899D01*
X407899Y271600D01*
X413897Y270600D02*
X409898D01*
X413897Y274599D01*
Y275598D01*
X412897Y276598D01*
X410898D01*
X409898Y275598D01*
X337399Y171098D02*
X336399Y172098D01*
X334400D01*
X333400Y171098D01*
Y167100D01*
X334400Y166100D01*
X336399D01*
X337399Y167100D01*
X339398Y166100D02*
X341397D01*
X340398D01*
Y172098D01*
X339398Y171098D01*
D23*
X187374Y167522D02*
D03*
X202826Y167522D02*
D03*
X202526Y119522D02*
D03*
X187074D02*
D03*
D24*
X115298Y210007D02*
D03*
D25*
X129522Y179174D02*
D03*
X129522Y194626D02*
D03*
M02*
