G04*
G04 #@! TF.GenerationSoftware,Altium Limited,Altium Designer,21.1.1 (26)*
G04*
G04 Layer_Physical_Order=1*
G04 Layer_Color=255*
%FSLAX25Y25*%
%MOIN*%
G70*
G04*
G04 #@! TF.SameCoordinates,8D04C4F7-E2C1-42FD-A476-B4637558DBC3*
G04*
G04*
G04 #@! TF.FilePolarity,Positive*
G04*
G01*
G75*
%ADD26R,0.05512X0.02244*%
%ADD27R,0.06693X0.09843*%
%ADD28R,0.04724X0.06496*%
%ADD29R,0.03347X0.03740*%
%ADD30R,0.03150X0.03150*%
%ADD31R,0.09646X0.10039*%
%ADD32R,0.03543X0.03937*%
%ADD33R,0.01968X0.01968*%
%ADD34R,0.03937X0.03543*%
%ADD35R,0.05512X0.05118*%
%ADD36R,0.03740X0.03347*%
%ADD37R,0.10630X0.05118*%
%ADD38R,0.10039X0.09646*%
G04:AMPARAMS|DCode=39|XSize=77.56mil|YSize=23.62mil|CornerRadius=2.95mil|HoleSize=0mil|Usage=FLASHONLY|Rotation=0.000|XOffset=0mil|YOffset=0mil|HoleType=Round|Shape=RoundedRectangle|*
%AMROUNDEDRECTD39*
21,1,0.07756,0.01772,0,0,0.0*
21,1,0.07165,0.02362,0,0,0.0*
1,1,0.00591,0.03583,-0.00886*
1,1,0.00591,-0.03583,-0.00886*
1,1,0.00591,-0.03583,0.00886*
1,1,0.00591,0.03583,0.00886*
%
%ADD39ROUNDEDRECTD39*%
%ADD40R,0.05118X0.07087*%
%ADD41R,0.07087X0.05118*%
%ADD62O,0.15984X0.09016*%
%ADD63R,0.15984X0.09016*%
%ADD67O,0.12000X0.07874*%
%ADD68C,0.07874*%
%ADD80R,0.05512X0.02559*%
%ADD81C,0.02000*%
%ADD82C,0.05000*%
%ADD83C,0.10000*%
%ADD84C,0.08700*%
%ADD85C,0.07087*%
%ADD86C,0.14512*%
%ADD87C,0.04724*%
%ADD88C,0.08445*%
%ADD89R,0.10950X0.10950*%
%ADD90C,0.10950*%
%ADD91O,0.10236X0.15354*%
%ADD92O,0.09843X0.06890*%
%ADD93O,0.03937X0.47244*%
%ADD94C,0.31496*%
%ADD95O,0.12000X0.06000*%
%ADD96C,0.08563*%
%ADD97C,0.04842*%
%ADD98R,0.04842X0.04842*%
%ADD99C,0.03000*%
%ADD100C,0.05000*%
%ADD101C,0.03200*%
G36*
X134500Y230800D02*
Y213500D01*
X106800D01*
X106043Y214257D01*
X106250Y214757D01*
X110200D01*
X111058Y214928D01*
X111786Y215414D01*
X112272Y216142D01*
X112443Y217000D01*
X112272Y217858D01*
X111786Y218586D01*
X111058Y219072D01*
X110200Y219243D01*
X105988D01*
X105950Y219251D01*
X105300Y219121D01*
X104800Y219441D01*
Y220800D01*
X109600Y225600D01*
X117700D01*
X117800Y225700D01*
X125300D01*
X127100Y227500D01*
Y230000D01*
X128286Y231186D01*
X133369D01*
Y231200D01*
X134100D01*
X134500Y230800D01*
D02*
G37*
G36*
X103540Y204579D02*
X108363D01*
Y202021D01*
X103540D01*
X100883Y199363D01*
X91237D01*
Y207237D01*
X100883D01*
X103540Y204579D01*
D02*
G37*
G36*
X121400Y200500D02*
X129500D01*
X137000Y193000D01*
Y181500D01*
X133400Y177900D01*
X103600D01*
X103243Y178257D01*
Y180330D01*
X103314D01*
Y186470D01*
X103314D01*
X103072Y186732D01*
Y193069D01*
X102600D01*
Y198800D01*
X103600Y199800D01*
X104600Y200700D01*
X121200D01*
X121400Y200500D01*
D02*
G37*
G36*
X270000Y185000D02*
X286671D01*
X288026Y184439D01*
X289516Y184243D01*
X296484D01*
X297974Y184439D01*
X298389Y184611D01*
X300000Y183000D01*
Y176000D01*
X299096Y175096D01*
X297974Y175561D01*
X296484Y175757D01*
X289516D01*
X288026Y175561D01*
X286671Y175000D01*
X263647D01*
Y184095D01*
X254554D01*
Y175000D01*
X251000D01*
Y174000D01*
X247000Y170000D01*
X235570D01*
Y170373D01*
X234000D01*
X233849Y170873D01*
X234086Y171032D01*
X234572Y171760D01*
X234743Y172618D01*
X234572Y173477D01*
X234086Y174204D01*
X233413Y174877D01*
X232685Y175364D01*
X231827Y175534D01*
X230968Y175364D01*
X230241Y174877D01*
X229754Y174150D01*
X229584Y173291D01*
X229754Y172433D01*
X230241Y171705D01*
X230914Y171032D01*
X231152Y170873D01*
X231000Y170373D01*
X229627D01*
X229000Y171000D01*
Y185000D01*
X231000Y187000D01*
X268000D01*
X270000Y185000D01*
D02*
G37*
G36*
X216000Y197000D02*
Y194000D01*
X226000Y184000D01*
X227000D01*
Y173000D01*
X225760Y171760D01*
X218844D01*
Y171518D01*
X218415Y171347D01*
Y171347D01*
X206153D01*
X202500Y175000D01*
Y180000D01*
X200000Y182500D01*
X190000D01*
X185000Y187500D01*
Y197500D01*
X187000Y200000D01*
X213000D01*
X216000Y197000D01*
D02*
G37*
G36*
X199951Y175049D02*
Y175000D01*
X200145Y174024D01*
X200698Y173198D01*
X204350Y169545D01*
X205177Y168992D01*
X206153Y168798D01*
X218415D01*
X218887Y168892D01*
X219359Y168980D01*
X219788Y169150D01*
X219802Y169160D01*
X219819Y169163D01*
X219891Y169211D01*
X225760D01*
X225784Y169216D01*
X227000Y168000D01*
Y164000D01*
X225000Y162000D01*
X223539D01*
Y162448D01*
X216414D01*
Y162000D01*
X193393D01*
X190706Y164686D01*
X189979Y165172D01*
X189790Y165210D01*
X189000Y166000D01*
X180000D01*
Y173000D01*
X183000Y176000D01*
X199000D01*
X199951Y175049D01*
D02*
G37*
G36*
X164100Y160300D02*
X164100Y140300D01*
Y89000D01*
X162000Y87000D01*
X115000D01*
X105000Y97000D01*
Y130000D01*
X113000Y138000D01*
X125100D01*
X130000Y142900D01*
X129700Y143200D01*
Y151031D01*
X131295Y152626D01*
X142957D01*
X143923Y152753D01*
X144038Y152800D01*
X152700D01*
X153386Y153486D01*
X153457D01*
X153879Y153114D01*
X153757Y152500D01*
X153928Y151642D01*
X154414Y150914D01*
X155142Y150428D01*
X156000Y150257D01*
X156271D01*
X157129Y150428D01*
X157500Y150676D01*
X160594D01*
X161453Y150847D01*
X162181Y151333D01*
X162362Y151514D01*
X162848Y152242D01*
X163019Y153100D01*
X162848Y153958D01*
X162362Y154686D01*
X161634Y155172D01*
X160776Y155343D01*
X159917Y155172D01*
X159902Y155162D01*
X156690D01*
X155831Y154991D01*
X155231Y154590D01*
X155142Y154572D01*
X154768Y154323D01*
X154300Y154611D01*
Y155889D01*
X154800Y156156D01*
X155142Y155928D01*
X156000Y155757D01*
X156251Y155807D01*
X157898D01*
X158149Y155857D01*
X160776D01*
X161634Y156028D01*
X162362Y156514D01*
X162848Y157242D01*
X163019Y158100D01*
X162848Y158958D01*
X162362Y159686D01*
X161654Y160159D01*
X161647Y160194D01*
X161784Y160657D01*
X162888Y160642D01*
X163147Y160690D01*
X163710D01*
X164100Y160300D01*
D02*
G37*
G36*
X370000Y200000D02*
Y152500D01*
X367500Y150000D01*
X340000D01*
X337500Y152500D01*
Y200000D01*
X340000Y202500D01*
X367500D01*
X370000Y200000D01*
D02*
G37*
G36*
X602500Y165000D02*
Y150000D01*
X597500Y145000D01*
X460000D01*
X457500Y147500D01*
Y165000D01*
X460000Y167500D01*
X600000D01*
X602500Y165000D01*
D02*
G37*
G36*
X230000Y142500D02*
Y120000D01*
X220000Y110000D01*
X187500D01*
X185000Y112500D01*
Y125000D01*
X190000Y130000D01*
X200000D01*
X202500Y132500D01*
Y137500D01*
X207500Y142500D01*
X217500D01*
X218341Y143341D01*
X218615D01*
Y143496D01*
X218844Y143676D01*
X219344Y143641D01*
Y143641D01*
X227256D01*
Y144537D01*
X227756Y144744D01*
X230000Y142500D01*
D02*
G37*
G36*
X216000Y150000D02*
Y149493D01*
X212250D01*
X211392Y149322D01*
X210664Y148836D01*
X210514Y148686D01*
X210028Y147958D01*
X209857Y147100D01*
X210028Y146242D01*
X210490Y145549D01*
X210393Y145117D01*
X210373Y145049D01*
X207500D01*
X206524Y144855D01*
X205698Y144302D01*
X200698Y139302D01*
X200145Y138476D01*
X199951Y137500D01*
Y137000D01*
X180000D01*
X176000Y141000D01*
Y154000D01*
X177000Y155000D01*
X211000D01*
X216000Y150000D01*
D02*
G37*
G36*
X225000Y80000D02*
Y70000D01*
X222500Y67500D01*
X182500D01*
X180000Y70000D01*
Y80000D01*
X182500Y82500D01*
X222500D01*
X225000Y80000D01*
D02*
G37*
%LPC*%
G36*
X195100Y171734D02*
X194242Y171563D01*
X193514Y171077D01*
X193028Y170349D01*
X192857Y169491D01*
X193028Y168632D01*
X193514Y167904D01*
X194391Y167027D01*
X194478Y166592D01*
X194964Y165864D01*
X196414Y164414D01*
X197142Y163928D01*
X198000Y163757D01*
X198858Y163928D01*
X199586Y164414D01*
X200072Y165142D01*
X200243Y166000D01*
X200072Y166858D01*
X199586Y167586D01*
X198709Y168463D01*
X198622Y168899D01*
X198136Y169627D01*
X196686Y171077D01*
X195958Y171563D01*
X195100Y171734D01*
D02*
G37*
G36*
X123600Y133336D02*
X117600D01*
X116504Y133192D01*
X115482Y132769D01*
X114604Y132096D01*
X113931Y131218D01*
X113508Y130196D01*
X113364Y129100D01*
X113508Y128004D01*
X113931Y126982D01*
X114604Y126104D01*
X115482Y125431D01*
X116504Y125008D01*
X117600Y124864D01*
X123600D01*
X124696Y125008D01*
X125718Y125431D01*
X126595Y126104D01*
X127269Y126982D01*
X127692Y128004D01*
X127836Y129100D01*
X127692Y130196D01*
X127269Y131218D01*
X126595Y132096D01*
X125718Y132769D01*
X124696Y133192D01*
X123600Y133336D01*
D02*
G37*
%LPD*%
D26*
X105607Y197395D02*
D03*
Y209206D02*
D03*
D27*
X259100Y177974D02*
D03*
Y162226D02*
D03*
X243700Y177974D02*
D03*
Y162226D02*
D03*
D28*
X231000Y158000D02*
D03*
X219976D02*
D03*
D29*
X203159Y274100D02*
D03*
X198041D02*
D03*
X105559Y183400D02*
D03*
X100441D02*
D03*
X145100Y163400D02*
D03*
X150218D02*
D03*
D30*
X190905Y274100D02*
D03*
X185000D02*
D03*
X94547Y177200D02*
D03*
X100453D02*
D03*
D31*
X195100Y193309D02*
D03*
Y169491D02*
D03*
X194800Y121491D02*
D03*
Y145309D02*
D03*
D32*
X100100Y189900D02*
D03*
X105415D02*
D03*
X202600Y266900D02*
D03*
X197285D02*
D03*
X140685Y64500D02*
D03*
X146000D02*
D03*
X185285Y266900D02*
D03*
X190600D02*
D03*
X105957Y217000D02*
D03*
X100643D02*
D03*
D33*
X115300Y207434D02*
D03*
Y199166D02*
D03*
D34*
X143000Y156400D02*
D03*
Y151085D02*
D03*
X150400Y151143D02*
D03*
Y156457D02*
D03*
X136100Y156358D02*
D03*
Y151042D02*
D03*
X130200Y228842D02*
D03*
Y234157D02*
D03*
D35*
X222800Y168001D02*
D03*
Y174300D02*
D03*
X223300Y141101D02*
D03*
Y147400D02*
D03*
D36*
X232500Y172618D02*
D03*
Y167500D02*
D03*
D37*
X211900Y178612D02*
D03*
Y167588D02*
D03*
X212100Y147100D02*
D03*
Y136076D02*
D03*
D38*
X131491Y186900D02*
D03*
X155309D02*
D03*
D39*
X180224Y168100D02*
D03*
Y163100D02*
D03*
Y158100D02*
D03*
Y153100D02*
D03*
X160776D02*
D03*
Y158100D02*
D03*
Y163100D02*
D03*
Y168100D02*
D03*
D40*
X153000Y73000D02*
D03*
X141583D02*
D03*
X193417Y257000D02*
D03*
X182000D02*
D03*
X213000D02*
D03*
X201583D02*
D03*
D41*
X122000Y233300D02*
D03*
Y221883D02*
D03*
D62*
X293000Y170000D02*
D03*
Y190000D02*
D03*
Y180000D02*
D03*
D63*
Y150000D02*
D03*
D67*
X593000Y159894D02*
D03*
Y180000D02*
D03*
D68*
X464000Y96472D02*
D03*
Y155528D02*
D03*
X515000Y96472D02*
D03*
Y155528D02*
D03*
X416000Y96472D02*
D03*
Y155528D02*
D03*
X412866Y223000D02*
D03*
X521134D02*
D03*
X353000Y96472D02*
D03*
Y155528D02*
D03*
D80*
X105607Y203300D02*
D03*
D81*
X184677Y273777D02*
X188844Y269609D01*
X89000Y124500D02*
Y127500D01*
X90600Y129100D01*
X74500Y113500D02*
X85500Y124500D01*
X89000D01*
X99828Y189900D02*
X100071D01*
X150218Y163400D02*
X150309Y163309D01*
Y156548D02*
X150400Y156457D01*
X150309Y156548D02*
Y163309D01*
X188950Y158050D02*
X189000Y158000D01*
X182921Y158100D02*
X182971Y158050D01*
X188950D01*
X180224Y158100D02*
X182921D01*
X201583Y249831D02*
Y257000D01*
X193394Y241642D02*
X201583Y249831D01*
X193417Y257000D02*
X201583D01*
X194976Y262986D02*
X196629Y264639D01*
X193417Y257000D02*
X194976Y258559D01*
Y262986D01*
X196629Y264639D02*
Y266244D01*
X197285Y266900D01*
X191372Y266000D02*
X192246D01*
X193417Y257000D02*
Y264828D01*
X192246Y266000D02*
X193417Y264828D01*
X190600Y266772D02*
X191372Y266000D01*
X190600Y266772D02*
Y266900D01*
X184000Y274453D02*
X184677Y273777D01*
X188844Y268853D02*
X190600Y267097D01*
Y266900D02*
Y267097D01*
X184000Y274453D02*
Y275000D01*
X188844Y268853D02*
Y269609D01*
X184000Y275000D02*
X184100D01*
X185000Y274100D01*
X92654Y159100D02*
X104314Y170760D01*
X137740D02*
X144230Y164270D01*
X104314Y170760D02*
X137740D01*
X156271Y152500D02*
X156690Y152919D01*
X160594D02*
X160776Y153100D01*
X156690Y152919D02*
X160594D01*
X156000Y152500D02*
X156271D01*
X157948Y158100D02*
X160776D01*
X156050Y158050D02*
X157898D01*
X157948Y158100D01*
X156000Y158000D02*
X156050Y158050D01*
X196550Y167450D02*
X198000Y166000D01*
X195100Y169491D02*
X196550Y168041D01*
Y167450D02*
Y168041D01*
X105950Y217007D02*
X105957Y217000D01*
X110200D01*
X212250Y147250D02*
X223150D01*
X223300Y147400D01*
X212100Y147100D02*
X212250Y147250D01*
X231827Y173291D02*
X232500Y172618D01*
X189120Y163100D02*
X194220Y158000D01*
X180224Y163100D02*
X189120D01*
X194220Y158000D02*
X219976D01*
X243700Y162226D02*
X259100D01*
X244770Y152230D02*
X245000Y152000D01*
X236492Y158639D02*
X242901Y152230D01*
X232697Y167500D02*
X236492Y163705D01*
Y158639D02*
Y163705D01*
X242901Y152230D02*
X244770D01*
X232303Y167500D02*
X232697D01*
X269089Y169414D02*
X269675Y170000D01*
X270000D01*
X260272Y169414D02*
X269089D01*
X259100Y170586D02*
X260272Y169414D01*
X259100Y170586D02*
Y177974D01*
X274000Y190000D02*
X293000D01*
X231000Y158000D02*
Y166197D01*
X232303Y167500D01*
X184388Y265932D02*
X184513D01*
X185285Y266703D02*
Y266900D01*
X182000Y257000D02*
Y263543D01*
X184388Y265932D01*
X184513D02*
X185285Y266703D01*
X202511Y267500D02*
X202880Y267868D01*
Y273820D02*
X203159Y274100D01*
X202500Y267500D02*
X202511D01*
X202880Y267868D02*
Y273820D01*
X202600Y266900D02*
Y267400D01*
X202500Y267500D02*
X202600Y267400D01*
Y266703D02*
X206803Y262500D01*
X208484D01*
X202600Y266703D02*
Y266900D01*
X208484Y262500D02*
X213000Y257984D01*
Y257000D02*
Y257984D01*
X203395Y241642D02*
X213000Y251248D01*
Y257000D01*
X182000Y248000D02*
X182936Y247064D01*
X182000Y248000D02*
Y257000D01*
X182936Y242101D02*
X183395Y241642D01*
X182936Y242101D02*
Y247064D01*
X190905Y274100D02*
X198041D01*
X122429Y233729D02*
X129771D01*
X122000Y233300D02*
X122429Y233729D01*
X129771D02*
X130200Y234157D01*
X100358Y217285D02*
X100412Y217339D01*
X101500Y226700D02*
Y227500D01*
X101600Y227600D02*
X109000Y235000D01*
X101500Y227500D02*
X101600Y227600D01*
X100643Y217000D02*
Y225842D01*
X101500Y226700D01*
X155409Y187000D02*
X162500D01*
X155309Y186900D02*
X155409Y187000D01*
X90000Y177200D02*
X94547D01*
X116900Y235000D02*
X117041Y234859D01*
X120441D02*
X122000Y233300D01*
X117041Y234859D02*
X120441D01*
X109000Y235000D02*
X116900D01*
X105607Y209206D02*
X113528D01*
X115300Y207434D01*
X100453Y177200D02*
X101000Y177747D01*
Y182841D01*
X100441Y183400D02*
X101000Y182841D01*
X100441Y183203D02*
Y183400D01*
X101147Y212032D02*
Y216495D01*
X103973Y209206D02*
X105607D01*
X100643Y217000D02*
X101147Y216495D01*
Y212032D02*
X103973Y209206D01*
X146000Y64500D02*
X151500D01*
X153000Y73000D02*
X159500D01*
X150218Y163400D02*
X157903D01*
X76500Y155500D02*
X80100Y159100D01*
X76500Y133300D02*
X80700Y129100D01*
X76500Y133300D02*
Y155500D01*
X80100Y159100D02*
X92654D01*
X80700Y129100D02*
X90600D01*
X160437Y162919D02*
X162918Y162885D01*
X160437Y162919D02*
X160776Y163100D01*
X144230Y164270D02*
X144427D01*
X145100Y163400D02*
Y163597D01*
X144427Y164270D02*
X145100Y163597D01*
X130200Y234157D02*
X130397D01*
X133000Y73000D02*
X141583D01*
X141134Y64949D02*
Y72551D01*
X140685Y64500D02*
X141134Y64949D01*
Y72551D02*
X141583Y73000D01*
D82*
X67000Y189500D02*
Y213000D01*
X105351Y196076D02*
X105607Y196332D01*
X89994Y196076D02*
X105351D01*
X83418Y189500D02*
X89994Y196076D01*
X67000Y189500D02*
X83418D01*
X105607Y196332D02*
Y197395D01*
X293000Y170000D02*
X305000D01*
X136100Y156358D02*
X136500Y156757D01*
Y164500D01*
X155700Y168100D02*
X160776D01*
X136100Y156358D02*
X142957D01*
X143000Y156400D01*
X118692Y145300D02*
X129749Y156358D01*
X99500Y145300D02*
X118692D01*
X129749Y156358D02*
X136100D01*
X93329Y139100D02*
X99500Y145271D01*
Y145300D01*
X90600Y139100D02*
X93329D01*
D83*
X541000Y87500D02*
X620000D01*
X500000Y46500D02*
X541000Y87500D01*
X270000Y150000D02*
X293000D01*
X215000Y95000D02*
X270000Y150000D01*
X215000Y75500D02*
Y95000D01*
X214000Y74500D02*
X215000Y75500D01*
X424000Y80000D02*
X457500Y46500D01*
X372500Y80000D02*
X424000D01*
X356028Y96472D02*
X372500Y80000D01*
X353000Y96472D02*
X353000Y96472D01*
X356028D01*
X645885Y113385D02*
Y143385D01*
X620000Y87500D02*
X645885Y113385D01*
X680368Y178718D02*
X680549Y178900D01*
X645885Y143385D02*
X680368Y177867D01*
Y178718D01*
X500000Y26500D02*
Y46500D01*
X457500Y26500D02*
Y46500D01*
X353000Y96472D02*
Y127000D01*
X305000Y170000D02*
X310000D01*
X353000Y127000D01*
D84*
X124500Y70000D02*
D03*
X98500Y70500D02*
D03*
X201500Y19000D02*
D03*
X631500Y70000D02*
D03*
X588500Y69500D02*
D03*
X525500Y71000D02*
D03*
X302500Y265500D02*
D03*
X67000Y189500D02*
D03*
Y235500D02*
D03*
Y213000D02*
D03*
X92500Y255500D02*
D03*
X92000Y236500D02*
D03*
X184500Y100500D02*
D03*
X74500Y113500D02*
D03*
X263500Y280500D02*
D03*
X230000Y279500D02*
D03*
X247500Y280000D02*
D03*
X561500Y178500D02*
D03*
X156000Y204500D02*
D03*
X220000Y205500D02*
D03*
D85*
X214000Y44500D02*
D03*
X194000D02*
D03*
Y74500D02*
D03*
X214000D02*
D03*
D86*
X606000Y120000D02*
D03*
Y220000D02*
D03*
X278500Y120200D02*
D03*
Y220200D02*
D03*
D87*
X352000Y199158D02*
D03*
Y218843D02*
D03*
D88*
X613000Y26500D02*
D03*
Y46500D02*
D03*
X280500Y26500D02*
D03*
Y46500D02*
D03*
X500000D02*
D03*
Y26500D02*
D03*
X587500Y46500D02*
D03*
Y26500D02*
D03*
X528000Y46500D02*
D03*
Y26500D02*
D03*
X457500Y46500D02*
D03*
Y26500D02*
D03*
X252500Y46500D02*
D03*
Y26500D02*
D03*
D89*
X680549Y135100D02*
D03*
D90*
Y178900D02*
D03*
D91*
X723685Y257000D02*
D03*
X684315D02*
D03*
X723685Y57000D02*
D03*
X684315D02*
D03*
D92*
X70500Y80000D02*
D03*
Y70000D02*
D03*
D93*
X170000Y160000D02*
D03*
D94*
X407000Y299000D02*
D03*
X70200Y23000D02*
D03*
Y299000D02*
D03*
X765000Y23000D02*
D03*
Y299000D02*
D03*
X407000Y23000D02*
D03*
D95*
X120600Y159100D02*
D03*
Y129100D02*
D03*
X90600D02*
D03*
Y139100D02*
D03*
Y149100D02*
D03*
Y159100D02*
D03*
D96*
X156200Y25200D02*
D03*
Y45200D02*
D03*
X130200Y25200D02*
D03*
Y45200D02*
D03*
X105200Y25200D02*
D03*
Y45200D02*
D03*
D97*
X193394Y241642D02*
D03*
X203395D02*
D03*
X183395D02*
D03*
X153394D02*
D03*
D98*
X143394D02*
D03*
D99*
X224787Y185000D02*
D03*
Y181000D02*
D03*
X191000Y115000D02*
D03*
X197000D02*
D03*
X210000D02*
D03*
X205000D02*
D03*
X209000Y129000D02*
D03*
X179000Y144000D02*
D03*
X99828Y189900D02*
D03*
X202000Y165000D02*
D03*
X189000Y158000D02*
D03*
X90000Y203000D02*
D03*
X156000Y152500D02*
D03*
Y158000D02*
D03*
X206000Y165000D02*
D03*
X200787Y198000D02*
D03*
X208000Y197000D02*
D03*
Y192000D02*
D03*
X213000D02*
D03*
X214000Y185000D02*
D03*
X213000Y197000D02*
D03*
X208000Y185000D02*
D03*
X190000Y198000D02*
D03*
X179000Y148000D02*
D03*
X110200Y217000D02*
D03*
X179000Y152000D02*
D03*
X283000Y177000D02*
D03*
Y184000D02*
D03*
X247000Y186000D02*
D03*
X240000D02*
D03*
X233000Y178000D02*
D03*
X224000Y135000D02*
D03*
X215000Y129000D02*
D03*
X156000Y148000D02*
D03*
X220000Y115000D02*
D03*
X215000D02*
D03*
X162500Y187000D02*
D03*
X90000Y177200D02*
D03*
X121900Y216400D02*
D03*
X130600Y224200D02*
D03*
X142500Y144100D02*
D03*
X136000D02*
D03*
X155700Y168100D02*
D03*
X133000Y73000D02*
D03*
D100*
X156000Y143000D02*
D03*
X160000Y135000D02*
D03*
X156000Y127000D02*
D03*
X160000Y119000D02*
D03*
X156000Y111000D02*
D03*
X160000Y103000D02*
D03*
X156000Y95000D02*
D03*
X148000Y143000D02*
D03*
X152000Y135000D02*
D03*
X148000Y127000D02*
D03*
X152000Y119000D02*
D03*
X148000Y111000D02*
D03*
X152000Y103000D02*
D03*
X148000Y95000D02*
D03*
X144000Y135000D02*
D03*
X140000Y127000D02*
D03*
X144000Y119000D02*
D03*
X140000Y111000D02*
D03*
X144000Y103000D02*
D03*
X140000Y95000D02*
D03*
X136000Y135000D02*
D03*
X132000Y127000D02*
D03*
X136000Y119000D02*
D03*
X132000Y111000D02*
D03*
X136000Y103000D02*
D03*
X128000Y135000D02*
D03*
Y119000D02*
D03*
X120000D02*
D03*
X108000Y127000D02*
D03*
D101*
X122563Y184563D02*
D03*
Y189562D02*
D03*
X500000Y47500D02*
D03*
X245000Y152000D02*
D03*
X270000Y170000D02*
D03*
X274000Y190000D02*
D03*
X103500Y229500D02*
D03*
X101600Y227600D02*
D03*
X151500Y64500D02*
D03*
X159500Y73000D02*
D03*
X136500Y164500D02*
D03*
M02*
