G04*
G04 #@! TF.GenerationSoftware,Altium Limited,Altium Designer,21.1.1 (26)*
G04*
G04 Layer_Physical_Order=3*
G04 Layer_Color=16440176*
%FSLAX25Y25*%
%MOIN*%
G70*
G04*
G04 #@! TF.SameCoordinates,8D04C4F7-E2C1-42FD-A476-B4637558DBC3*
G04*
G04*
G04 #@! TF.FilePolarity,Positive*
G04*
G01*
G75*
%ADD82C,0.05000*%
%ADD84C,0.08700*%
%ADD92O,0.09843X0.06890*%
%ADD96C,0.08563*%
%ADD97C,0.04842*%
%ADD98R,0.04842X0.04842*%
%ADD99C,0.03000*%
%ADD101C,0.03200*%
G36*
X164500Y272500D02*
Y250000D01*
X157285Y242786D01*
X156803Y242915D01*
X156769Y243040D01*
X156292Y243866D01*
X155618Y244540D01*
X154792Y245017D01*
X153871Y245264D01*
X152918D01*
X151997Y245017D01*
X151171Y244540D01*
X150497Y243866D01*
X150020Y243040D01*
X149773Y242119D01*
Y241166D01*
X150020Y240245D01*
X150497Y239419D01*
X151171Y238745D01*
X151997Y238268D01*
X152122Y238234D01*
X152252Y237752D01*
X145500Y231000D01*
Y146019D01*
X145175Y145727D01*
X144660Y145758D01*
X144158Y146260D01*
X143542Y146616D01*
X142856Y146800D01*
X142145D01*
X141458Y146616D01*
X140842Y146260D01*
X140340Y145758D01*
X139984Y145142D01*
X139800Y144456D01*
Y143745D01*
X139984Y143058D01*
X140340Y142442D01*
X140842Y141939D01*
X141458Y141584D01*
X142145Y141400D01*
X142856D01*
X143542Y141584D01*
X143966Y141829D01*
X144528Y141663D01*
X144552Y141572D01*
X145039Y140728D01*
X145500Y140267D01*
Y138946D01*
X145000Y138563D01*
X144487Y138700D01*
X143513D01*
X142572Y138448D01*
X141728Y137961D01*
X141039Y137272D01*
X140552Y136428D01*
X140300Y135487D01*
Y134513D01*
X140552Y133572D01*
X141039Y132728D01*
X141728Y132039D01*
X142572Y131552D01*
X143513Y131300D01*
X144487D01*
X145000Y131437D01*
X145500Y131054D01*
Y129733D01*
X145039Y129272D01*
X144552Y128428D01*
X144300Y127487D01*
Y126513D01*
X144552Y125572D01*
X145039Y124728D01*
X145500Y124267D01*
Y122946D01*
X145000Y122563D01*
X144487Y122700D01*
X143513D01*
X142572Y122448D01*
X141728Y121961D01*
X141039Y121272D01*
X140552Y120428D01*
X140300Y119487D01*
Y118513D01*
X140552Y117572D01*
X141039Y116728D01*
X141728Y116039D01*
X142572Y115552D01*
X143513Y115300D01*
X144487D01*
X145000Y115437D01*
X145500Y115054D01*
Y113733D01*
X145039Y113272D01*
X144552Y112428D01*
X144300Y111487D01*
Y110513D01*
X144552Y109572D01*
X145039Y108728D01*
X145500Y108267D01*
Y106946D01*
X145000Y106563D01*
X144487Y106700D01*
X143513D01*
X142572Y106448D01*
X141728Y105961D01*
X141039Y105272D01*
X140552Y104428D01*
X140300Y103487D01*
Y102513D01*
X140552Y101572D01*
X141039Y100728D01*
X141728Y100039D01*
X142572Y99552D01*
X143513Y99300D01*
X144487D01*
X145000Y99437D01*
X145500Y99054D01*
Y97733D01*
X145039Y97272D01*
X144552Y96428D01*
X144300Y95487D01*
Y94513D01*
X144552Y93572D01*
X145039Y92728D01*
X145500Y92267D01*
Y10500D01*
X138500Y3500D01*
X124000D01*
X117458Y10042D01*
X117500Y10254D01*
Y10423D01*
X117507Y10458D01*
Y10539D01*
X117549Y10751D01*
Y66694D01*
X117516Y66859D01*
X117527Y67027D01*
X117420Y67343D01*
X117355Y67670D01*
X117262Y67809D01*
X117208Y67969D01*
X117000Y68328D01*
Y71672D01*
X117208Y72031D01*
X117262Y72190D01*
X117355Y72330D01*
X117420Y72657D01*
X117527Y72973D01*
X117516Y73141D01*
X117549Y73306D01*
Y91749D01*
X117500Y91995D01*
Y92246D01*
X117454Y92478D01*
X117454Y92478D01*
Y92478D01*
X117358Y92710D01*
X117355Y92724D01*
X117347Y92737D01*
X117180Y93139D01*
X117177Y93153D01*
X117169Y93165D01*
X117073Y93397D01*
X116942Y93594D01*
X116764Y93771D01*
X116625Y93980D01*
X108980Y101625D01*
X108873Y101696D01*
X108767Y101802D01*
X108665Y101870D01*
X108594Y101942D01*
X108487Y102013D01*
X107000Y103500D01*
X65000D01*
X47000Y121500D01*
Y266500D01*
X61500Y281000D01*
X156000D01*
X164500Y272500D01*
D02*
G37*
G36*
X107070Y99894D02*
X107177Y99822D01*
X114822Y92177D01*
X114954Y91981D01*
X115000Y91749D01*
Y73306D01*
X114328Y72142D01*
X113950Y70731D01*
Y69269D01*
X114328Y67858D01*
X115000Y66694D01*
Y10751D01*
X114958Y10539D01*
Y10458D01*
X108000Y3500D01*
X56500D01*
X50000Y10000D01*
Y92500D01*
X57500Y100000D01*
X106965D01*
X107070Y99894D01*
D02*
G37*
%LPC*%
G36*
X67731Y241050D02*
X66269D01*
X64858Y240672D01*
X63592Y239941D01*
X62559Y238908D01*
X61828Y237642D01*
X61450Y236231D01*
Y234769D01*
X61828Y233358D01*
X62559Y232092D01*
X63592Y231059D01*
X64858Y230328D01*
X66269Y229950D01*
X67731D01*
X69142Y230328D01*
X70408Y231059D01*
X71441Y232092D01*
X72172Y233358D01*
X72550Y234769D01*
Y236231D01*
X72172Y237642D01*
X71441Y238908D01*
X70408Y239941D01*
X69142Y240672D01*
X67731Y241050D01*
D02*
G37*
G36*
X130956Y226900D02*
X130245D01*
X129558Y226716D01*
X128942Y226361D01*
X128439Y225858D01*
X128084Y225242D01*
X127900Y224555D01*
Y223845D01*
X128084Y223158D01*
X128439Y222542D01*
X128942Y222040D01*
X129558Y221684D01*
X130245Y221500D01*
X130956D01*
X131642Y221684D01*
X132258Y222040D01*
X132761Y222542D01*
X133116Y223158D01*
X133300Y223845D01*
Y224555D01*
X133116Y225242D01*
X132761Y225858D01*
X132258Y226361D01*
X131642Y226716D01*
X130956Y226900D01*
D02*
G37*
G36*
X110556Y219700D02*
X109845D01*
X109158Y219516D01*
X108542Y219161D01*
X108039Y218658D01*
X107684Y218042D01*
X107500Y217355D01*
Y216645D01*
X107684Y215958D01*
X108039Y215342D01*
X108542Y214840D01*
X109158Y214484D01*
X109845Y214300D01*
X110556D01*
X111242Y214484D01*
X111858Y214840D01*
X112361Y215342D01*
X112716Y215958D01*
X112900Y216645D01*
Y217355D01*
X112716Y218042D01*
X112361Y218658D01*
X111858Y219161D01*
X111242Y219516D01*
X110556Y219700D01*
D02*
G37*
G36*
X122256Y219100D02*
X121545D01*
X120858Y218916D01*
X120242Y218561D01*
X119739Y218058D01*
X119384Y217442D01*
X119200Y216756D01*
Y216044D01*
X119384Y215358D01*
X119739Y214742D01*
X120242Y214240D01*
X120858Y213884D01*
X121545Y213700D01*
X122256D01*
X122942Y213884D01*
X123558Y214240D01*
X124060Y214742D01*
X124416Y215358D01*
X124600Y216044D01*
Y216756D01*
X124416Y217442D01*
X124060Y218058D01*
X123558Y218561D01*
X122942Y218916D01*
X122256Y219100D01*
D02*
G37*
G36*
X67731Y218550D02*
X66269D01*
X64858Y218172D01*
X63592Y217441D01*
X62559Y216408D01*
X61828Y215142D01*
X61450Y213731D01*
Y212269D01*
X61828Y210858D01*
X62559Y209592D01*
X63592Y208559D01*
X64858Y207828D01*
X66269Y207450D01*
X67731D01*
X69142Y207828D01*
X70408Y208559D01*
X71441Y209592D01*
X72172Y210858D01*
X72550Y212269D01*
Y213731D01*
X72172Y215142D01*
X71441Y216408D01*
X70408Y217441D01*
X69142Y218172D01*
X67731Y218550D01*
D02*
G37*
G36*
X90355Y205700D02*
X89644D01*
X88958Y205516D01*
X88342Y205160D01*
X87840Y204658D01*
X87484Y204042D01*
X87300Y203356D01*
Y202644D01*
X87484Y201958D01*
X87840Y201342D01*
X88342Y200839D01*
X88958Y200484D01*
X89644Y200300D01*
X90355D01*
X91042Y200484D01*
X91658Y200839D01*
X92160Y201342D01*
X92516Y201958D01*
X92700Y202644D01*
Y203356D01*
X92516Y204042D01*
X92160Y204658D01*
X91658Y205160D01*
X91042Y205516D01*
X90355Y205700D01*
D02*
G37*
G36*
X100184Y192600D02*
X99473D01*
X98786Y192416D01*
X98171Y192060D01*
X97668Y191558D01*
X97312Y190942D01*
X97128Y190255D01*
Y189544D01*
X97312Y188858D01*
X97668Y188242D01*
X98171Y187740D01*
X98786Y187384D01*
X99473Y187200D01*
X100184D01*
X100871Y187384D01*
X101486Y187740D01*
X101989Y188242D01*
X102344Y188858D01*
X102528Y189544D01*
Y190255D01*
X102344Y190942D01*
X101989Y191558D01*
X101486Y192060D01*
X100871Y192416D01*
X100184Y192600D01*
D02*
G37*
G36*
X67731Y195050D02*
X66269D01*
X64858Y194672D01*
X63592Y193941D01*
X62559Y192908D01*
X61828Y191642D01*
X61450Y190231D01*
Y188769D01*
X61828Y187358D01*
X62559Y186092D01*
X63592Y185059D01*
X64858Y184328D01*
X66269Y183950D01*
X67731D01*
X69142Y184328D01*
X70408Y185059D01*
X71441Y186092D01*
X72172Y187358D01*
X72550Y188769D01*
Y190231D01*
X72172Y191642D01*
X71441Y192908D01*
X70408Y193941D01*
X69142Y194672D01*
X67731Y195050D01*
D02*
G37*
G36*
X122931Y192362D02*
X122194D01*
X121482Y192172D01*
X120843Y191803D01*
X120322Y191282D01*
X119953Y190643D01*
X119763Y189931D01*
Y189194D01*
X119953Y188482D01*
X120322Y187843D01*
X120806Y187359D01*
X120860Y187188D01*
Y186937D01*
X120806Y186766D01*
X120322Y186282D01*
X119953Y185643D01*
X119763Y184931D01*
Y184194D01*
X119953Y183482D01*
X120322Y182843D01*
X120843Y182322D01*
X121482Y181953D01*
X122194Y181763D01*
X122931D01*
X123643Y181953D01*
X124282Y182322D01*
X124803Y182843D01*
X125172Y183482D01*
X125363Y184194D01*
Y184931D01*
X125172Y185643D01*
X124803Y186282D01*
X124319Y186766D01*
X124265Y186937D01*
Y187188D01*
X124319Y187359D01*
X124803Y187843D01*
X125172Y188482D01*
X125363Y189194D01*
Y189931D01*
X125172Y190643D01*
X124803Y191282D01*
X124282Y191803D01*
X123643Y192172D01*
X122931Y192362D01*
D02*
G37*
G36*
X90355Y179900D02*
X89644D01*
X88958Y179716D01*
X88342Y179360D01*
X87840Y178858D01*
X87484Y178242D01*
X87300Y177556D01*
Y176845D01*
X87484Y176158D01*
X87840Y175542D01*
X88342Y175040D01*
X88958Y174684D01*
X89644Y174500D01*
X90355D01*
X91042Y174684D01*
X91658Y175040D01*
X92160Y175542D01*
X92516Y176158D01*
X92700Y176845D01*
Y177556D01*
X92516Y178242D01*
X92160Y178858D01*
X91658Y179360D01*
X91042Y179716D01*
X90355Y179900D01*
D02*
G37*
G36*
X136869Y167300D02*
X136131D01*
X135419Y167109D01*
X134781Y166741D01*
X134259Y166219D01*
X133891Y165581D01*
X133700Y164869D01*
Y164131D01*
X133891Y163419D01*
X134259Y162781D01*
X134781Y162259D01*
X135419Y161891D01*
X136131Y161700D01*
X136869D01*
X137581Y161891D01*
X138219Y162259D01*
X138741Y162781D01*
X139109Y163419D01*
X139300Y164131D01*
Y164869D01*
X139109Y165581D01*
X138741Y166219D01*
X138219Y166741D01*
X137581Y167109D01*
X136869Y167300D01*
D02*
G37*
G36*
X123600Y163336D02*
X117600D01*
X116504Y163192D01*
X115482Y162769D01*
X114604Y162095D01*
X113931Y161218D01*
X113508Y160196D01*
X113364Y159100D01*
X113508Y158004D01*
X113931Y156982D01*
X114604Y156105D01*
X115482Y155431D01*
X116504Y155008D01*
X117600Y154864D01*
X123600D01*
X124696Y155008D01*
X125718Y155431D01*
X126595Y156105D01*
X127269Y156982D01*
X127692Y158004D01*
X127836Y159100D01*
X127692Y160196D01*
X127269Y161218D01*
X126595Y162095D01*
X125718Y162769D01*
X124696Y163192D01*
X123600Y163336D01*
D02*
G37*
G36*
X93600D02*
X87600D01*
X86504Y163192D01*
X85482Y162769D01*
X84605Y162095D01*
X83931Y161218D01*
X83508Y160196D01*
X83364Y159100D01*
X83508Y158004D01*
X83931Y156982D01*
X84605Y156105D01*
X85482Y155431D01*
X86504Y155008D01*
X87600Y154864D01*
X93600D01*
X94696Y155008D01*
X95718Y155431D01*
X96596Y156105D01*
X97269Y156982D01*
X97692Y158004D01*
X97836Y159100D01*
X97692Y160196D01*
X97269Y161218D01*
X96596Y162095D01*
X95718Y162769D01*
X94696Y163192D01*
X93600Y163336D01*
D02*
G37*
G36*
Y153336D02*
X87600D01*
X86504Y153192D01*
X85482Y152769D01*
X84605Y152095D01*
X83931Y151218D01*
X83508Y150196D01*
X83364Y149100D01*
X83508Y148004D01*
X83931Y146982D01*
X84605Y146105D01*
X85482Y145431D01*
X86504Y145008D01*
X87600Y144864D01*
X93600D01*
X94696Y145008D01*
X95718Y145431D01*
X96596Y146105D01*
X97269Y146982D01*
X97692Y148004D01*
X97836Y149100D01*
X97692Y150196D01*
X97269Y151218D01*
X96596Y152095D01*
X95718Y152769D01*
X94696Y153192D01*
X93600Y153336D01*
D02*
G37*
G36*
X136355Y146800D02*
X135644D01*
X134958Y146616D01*
X134342Y146260D01*
X133839Y145758D01*
X133484Y145142D01*
X133300Y144456D01*
Y143745D01*
X133484Y143058D01*
X133839Y142442D01*
X134342Y141939D01*
X134958Y141584D01*
X135644Y141400D01*
X136355D01*
X137042Y141584D01*
X137658Y141939D01*
X138161Y142442D01*
X138516Y143058D01*
X138700Y143745D01*
Y144456D01*
X138516Y145142D01*
X138161Y145758D01*
X137658Y146260D01*
X137042Y146616D01*
X136355Y146800D01*
D02*
G37*
G36*
X93600Y143336D02*
X87600D01*
X86504Y143192D01*
X85482Y142769D01*
X84605Y142095D01*
X83931Y141218D01*
X83508Y140196D01*
X83364Y139100D01*
X83508Y138004D01*
X83931Y136982D01*
X84605Y136105D01*
X85482Y135431D01*
X86504Y135008D01*
X87600Y134864D01*
X93600D01*
X94696Y135008D01*
X95718Y135431D01*
X96596Y136105D01*
X97269Y136982D01*
X97692Y138004D01*
X97836Y139100D01*
X97692Y140196D01*
X97269Y141218D01*
X96596Y142095D01*
X95718Y142769D01*
X94696Y143192D01*
X93600Y143336D01*
D02*
G37*
G36*
X128487Y138700D02*
X127513D01*
X126572Y138448D01*
X125728Y137961D01*
X125039Y137272D01*
X124552Y136428D01*
X124300Y135487D01*
Y134513D01*
X124512Y133721D01*
X124282Y133363D01*
X124153Y133263D01*
X123600Y133336D01*
X117600D01*
X116504Y133192D01*
X115482Y132769D01*
X114604Y132096D01*
X113931Y131218D01*
X113508Y130196D01*
X113364Y129100D01*
X113508Y128004D01*
X113931Y126982D01*
X114604Y126104D01*
X115482Y125431D01*
X116504Y125008D01*
X117600Y124864D01*
X123600D01*
X124696Y125008D01*
X125718Y125431D01*
X126595Y126104D01*
X127269Y126982D01*
X127692Y128004D01*
X127836Y129100D01*
X127692Y130196D01*
X127432Y130823D01*
X127436Y130848D01*
X127776Y131300D01*
X128487D01*
X129428Y131552D01*
X130272Y132039D01*
X130961Y132728D01*
X131448Y133572D01*
X131700Y134513D01*
Y135487D01*
X131448Y136428D01*
X130961Y137272D01*
X130272Y137961D01*
X129428Y138448D01*
X128487Y138700D01*
D02*
G37*
G36*
X136487D02*
X135513D01*
X134572Y138448D01*
X133728Y137961D01*
X133039Y137272D01*
X132552Y136428D01*
X132300Y135487D01*
Y134513D01*
X132552Y133572D01*
X133039Y132728D01*
X133728Y132039D01*
X134572Y131552D01*
X135513Y131300D01*
X136487D01*
X137428Y131552D01*
X138272Y132039D01*
X138961Y132728D01*
X139448Y133572D01*
X139700Y134513D01*
Y135487D01*
X139448Y136428D01*
X138961Y137272D01*
X138272Y137961D01*
X137428Y138448D01*
X136487Y138700D01*
D02*
G37*
G36*
X93600Y133336D02*
X87600D01*
X86504Y133192D01*
X85482Y132769D01*
X84605Y132096D01*
X83931Y131218D01*
X83508Y130196D01*
X83364Y129100D01*
X83508Y128004D01*
X83931Y126982D01*
X84605Y126104D01*
X85482Y125431D01*
X86504Y125008D01*
X87600Y124864D01*
X93600D01*
X94696Y125008D01*
X95718Y125431D01*
X96596Y126104D01*
X97269Y126982D01*
X97692Y128004D01*
X97836Y129100D01*
X97692Y130196D01*
X97269Y131218D01*
X96596Y132096D01*
X95718Y132769D01*
X94696Y133192D01*
X93600Y133336D01*
D02*
G37*
G36*
X140487Y130700D02*
X139513D01*
X138572Y130448D01*
X137728Y129961D01*
X137039Y129272D01*
X136552Y128428D01*
X136300Y127487D01*
Y126513D01*
X136552Y125572D01*
X137039Y124728D01*
X137728Y124039D01*
X138572Y123552D01*
X139513Y123300D01*
X140487D01*
X141428Y123552D01*
X142272Y124039D01*
X142961Y124728D01*
X143448Y125572D01*
X143700Y126513D01*
Y127487D01*
X143448Y128428D01*
X142961Y129272D01*
X142272Y129961D01*
X141428Y130448D01*
X140487Y130700D01*
D02*
G37*
G36*
X132487D02*
X131513D01*
X130572Y130448D01*
X129728Y129961D01*
X129039Y129272D01*
X128552Y128428D01*
X128300Y127487D01*
Y126513D01*
X128552Y125572D01*
X129039Y124728D01*
X129728Y124039D01*
X130572Y123552D01*
X131513Y123300D01*
X132487D01*
X133428Y123552D01*
X134272Y124039D01*
X134961Y124728D01*
X135448Y125572D01*
X135700Y126513D01*
Y127487D01*
X135448Y128428D01*
X134961Y129272D01*
X134272Y129961D01*
X133428Y130448D01*
X132487Y130700D01*
D02*
G37*
G36*
X108487D02*
X107513D01*
X106572Y130448D01*
X105728Y129961D01*
X105039Y129272D01*
X104552Y128428D01*
X104300Y127487D01*
Y126513D01*
X104552Y125572D01*
X105039Y124728D01*
X105728Y124039D01*
X106572Y123552D01*
X107513Y123300D01*
X108487D01*
X109428Y123552D01*
X110272Y124039D01*
X110961Y124728D01*
X111448Y125572D01*
X111700Y126513D01*
Y127487D01*
X111448Y128428D01*
X110961Y129272D01*
X110272Y129961D01*
X109428Y130448D01*
X108487Y130700D01*
D02*
G37*
G36*
X136487Y122700D02*
X135513D01*
X134572Y122448D01*
X133728Y121961D01*
X133039Y121272D01*
X132552Y120428D01*
X132300Y119487D01*
Y118513D01*
X132552Y117572D01*
X133039Y116728D01*
X133728Y116039D01*
X134572Y115552D01*
X135513Y115300D01*
X136487D01*
X137428Y115552D01*
X138272Y116039D01*
X138961Y116728D01*
X139448Y117572D01*
X139700Y118513D01*
Y119487D01*
X139448Y120428D01*
X138961Y121272D01*
X138272Y121961D01*
X137428Y122448D01*
X136487Y122700D01*
D02*
G37*
G36*
X128487D02*
X127513D01*
X126572Y122448D01*
X125728Y121961D01*
X125039Y121272D01*
X124552Y120428D01*
X124300Y119487D01*
Y118513D01*
X124552Y117572D01*
X125039Y116728D01*
X125728Y116039D01*
X126572Y115552D01*
X127513Y115300D01*
X128487D01*
X129428Y115552D01*
X130272Y116039D01*
X130961Y116728D01*
X131448Y117572D01*
X131700Y118513D01*
Y119487D01*
X131448Y120428D01*
X130961Y121272D01*
X130272Y121961D01*
X129428Y122448D01*
X128487Y122700D01*
D02*
G37*
G36*
X120487D02*
X119513D01*
X118572Y122448D01*
X117728Y121961D01*
X117039Y121272D01*
X116552Y120428D01*
X116300Y119487D01*
Y118513D01*
X116552Y117572D01*
X117039Y116728D01*
X117728Y116039D01*
X118572Y115552D01*
X119513Y115300D01*
X120487D01*
X121428Y115552D01*
X122272Y116039D01*
X122961Y116728D01*
X123448Y117572D01*
X123700Y118513D01*
Y119487D01*
X123448Y120428D01*
X122961Y121272D01*
X122272Y121961D01*
X121428Y122448D01*
X120487Y122700D01*
D02*
G37*
G36*
X75231Y119050D02*
X73769D01*
X72358Y118672D01*
X71092Y117941D01*
X70059Y116908D01*
X69328Y115642D01*
X68950Y114231D01*
Y112769D01*
X69328Y111358D01*
X70059Y110092D01*
X71092Y109059D01*
X72358Y108328D01*
X73769Y107950D01*
X75231D01*
X76642Y108328D01*
X77908Y109059D01*
X78941Y110092D01*
X79672Y111358D01*
X80050Y112769D01*
Y114231D01*
X79672Y115642D01*
X78941Y116908D01*
X77908Y117941D01*
X76642Y118672D01*
X75231Y119050D01*
D02*
G37*
G36*
X140487Y114700D02*
X139513D01*
X138572Y114448D01*
X137728Y113961D01*
X137039Y113272D01*
X136552Y112428D01*
X136300Y111487D01*
Y110513D01*
X136552Y109572D01*
X137039Y108728D01*
X137728Y108039D01*
X138572Y107552D01*
X139513Y107300D01*
X140487D01*
X141428Y107552D01*
X142272Y108039D01*
X142961Y108728D01*
X143448Y109572D01*
X143700Y110513D01*
Y111487D01*
X143448Y112428D01*
X142961Y113272D01*
X142272Y113961D01*
X141428Y114448D01*
X140487Y114700D01*
D02*
G37*
G36*
X132487D02*
X131513D01*
X130572Y114448D01*
X129728Y113961D01*
X129039Y113272D01*
X128552Y112428D01*
X128300Y111487D01*
Y110513D01*
X128552Y109572D01*
X129039Y108728D01*
X129728Y108039D01*
X130572Y107552D01*
X131513Y107300D01*
X132487D01*
X133428Y107552D01*
X134272Y108039D01*
X134961Y108728D01*
X135448Y109572D01*
X135700Y110513D01*
Y111487D01*
X135448Y112428D01*
X134961Y113272D01*
X134272Y113961D01*
X133428Y114448D01*
X132487Y114700D01*
D02*
G37*
G36*
X136487Y106700D02*
X135513D01*
X134572Y106448D01*
X133728Y105961D01*
X133039Y105272D01*
X132552Y104428D01*
X132300Y103487D01*
Y102513D01*
X132552Y101572D01*
X133039Y100728D01*
X133728Y100039D01*
X134572Y99552D01*
X135513Y99300D01*
X136487D01*
X137428Y99552D01*
X138272Y100039D01*
X138961Y100728D01*
X139448Y101572D01*
X139700Y102513D01*
Y103487D01*
X139448Y104428D01*
X138961Y105272D01*
X138272Y105961D01*
X137428Y106448D01*
X136487Y106700D01*
D02*
G37*
G36*
X140487Y98700D02*
X139513D01*
X138572Y98448D01*
X137728Y97961D01*
X137039Y97272D01*
X136552Y96428D01*
X136300Y95487D01*
Y94513D01*
X136552Y93572D01*
X137039Y92728D01*
X137728Y92039D01*
X138572Y91552D01*
X139513Y91300D01*
X140487D01*
X141428Y91552D01*
X142272Y92039D01*
X142961Y92728D01*
X143448Y93572D01*
X143700Y94513D01*
Y95487D01*
X143448Y96428D01*
X142961Y97272D01*
X142272Y97961D01*
X141428Y98448D01*
X140487Y98700D01*
D02*
G37*
G36*
X71976Y84685D02*
X69024D01*
X67811Y84525D01*
X66681Y84057D01*
X65711Y83313D01*
X64966Y82342D01*
X64498Y81213D01*
X64339Y80000D01*
X64498Y78787D01*
X64966Y77658D01*
X65711Y76687D01*
X66681Y75943D01*
X67811Y75475D01*
X69024Y75315D01*
X71976D01*
X73189Y75475D01*
X74319Y75943D01*
X75289Y76687D01*
X76034Y77658D01*
X76502Y78787D01*
X76661Y80000D01*
X76502Y81213D01*
X76034Y82342D01*
X75289Y83313D01*
X74319Y84057D01*
X73189Y84525D01*
X71976Y84685D01*
D02*
G37*
G36*
X71311Y39948D02*
X69089D01*
X66887Y39658D01*
X64741Y39083D01*
X62688Y38233D01*
X60764Y37122D01*
X59001Y35770D01*
X57430Y34199D01*
X56078Y32436D01*
X54967Y30512D01*
X54117Y28459D01*
X53542Y26313D01*
X53252Y24111D01*
Y21889D01*
X53542Y19687D01*
X54117Y17540D01*
X54967Y15488D01*
X56078Y13564D01*
X57430Y11801D01*
X59001Y10231D01*
X60764Y8878D01*
X62688Y7767D01*
X64741Y6917D01*
X66887Y6342D01*
X69089Y6052D01*
X71311D01*
X73514Y6342D01*
X75660Y6917D01*
X77712Y7767D01*
X79636Y8878D01*
X81399Y10231D01*
X82969Y11801D01*
X84322Y13564D01*
X85433Y15488D01*
X86283Y17540D01*
X86858Y19687D01*
X87148Y21889D01*
Y24111D01*
X86858Y26313D01*
X86283Y28459D01*
X85433Y30512D01*
X84322Y32436D01*
X82969Y34199D01*
X81399Y35770D01*
X79636Y37122D01*
X77712Y38233D01*
X75660Y39083D01*
X73514Y39658D01*
X71311Y39948D01*
D02*
G37*
%LPD*%
D82*
X220000Y179000D02*
Y205500D01*
X206000Y165000D02*
X220000Y179000D01*
X178000Y145000D02*
Y209000D01*
X179000Y118000D02*
X184500Y112500D01*
Y100500D02*
Y112500D01*
X179000Y118000D02*
Y144000D01*
X178000Y145000D02*
X179000Y144000D01*
X245500Y272500D02*
Y276999D01*
X247500Y278999D02*
Y280000D01*
X245500Y276999D02*
X247500Y278999D01*
X235500Y262500D02*
X245500Y272500D01*
X211000Y262500D02*
X235500D01*
X197500Y279500D02*
X230000D01*
X203395Y254894D02*
X211000Y262500D01*
X203395Y241642D02*
Y254894D01*
X183395Y265394D02*
X197500Y279500D01*
X183395Y241642D02*
Y265394D01*
X203000Y165000D02*
X206000D01*
X199000D02*
X202000D01*
X196000Y168000D02*
Y206000D01*
Y168000D02*
X199000Y165000D01*
X196000Y206000D02*
X203395Y213394D01*
Y241642D01*
X178000Y209000D02*
X183395Y214394D01*
Y241642D01*
D84*
X124500Y70000D02*
D03*
X98500Y70500D02*
D03*
X92500Y255500D02*
D03*
X92000Y236500D02*
D03*
X184500Y100500D02*
D03*
X230000Y279500D02*
D03*
X247500Y280000D02*
D03*
X220000Y205500D02*
D03*
D92*
X70500Y70000D02*
D03*
D96*
X130200Y25200D02*
D03*
Y45200D02*
D03*
X105200Y25200D02*
D03*
Y45200D02*
D03*
D97*
X203395Y241642D02*
D03*
X183395D02*
D03*
D98*
X143394D02*
D03*
D99*
X179000Y144000D02*
D03*
X202000Y165000D02*
D03*
X206000D02*
D03*
X179000Y148000D02*
D03*
Y152000D02*
D03*
X133000Y73000D02*
D03*
D101*
X103500Y229500D02*
D03*
X101600Y227600D02*
D03*
M02*
