G04*
G04 #@! TF.GenerationSoftware,Altium Limited,Altium Designer,21.1.1 (26)*
G04*
G04 Layer_Color=8421504*
%FSLAX25Y25*%
%MOIN*%
G70*
G04*
G04 #@! TF.SameCoordinates,8D04C4F7-E2C1-42FD-A476-B4637558DBC3*
G04*
G04*
G04 #@! TF.FilePolarity,Positive*
G04*
G01*
G75*
%ADD26R,0.05512X0.02244*%
%ADD27R,0.06693X0.09843*%
%ADD28R,0.04724X0.06496*%
%ADD29R,0.03347X0.03740*%
%ADD30R,0.03150X0.03150*%
%ADD31R,0.09646X0.10039*%
%ADD32R,0.03543X0.03937*%
%ADD33R,0.01968X0.01968*%
%ADD34R,0.03937X0.03543*%
%ADD35R,0.05512X0.05118*%
%ADD36R,0.03740X0.03347*%
%ADD37R,0.10630X0.05118*%
%ADD38R,0.10039X0.09646*%
G04:AMPARAMS|DCode=39|XSize=77.56mil|YSize=23.62mil|CornerRadius=2.95mil|HoleSize=0mil|Usage=FLASHONLY|Rotation=0.000|XOffset=0mil|YOffset=0mil|HoleType=Round|Shape=RoundedRectangle|*
%AMROUNDEDRECTD39*
21,1,0.07756,0.01772,0,0,0.0*
21,1,0.07165,0.02362,0,0,0.0*
1,1,0.00591,0.03583,-0.00886*
1,1,0.00591,-0.03583,-0.00886*
1,1,0.00591,-0.03583,0.00886*
1,1,0.00591,0.03583,0.00886*
%
%ADD39ROUNDEDRECTD39*%
%ADD40R,0.05118X0.07087*%
%ADD41R,0.07087X0.05118*%
G36*
X93009Y205790D02*
X99111D01*
Y200810D01*
X93009D01*
Y205790D01*
D02*
G37*
G36*
X103540Y204579D02*
X108363D01*
Y202021D01*
X103540D01*
Y204579D01*
D02*
G37*
D26*
X105607Y197395D02*
D03*
Y209206D02*
D03*
D27*
X259100Y177974D02*
D03*
Y162226D02*
D03*
X243700Y177974D02*
D03*
Y162226D02*
D03*
D28*
X231000Y158000D02*
D03*
X219976D02*
D03*
D29*
X203159Y274100D02*
D03*
X198041D02*
D03*
X105559Y183400D02*
D03*
X100441D02*
D03*
X145100Y163400D02*
D03*
X150218D02*
D03*
D30*
X190905Y274100D02*
D03*
X185000D02*
D03*
X94547Y177200D02*
D03*
X100453D02*
D03*
D31*
X195100Y193309D02*
D03*
Y169491D02*
D03*
X194800Y121491D02*
D03*
Y145309D02*
D03*
D32*
X100100Y189900D02*
D03*
X105415D02*
D03*
X202600Y266900D02*
D03*
X197285D02*
D03*
X140685Y64500D02*
D03*
X146000D02*
D03*
X185285Y266900D02*
D03*
X190600D02*
D03*
X105957Y217000D02*
D03*
X100643D02*
D03*
D33*
X115300Y207434D02*
D03*
Y199166D02*
D03*
D34*
X143000Y156400D02*
D03*
Y151085D02*
D03*
X150400Y151143D02*
D03*
Y156457D02*
D03*
X136100Y156358D02*
D03*
Y151042D02*
D03*
X130200Y228842D02*
D03*
Y234157D02*
D03*
D35*
X222800Y168001D02*
D03*
Y174300D02*
D03*
X223300Y141101D02*
D03*
Y147400D02*
D03*
D36*
X232500Y172618D02*
D03*
Y167500D02*
D03*
D37*
X211900Y178612D02*
D03*
Y167588D02*
D03*
X212100Y147100D02*
D03*
Y136076D02*
D03*
D38*
X131491Y186900D02*
D03*
X155309D02*
D03*
D39*
X180224Y168100D02*
D03*
Y163100D02*
D03*
Y158100D02*
D03*
Y153100D02*
D03*
X160776D02*
D03*
Y158100D02*
D03*
Y163100D02*
D03*
Y168100D02*
D03*
D40*
X153000Y73000D02*
D03*
X141583D02*
D03*
X193417Y257000D02*
D03*
X182000D02*
D03*
X213000D02*
D03*
X201583D02*
D03*
D41*
X122000Y233300D02*
D03*
Y221883D02*
D03*
M02*
