G04*
G04 #@! TF.GenerationSoftware,Altium Limited,Altium Designer,21.1.1 (26)*
G04*
G04 Layer_Color=16711935*
%FSLAX25Y25*%
%MOIN*%
G70*
G04*
G04 #@! TF.SameCoordinates,8D04C4F7-E2C1-42FD-A476-B4637558DBC3*
G04*
G04*
G04 #@! TF.FilePolarity,Negative*
G04*
G01*
G75*
%ADD58C,0.09094*%
%ADD59C,0.07480*%
%ADD60C,0.14905*%
%ADD61C,0.05118*%
%ADD64C,0.08839*%
%ADD65R,0.11344X0.11344*%
%ADD66C,0.11344*%
%ADD67O,0.12000X0.07874*%
%ADD68C,0.07874*%
%ADD69O,0.10630X0.15748*%
%ADD70O,0.10236X0.07284*%
%ADD71O,0.04937X0.48244*%
%ADD72C,0.31890*%
%ADD73O,0.12394X0.06394*%
%ADD74C,0.08957*%
%ADD75C,0.05236*%
%ADD76R,0.05236X0.05236*%
%ADD77C,0.03394*%
%ADD78C,0.05394*%
%ADD79C,0.03594*%
%ADD102C,0.06200*%
%ADD103R,0.07200X0.07200*%
D58*
X124500Y70000D02*
D03*
X98500Y70500D02*
D03*
X201500Y19000D02*
D03*
X631500Y70000D02*
D03*
X588500Y69500D02*
D03*
X525500Y71000D02*
D03*
X302500Y265500D02*
D03*
X67000Y189500D02*
D03*
Y235500D02*
D03*
Y213000D02*
D03*
X92500Y255500D02*
D03*
X92000Y236500D02*
D03*
X184500Y100500D02*
D03*
X74500Y113500D02*
D03*
X263500Y280500D02*
D03*
X230000Y279500D02*
D03*
X247500Y280000D02*
D03*
X561500Y178500D02*
D03*
X156000Y204500D02*
D03*
X220000Y205500D02*
D03*
D59*
X214000Y44500D02*
D03*
X194000D02*
D03*
Y74500D02*
D03*
X214000D02*
D03*
D60*
X606000Y120000D02*
D03*
Y220000D02*
D03*
X278500Y120200D02*
D03*
Y220200D02*
D03*
D61*
X352000Y199158D02*
D03*
Y218843D02*
D03*
D64*
X613000Y26500D02*
D03*
Y46500D02*
D03*
X280500Y26500D02*
D03*
Y46500D02*
D03*
X500000D02*
D03*
Y26500D02*
D03*
X587500Y46500D02*
D03*
Y26500D02*
D03*
X528000Y46500D02*
D03*
Y26500D02*
D03*
X457500Y46500D02*
D03*
Y26500D02*
D03*
X252500Y46500D02*
D03*
Y26500D02*
D03*
D65*
X680549Y135100D02*
D03*
D66*
Y178900D02*
D03*
D67*
X593000Y159894D02*
D03*
Y180000D02*
D03*
D68*
X464000Y96472D02*
D03*
Y155528D02*
D03*
X515000Y96472D02*
D03*
Y155528D02*
D03*
X416000Y96472D02*
D03*
Y155528D02*
D03*
X412866Y223000D02*
D03*
X521134D02*
D03*
X353000Y96472D02*
D03*
Y155528D02*
D03*
D69*
X723685Y257000D02*
D03*
X684315D02*
D03*
X723685Y57000D02*
D03*
X684315D02*
D03*
D70*
X70500Y80000D02*
D03*
Y70000D02*
D03*
D71*
X170000Y160000D02*
D03*
D72*
X407000Y299000D02*
D03*
X70200Y23000D02*
D03*
Y299000D02*
D03*
X765000Y23000D02*
D03*
Y299000D02*
D03*
X407000Y23000D02*
D03*
D73*
X120600Y159100D02*
D03*
Y129100D02*
D03*
X90600D02*
D03*
Y139100D02*
D03*
Y149100D02*
D03*
Y159100D02*
D03*
D74*
X156200Y25200D02*
D03*
Y45200D02*
D03*
X130200Y25200D02*
D03*
Y45200D02*
D03*
X105200Y25200D02*
D03*
Y45200D02*
D03*
D75*
X193394Y241642D02*
D03*
X203395D02*
D03*
X183395D02*
D03*
X153394D02*
D03*
D76*
X143394D02*
D03*
D77*
X224787Y185000D02*
D03*
Y181000D02*
D03*
X191000Y115000D02*
D03*
X197000D02*
D03*
X210000D02*
D03*
X205000D02*
D03*
X209000Y129000D02*
D03*
X179000Y144000D02*
D03*
X99828Y189900D02*
D03*
X202000Y165000D02*
D03*
X189000Y158000D02*
D03*
X90000Y203000D02*
D03*
X156000Y152500D02*
D03*
Y158000D02*
D03*
X206000Y165000D02*
D03*
X200787Y198000D02*
D03*
X208000Y197000D02*
D03*
Y192000D02*
D03*
X213000D02*
D03*
X214000Y185000D02*
D03*
X213000Y197000D02*
D03*
X208000Y185000D02*
D03*
X190000Y198000D02*
D03*
X179000Y148000D02*
D03*
X110200Y217000D02*
D03*
X179000Y152000D02*
D03*
X283000Y177000D02*
D03*
Y184000D02*
D03*
X247000Y186000D02*
D03*
X240000D02*
D03*
X233000Y178000D02*
D03*
X224000Y135000D02*
D03*
X215000Y129000D02*
D03*
X156000Y148000D02*
D03*
X220000Y115000D02*
D03*
X215000D02*
D03*
X162500Y187000D02*
D03*
X90000Y177200D02*
D03*
X121900Y216400D02*
D03*
X130600Y224200D02*
D03*
X142500Y144100D02*
D03*
X136000D02*
D03*
X155700Y168100D02*
D03*
X133000Y73000D02*
D03*
D78*
X156000Y143000D02*
D03*
X160000Y135000D02*
D03*
X156000Y127000D02*
D03*
X160000Y119000D02*
D03*
X156000Y111000D02*
D03*
X160000Y103000D02*
D03*
X156000Y95000D02*
D03*
X148000Y143000D02*
D03*
X152000Y135000D02*
D03*
X148000Y127000D02*
D03*
X152000Y119000D02*
D03*
X148000Y111000D02*
D03*
X152000Y103000D02*
D03*
X148000Y95000D02*
D03*
X144000Y135000D02*
D03*
X140000Y127000D02*
D03*
X144000Y119000D02*
D03*
X140000Y111000D02*
D03*
X144000Y103000D02*
D03*
X140000Y95000D02*
D03*
X136000Y135000D02*
D03*
X132000Y127000D02*
D03*
X136000Y119000D02*
D03*
X132000Y111000D02*
D03*
X136000Y103000D02*
D03*
X128000Y135000D02*
D03*
Y119000D02*
D03*
X120000D02*
D03*
X108000Y127000D02*
D03*
D79*
X122563Y184563D02*
D03*
Y189562D02*
D03*
X500000Y47500D02*
D03*
X245000Y152000D02*
D03*
X270000Y170000D02*
D03*
X274000Y190000D02*
D03*
X103500Y229500D02*
D03*
X101600Y227600D02*
D03*
X151500Y64500D02*
D03*
X159500Y73000D02*
D03*
X136500Y164500D02*
D03*
D102*
X293000Y170000D02*
D03*
Y190000D02*
D03*
Y180000D02*
D03*
D103*
Y150000D02*
D03*
M02*
