M48
;Layer_Color=9474304
;FILE_FORMAT=2:5
INCH,LZ
;TYPE=PLATED
T1F00S00C0.01500
T2F00S00C0.01600
T3F00S00C0.02800
T4F00S00C0.03150
T5F00S00C0.03228
T6F00S00C0.03346
T7F00S00C0.04000
T8F00S00C0.04331
T9F00S00C0.05000
T10F00S00C0.05118
T11F00S00C0.05630
T12F00S00C0.05709
T13F00S00C0.06300
T14F00S00C0.07008
T15F00S00C0.07300
T16F00S00C0.07874
T17F00S00C0.10512
T18F00S00C0.13386
;TYPE=NON_PLATED
%
T01
X0215Y0115
X022
X021
X0205
X0197
X0191
X0133Y0073
X0136Y01441
X01425
X0156Y0148
Y01525
Y0158
X01557Y01681
X01625Y0187
X019Y0198
X0200787
X0208Y0197
Y0192
Y0185
X0206Y0165
X0202
X0189Y0158
X0179Y0152
Y0148
Y0144
X0209Y0129
X009Y01772
X0099828Y01899
X009Y0203
X01102Y0217
X01219Y02164
X01306Y02242
X0213Y0197
Y0192
X0214Y0185
X0224787
Y0181
X0233Y0178
X024Y0186
X0247
X0283Y0184
Y0177
X0224Y0135
X0215Y0129
T02
X05Y00475
X01515Y00645
X01595Y0073
X01365Y01645
X0122563Y0184563
Y0189562
X01035Y02295
X01016Y02276
X0274Y019
X027Y017
X0245Y0152
T03
X014Y0095
X0148
X0156
X016Y0103
X0152
X0144
X0136
X014Y0111
X0148
X0156
X016Y0119
X0152
X0144
X0136
X0128
X012
X0132Y0127
X014
X0148
X0156
X0132Y0111
X0108Y0127
X0128Y0135
X0136
X0144
X0152
X016
X0156Y0143
X0148
T04
X0352Y0199158
Y0218843
X0521134Y0223
T05
X0143394Y0241642
X0153394
X0183395
X0193394
X0203395
T06
X0416Y0096472
X0464
X0515
X0353
Y0155528
X0416
X0464
X0515
X0412866Y0223
T07
X00906Y01291
Y01391
Y01491
Y01591
X01206
Y01291
T08
X00705Y007
Y008
T09
X0593Y0159894
Y018
T10
X0214Y00445
Y00745
X0194
Y00445
T11
X0528Y00265
Y00465
X05875
Y00265
X0613
Y00465
X05
Y00265
X04575
Y00465
X02805
Y00265
X02525
Y00465
T12
X01052Y00252
Y00452
X01302
Y00252
X01562
Y00452
T13
X05255Y0071
X05885Y00695
X06315Y007
X01845Y01005
X01245Y007
X00985Y00705
X00745Y01135
X02015Y0019
X0156Y02045
X0092Y02365
X00925Y02555
X0067Y02355
Y0213
Y01895
X022Y02055
X023Y02795
X02475Y028
X02635Y02805
X03025Y02655
X05615Y01785
T14
X0293Y015
Y017
Y018
Y019
T15
X0680549Y01351
Y01789
T16
X0684315Y0057
X0723685
Y0257
X0684315
T17
X0606Y012
X02785Y01202
Y02202
X0606Y022
T18
X0765Y0023
X0407
X00702
X0765Y0299
X0407
X00702
M30
